SplineFontDB: 3.0
FontName: DroidSans-Bold
FullName: Droid Sans Bold
FamilyName: Droid Sans
Weight: Bold
Copyright: Digitized data copyright (c) 2007, Google Corporation.
Version: 1.00 build 112
ItalicAngle: 0
UnderlinePosition: -103
UnderlineWidth: 102
Ascent: 1638
Descent: 410
sfntRevision: 0x00010000
LayerCount: 2
Layer: 0 1 "Back"  1
Layer: 1 1 "Fore"  0
NeedsXUIDChange: 1
XUID: [1021 212 293451659 15794475]
FSType: 8
OS2Version: 3
OS2_WeightWidthSlopeOnly: 0
OS2_UseTypoMetrics: 1
CreationTime: 1165263476
ModificationTime: 1294924671
PfmFamily: 17
TTFWeight: 700
TTFWidth: 5
LineGap: 0
VLineGap: 0
Panose: 2 11 8 6 3 8 4 2 2 4
OS2TypoAscent: -71
OS2TypoAOffset: 1
OS2TypoDescent: -82
OS2TypoDOffset: 1
OS2TypoLinegap: 132
OS2WinAscent: -288
OS2WinAOffset: 1
OS2WinDescent: -117
OS2WinDOffset: 1
HheadAscent: -288
HheadAOffset: 1
HheadDescent: 117
HheadDOffset: 1
OS2SubXSize: 1434
OS2SubYSize: 1331
OS2SubXOff: 0
OS2SubYOff: 286
OS2SupXSize: 1434
OS2SupYSize: 1331
OS2SupXOff: 0
OS2SupYOff: 976
OS2StrikeYSize: 102
OS2StrikeYPos: 508
OS2Vendor: '1ASC'
OS2CodePages: 2000019f.00000000
OS2UnicodeRanges: e00002ef.4000205b.00000028.00000000
Lookup: 258 8 0 "'kern' Horizontal Kerning in Latin lookup 0"  {"'kern' Horizontal Kerning in Latin lookup 0 subtable"  } ['kern' ('latn' <'dflt' > ) ]
DEI: 91125
TtTable: prep
NPUSHB
 51
 9
 248
 3
 255
 31
 80
 244
 1
 159
 243
 1
 48
 241
 1
 55
 240
 71
 240
 87
 240
 3
 47
 239
 159
 239
 2
 64
 237
 80
 237
 208
 237
 3
 48
 236
 1
 37
 235
 53
 235
 85
 235
 101
 235
 4
 87
 228
 1
 102
 225
 1
PUSHW_1
 -16
PUSHB_4
 224
 19
 22
 70
PUSHW_1
 -16
NPUSHB
 63
 224
 11
 14
 70
 252
 251
 51
 31
 223
 51
 221
 85
 222
 51
 220
 85
 48
 251
 64
 251
 96
 251
 3
 95
 221
 207
 221
 2
 32
 221
 48
 221
 2
 220
 3
 25
 31
 201
 200
 25
 31
 198
 197
 51
 31
 254
 194
 25
 31
 48
 192
 1
 187
 186
 25
 31
 64
 183
 96
 183
 128
 183
 3
PUSHW_1
 -64
PUSHB_4
 183
 17
 20
 70
PUSHW_1
 -24
PUSHB_7
 180
 9
 13
 70
 192
 177
 1
PUSHW_1
 -24
NPUSHB

StartChar: .notdef
Encoding: -1 -1 0
Width: 1229
GlyphClass: 2
Flags: W
LayerCount: 2
Fore
SplineSet
193 1462 m 1,0,-1
 1034 1462 l 1,1,-1
 1034 0 l 1,2,-1
 193 0 l 1,3,-1
 193 1462 l 1,0,-1
297 104 m 1,4,-1
 930 104 l 1,5,-1
 930 1358 l 1,6,-1
 297 1358 l 1,7,-1
 297 104 l 1,4,-1
EndSplineSet
EndChar

StartChar: exclam
Encoding: 33 33 4
Width: 586
GlyphClass: 2
Flags: W
LayerCount: 2
Fore
SplineSet
416 485 m 1,0,-1
 172 485 l 1,1,-1
 121 1462 l 1,2,-1
 467 1462 l 1,3,-1
 416 485 l 1,0,-1
117 143 m 0,4,5
 117 190 117 190 130.5 222.5 c 128,-1,6
 144 255 144 255 168 275 c 128,-1,7
 192 295 192 295 224 304 c 128,-1,8
 256 313 256 313 293 313 c 0,9,10
 328 313 328 313 359.5 304 c 128,-1,11
 391 295 391 295 415 275 c 128,-1,12
 439 255 439 255 453 222.5 c 128,-1,13
 467 190 467 190 467 143 c 0,14,15
 467 98 467 98 453 66 c 128,-1,16
 439 34 439 34 415 13 c 128,-1,17
 391 -8 391 -8 359.5 -17.5 c 128,-1,18
 328 -27 328 -27 293 -27 c 0,19,20
 256 -27 256 -27 224 -17.5 c 128,-1,21
 192 -8 192 -8 168 13 c 128,-1,22
 144 34 144 34 130.5 66 c 128,-1,23
 117 98 117 98 117 143 c 0,4,5
EndSplineSet
EndChar

StartChar: quotedbl
Encoding: 34 34 5
Width: 967
GlyphClass: 2
Flags: W
LayerCount: 2
Fore
SplineSet
412 1462 m 1,0,-1
 371 934 l 1,1,-1
 174 934 l 1,2,-1
 133 1462 l 1,3,-1
 412 1462 l 1,0,-1
834 1462 m 1,4,-1
 793 934 l 1,5,-1
 596 934 l 1,6,-1
 555 1462 l 1,7,-1
 834 1462 l 1,4,-1
EndSplineSet
EndChar

StartChar: numbersign
Encoding: 35 35 6
Width: 1323
GlyphClass: 2
Flags: W
LayerCount: 2
Fore
SplineSet
999 844 m 1,0,-1
 952 612 l 1,1,-1
 1210 612 l 1,2,-1
 1210 406 l 1,3,-1
 913 406 l 1,4,-1
 836 0 l 1,5,-1
 616 0 l 1,6,-1
 694 406 l 1,7,-1
 500 406 l 1,8,-1
 424 0 l 1,9,-1
 209 0 l 1,10,-1
 283 406 l 1,11,-1
 45 406 l 1,12,-1
 45 612 l 1,13,-1
 322 612 l 1,14,-1
 369 844 l 1,15,-1
 117 844 l 1,16,-1
 117 1053 l 1,17,-1
 406 1053 l 1,18,-1
 483 1460 l 1,19,-1
 702 1460 l 1,20,-1
 625 1053 l 1,21,-1
 823 1053 l 1,22,-1
 901 1460 l 1,23,-1
 1116 1460 l 1,24,-1
 1038 1053 l 1,25,-1
 1278 1053 l 1,26,-1
 1278 844 l 1,27,-1
 999 844 l 1,0,-1
539 612 m 1,28,-1
 735 612 l 1,29,-1
 782 844 l 1,30,-1
 586 844 l 1,31,-1
 539 612 l 1,28,-1
EndSplineSet
EndChar

StartChar: dollar
Encoding: 36 36 7
Width: 1128
GlyphClass: 2
Flags: W
LayerCount: 2
Fore
SplineSet
1061 457 m 0,0,1
 1061 382 1061 382 1034.5 318 c 128,-1,2
 1008 254 1008 254 955.5 206 c 128,-1,3
 903 158 903 158 825 127 c 128,-1,4
 747 96 747 96 645 86 c 1,5,-1
 645 -119 l 1,6,-1
 508 -119 l 1,7,-1
 508 82 l 1,8,9
 442 84 442 84 386 90 c 128,-1,10
 330 96 330 96 281 107 c 128,-1,11
 232 118 232 118 187.5 133.5 c 128,-1,12
 143 149 143 149 100 168 c 1,13,-1
 100 432 l 1,14,15
 142 411 142 411 191.5 392 c 128,-1,16
 241 373 241 373 294 357.5 c 128,-1,17
 347 342 347 342 401.5 331 c 128,-1,18
 456 320 456 320 508 317 c 1,19,-1
 508 635 l 1,20,21
 500 638 500 638 491 642 c 0,22,23
 483 645 483 645 475 648 c 128,-1,24
 467 651 467 651 461 653 c 0,25,26
 370 688 370 688 302 726 c 128,-1,27
 234 764 234 764 188.5 811 c 128,-1,28
 143 858 143 858 120.5 915 c 128,-1,29
 98 972 98 972 98 1044 c 0,30,31
 98 1119 98 1119 126.5 1180.5 c 128,-1,32
 155 1242 155 1242 208 1287.5 c 128,-1,33
 261 1333 261 1333 337 1361.5 c 128,-1,34
 413 1390 413 1390 508 1399 c 1,35,-1
 508 1556 l 1,36,-1
 645 1556 l 1,37,-1
 645 1405 l 1,38,39
 732 1400 732 1400 823 1380 c 128,-1,40
 914 1360 914 1360 1014 1317 c 1,41,-1
 913 1083 l 1,42,43
 848 1109 848 1109 777.5 1129.5 c 128,-1,44
 707 1150 707 1150 645 1155 c 1,45,-1
 645 862 l 1,46,-1
 684 848 l 2,47,48
 779 813 779 813 850 776 c 128,-1,49
 921 739 921 739 968 693 c 128,-1,50
 1015 647 1015 647 1038 590 c 128,-1,51
 1061 533 1061 533 1061 457 c 0,0,1
760 451 m 0,52,53
 760 475 760 475 753.5 493 c 128,-1,54
 747 511 747 511 733 526 c 128,-1,55
 719 541 719 541 697.5 553.5 c 128,-1,56
 676 566 676 566 645 580 c 1,57,-1
 645 328 l 1,58,59
 704 337 704 337 732 367 c 128,-1,60
 760 397 760 397 760 451 c 0,52,53
399 1051 m 0,61,62
 399 1004 399 1004 425 972.5 c 128,-1,63
 451 941 451 941 508 920 c 1,64,-1
 508 1153 l 1,65,66
 454 1147 454 1147 426.5 1123 c 128,-1,67
 399 1099 399 1099 399 1051 c 0,61,62
EndSplineSet
EndChar

StartChar: percent
Encoding: 37 37 8
Width: 1804
GlyphClass: 2
Flags: W
LayerCount: 2
Fore
SplineSet
315 1024 m 256,0,1
 315 897 315 897 337.5 834.5 c 128,-1,2
 360 772 360 772 410 772 c 0,3,4
 459 772 459 772 482.5 834 c 128,-1,5
 506 896 506 896 506 1024 c 0,6,7
 506 1274 506 1274 410 1274 c 0,8,9
 360 1274 360 1274 337.5 1212.5 c 128,-1,10
 315 1151 315 1151 315 1024 c 256,0,1
758 1026 m 256,11,12
 758 918 758 918 737.5 832 c 128,-1,13
 717 746 717 746 674 687 c 128,-1,14
 631 628 631 628 565 596.5 c 128,-1,15
 499 565 499 565 408 565 c 0,16,17
 323 565 323 565 258.5 596.5 c 128,-1,18
 194 628 194 628 150.5 687 c 128,-1,19
 107 746 107 746 85 832 c 128,-1,20
 63 918 63 918 63 1026 c 256,21,22
 63 1134 63 1134 83 1219 c 128,-1,23
 103 1304 103 1304 145.5 1362.5 c 128,-1,24
 188 1421 188 1421 253 1452 c 128,-1,25
 318 1483 318 1483 408 1483 c 0,26,27
 494 1483 494 1483 559.5 1452 c 128,-1,28
 625 1421 625 1421 669 1362.5 c 128,-1,29
 713 1304 713 1304 735.5 1219 c 128,-1,30
 758 1134 758 1134 758 1026 c 256,11,12
1425 1462 m 1,31,-1
 614 0 l 1,32,-1
 375 0 l 1,33,-1
 1186 1462 l 1,34,-1
 1425 1462 l 1,31,-1
1298 440 m 256,35,36
 1298 313 1298 313 1320.5 250.5 c 128,-1,37
 1343 188 1343 188 1393 188 c 0,38,39
 1442 188 1442 188 1465.5 250 c 128,-1,40
 1489 312 1489 312 1489 440 c 0,41,42
 1489 690 1489 690 1393 690 c 0,43,44
 1343 690 1343 690 1320.5 628.5 c 128,-1,45
 1298 567 1298 567 1298 440 c 256,35,36
1741 442 m 256,46,47
 1741 334 1741 334 1720.5 248.5 c 128,-1,48
 1700 163 1700 163 1657 104 c 128,-1,49
 1614 45 1614 45 1548 13.5 c 128,-1,50
 1482 -18 1482 -18 1391 -18 c 0,51,52
 1306 -18 1306 -18 1242 13.5 c 128,-1,53
 1178 45 1178 45 1134.5 104 c 128,-1,54
 1091 163 1091 163 1069 248.5 c 128,-1,55
 1047 334 1047 334 1047 442 c 256,56,57
 1047 550 1047 550 1067 635 c 128,-1,58
 1087 720 1087 720 1129 778.5 c 128,-1,59
 1171 837 1171 837 1236 868 c 128,-1,60
 1301 899 1301 899 1391 899 c 0,61,62
 1477 899 1477 899 1542.5 868 c 128,-1,63
 1608 837 1608 837 1652 778.5 c 128,-1,64
 1696 720 1696 720 1718.5 635 c 128,-1,65
 1741 550 1741 550 1741 442 c 256,46,47
EndSplineSet
EndChar

StartChar: ampersand
Encoding: 38 38 9
Width: 1479
GlyphClass: 2
Flags: W
LayerCount: 2
Fore
SplineSet
1475 0 m 1,0,-1
 1098 0 l 1,1,-1
 1001 100 l 1,2,3
 921 45 921 45 824.5 12.5 c 128,-1,4
 728 -20 728 -20 612 -20 c 0,5,6
 492 -20 492 -20 394.5 10 c 128,-1,7
 297 40 297 40 227.5 94.5 c 128,-1,8
 158 149 158 149 120 225.5 c 128,-1,9
 82 302 82 302 82 395 c 0,10,11
 82 472 82 472 100.5 532.5 c 128,-1,12
 119 593 119 593 153 642 c 128,-1,13
 187 691 187 691 235.5 731 c 128,-1,14
 284 771 284 771 344 807 c 1,15,16
 306 853 306 853 279.5 895.5 c 128,-1,17
 253 938 253 938 237 979.5 c 128,-1,18
 221 1021 221 1021 214 1062.5 c 128,-1,19
 207 1104 207 1104 207 1149 c 0,20,21
 207 1227 207 1227 237.5 1288.5 c 128,-1,22
 268 1350 268 1350 322.5 1393.5 c 128,-1,23
 377 1437 377 1437 452.5 1460 c 128,-1,24
 528 1483 528 1483 618 1483 c 0,25,26
 704 1483 704 1483 776.5 1462 c 128,-1,27
 849 1441 849 1441 901.5 1400.5 c 128,-1,28
 954 1360 954 1360 984 1300.5 c 128,-1,29
 1014 1241 1014 1241 1014 1165 c 0,30,31
 1014 1096 1014 1096 991.5 1038.5 c 128,-1,32
 969 981 969 981 931 932 c 128,-1,33
 893 883 893 883 841.5 842 c 128,-1,34
 790 801 790 801 731 766 c 1,35,-1
 991 498 l 1,36,37
 1026 564 1026 564 1052.5 637 c 128,-1,38
 1079 710 1079 710 1098 784 c 1,39,-1
 1415 784 l 1,40,41
 1400 727 1400 727 1379.5 664 c 128,-1,42
 1359 601 1359 601 1332 537.5 c 128,-1,43
 1305 474 1305 474 1270 411 c 128,-1,44
 1235 348 1235 348 1192 291 c 1,45,-1
 1475 0 l 1,0,-1
403 424 m 0,46,47
 403 380 403 380 419 345 c 128,-1,48
 435 310 435 310 463.5 286 c 128,-1,49
 492 262 492 262 530.5 249 c 128,-1,50
 569 236 569 236 614 236 c 0,51,52
 674 236 674 236 725 251.5 c 128,-1,53
 776 267 776 267 819 295 c 1,54,-1
 510 625 l 1,55,56
 459 583 459 583 431 535 c 128,-1,57
 403 487 403 487 403 424 c 0,46,47
731 1124 m 0,58,59
 731 1155 731 1155 721 1176.5 c 128,-1,60
 711 1198 711 1198 694.5 1212 c 128,-1,61
 678 1226 678 1226 657.5 1232.5 c 128,-1,62
 637 1239 637 1239 616 1239 c 0,63,64
 594 1239 594 1239 571.5 1233 c 128,-1,65
 549 1227 549 1227 530.5 1213.5 c 128,-1,66
 512 1200 512 1200 500.5 1177.5 c 128,-1,67
 489 1155 489 1155 489 1122 c 0,68,69
 489 1070 489 1070 512 1024 c 128,-1,70
 535 978 535 978 575 932 c 1,71,72
 652 976 652 976 691.5 1020 c 128,-1,73
 731 1064 731 1064 731 1124 c 0,58,59
EndSplineSet
EndChar

StartChar: quotesingle
Encoding: 39 39 10
Width: 545
GlyphClass: 2
Flags: W
LayerCount: 2
Fore
SplineSet
412 1462 m 1,0,-1
 371 934 l 1,1,-1
 174 934 l 1,2,-1
 133 1462 l 1,3,-1
 412 1462 l 1,0,-1
EndSplineSet
EndChar

StartChar: parenleft
Encoding: 40 40 11
Width: 694
GlyphClass: 2
Flags: W
LayerCount: 2
Fore
SplineSet
82 561 m 0,0,1
 82 686 82 686 100 807.5 c 128,-1,2
 118 929 118 929 155 1043.5 c 128,-1,3
 192 1158 192 1158 248.5 1263.5 c 128,-1,4
 305 1369 305 1369 383 1462 c 1,5,-1
 633 1462 l 1,6,7
 492 1269 492 1269 420 1038 c 128,-1,8
 348 807 348 807 348 563 c 0,9,10
 348 444 348 444 366 326 c 128,-1,11
 384 208 384 208 420 95 c 128,-1,12
 456 -18 456 -18 509 -124 c 128,-1,13
 562 -230 562 -230 631 -324 c 1,14,-1
 383 -324 l 1,15,16
 305 -234 305 -234 248.5 -131 c 128,-1,17
 192 -28 192 -28 155 84.5 c 128,-1,18
 118 197 118 197 100 317 c 128,-1,19
 82 437 82 437 82 561 c 0,0,1
EndSplineSet
EndChar

StartChar: parenright
Encoding: 41 41 12
Width: 694
GlyphClass: 2
Flags: W
LayerCount: 2
Fore
SplineSet
612 561 m 0,0,1
 612 437 612 437 594 317 c 128,-1,2
 576 197 576 197 539 84.5 c 128,-1,3
 502 -28 502 -28 445.5 -131 c 128,-1,4
 389 -234 389 -234 311 -324 c 1,5,-1
 63 -324 l 1,6,7
 132 -230 132 -230 185 -124 c 128,-1,8
 238 -18 238 -18 274 95 c 128,-1,9
 310 208 310 208 328 326 c 128,-1,10
 346 444 346 444 346 563 c 0,11,12
 346 807 346 807 274 1038 c 128,-1,13
 202 1269 202 1269 61 1462 c 1,14,-1
 311 1462 l 1,15,16
 389 1369 389 1369 445.5 1263.5 c 128,-1,17
 502 1158 502 1158 539 1043.5 c 128,-1,18
 576 929 576 929 594 807.5 c 128,-1,19
 612 686 612 686 612 561 c 0,0,1
EndSplineSet
EndChar

StartChar: asterisk
Encoding: 42 42 13
Width: 1116
GlyphClass: 2
Flags: W
LayerCount: 2
Fore
SplineSet
688 1556 m 1,0,-1
 647 1188 l 1,1,-1
 1020 1292 l 1,2,-1
 1053 1040 l 1,3,-1
 713 1016 l 1,4,-1
 936 719 l 1,5,-1
 709 598 l 1,6,-1
 553 911 l 1,7,-1
 416 600 l 1,8,-1
 180 719 l 1,9,-1
 401 1016 l 1,10,-1
 63 1042 l 1,11,-1
 102 1292 l 1,12,-1
 467 1188 l 1,13,-1
 426 1556 l 1,14,-1
 688 1556 l 1,0,-1
EndSplineSet
EndChar

StartChar: plus
Encoding: 43 43 14
Width: 1128
GlyphClass: 2
Flags: W
LayerCount: 2
Fore
SplineSet
455 612 m 1,0,-1
 88 612 l 1,1,-1
 88 831 l 1,2,-1
 455 831 l 1,3,-1
 455 1200 l 1,4,-1
 674 1200 l 1,5,-1
 674 831 l 1,6,-1
 1040 831 l 1,7,-1
 1040 612 l 1,8,-1
 674 612 l 1,9,-1
 674 248 l 1,10,-1
 455 248 l 1,11,-1
 455 612 l 1,0,-1
EndSplineSet
EndChar

StartChar: comma
Encoding: 44 44 15
Width: 594
GlyphClass: 2
Flags: W
LayerCount: 2
Fore
SplineSet
459 215 m 1,0,1
 445 161 445 161 425.5 100 c 128,-1,2
 406 39 406 39 382.5 -23 c 128,-1,3
 359 -85 359 -85 333.5 -146.5 c 128,-1,4
 308 -208 308 -208 283 -264 c 1,5,-1
 63 -264 l 1,6,7
 78 -203 78 -203 92.5 -137 c 128,-1,8
 107 -71 107 -71 120.5 -5.5 c 128,-1,9
 134 60 134 60 145 122.5 c 128,-1,10
 156 185 156 185 164 238 c 1,11,-1
 444 238 l 1,12,-1
 459 215 l 1,0,1
EndSplineSet
EndChar

StartChar: hyphen
Encoding: 45 45 16
Width: 659
GlyphClass: 2
Flags: W
LayerCount: 2
Fore
SplineSet
61 424 m 1,0,-1
 61 674 l 1,1,-1
 598 674 l 1,2,-1
 598 424 l 1,3,-1
 61 424 l 1,0,-1
EndSplineSet
EndChar

StartChar: period
Encoding: 46 46 17
Width: 584
GlyphClass: 2
Flags: W
LayerCount: 2
Fore
SplineSet
117 143 m 0,0,1
 117 190 117 190 130.5 222.5 c 128,-1,2
 144 255 144 255 168 275 c 128,-1,3
 192 295 192 295 224 304 c 128,-1,4
 256 313 256 313 293 313 c 0,5,6
 328 313 328 313 359.5 304 c 128,-1,7
 391 295 391 295 415 275 c 128,-1,8
 439 255 439 255 453 222.5 c 128,-1,9
 467 190 467 190 467 143 c 0,10,11
 467 98 467 98 453 66 c 128,-1,12
 439 34 439 34 415 13 c 128,-1,13
 391 -8 391 -8 359.5 -17.5 c 128,-1,14
 328 -27 328 -27 293 -27 c 0,15,16
 256 -27 256 -27 224 -17.5 c 128,-1,17
 192 -8 192 -8 168 13 c 128,-1,18
 144 34 144 34 130.5 66 c 128,-1,19
 117 98 117 98 117 143 c 0,0,1
EndSplineSet
EndChar

StartChar: slash
Encoding: 47 47 18
Width: 846
GlyphClass: 2
Flags: W
LayerCount: 2
Fore
SplineSet
836 1462 m 1,0,-1
 291 0 l 1,1,-1
 14 0 l 1,2,-1
 559 1462 l 1,3,-1
 836 1462 l 1,0,-1
EndSplineSet
EndChar

StartChar: zero
Encoding: 48 48 19
Width: 1128
GlyphClass: 2
Flags: W
LayerCount: 2
Fore
SplineSet
1065 731 m 0,0,1
 1065 554 1065 554 1037.5 415 c 128,-1,2
 1010 276 1010 276 949.5 179 c 128,-1,3
 889 82 889 82 793.5 31 c 128,-1,4
 698 -20 698 -20 563 -20 c 0,5,6
 436 -20 436 -20 342 31 c 128,-1,7
 248 82 248 82 186 179 c 128,-1,8
 124 276 124 276 93.5 415 c 128,-1,9
 63 554 63 554 63 731 c 256,10,11
 63 908 63 908 90.5 1048 c 128,-1,12
 118 1188 118 1188 178 1285 c 128,-1,13
 238 1382 238 1382 333 1433.5 c 128,-1,14
 428 1485 428 1485 563 1485 c 0,15,16
 689 1485 689 1485 783 1434 c 128,-1,17
 877 1383 877 1383 940 1286 c 128,-1,18
 1003 1189 1003 1189 1034 1049 c 128,-1,19
 1065 909 1065 909 1065 731 c 0,0,1
371 731 m 0,20,21
 371 481 371 481 414 355 c 128,-1,22
 457 229 457 229 563 229 c 0,23,24
 667 229 667 229 712.5 354 c 128,-1,25
 758 479 758 479 758 731 c 0,26,27
 758 982 758 982 712.5 1108.5 c 128,-1,28
 667 1235 667 1235 563 1235 c 0,29,30
 510 1235 510 1235 473.5 1203 c 128,-1,31
 437 1171 437 1171 414 1108 c 128,-1,32
 391 1045 391 1045 381 950.5 c 128,-1,33
 371 856 371 856 371 731 c 0,20,21
EndSplineSet
EndChar

StartChar: one
Encoding: 49 49 20
Width: 1128
GlyphClass: 2
Flags: W
LayerCount: 2
Fore
SplineSet
817 0 m 1,0,-1
 508 0 l 1,1,-1
 508 846 l 2,2,3
 508 872 508 872 508.5 908.5 c 128,-1,4
 509 945 509 945 510.5 984.5 c 128,-1,5
 512 1024 512 1024 513.5 1064 c 128,-1,6
 515 1104 515 1104 516 1137 c 1,7,8
 511 1131 511 1131 499 1119 c 128,-1,9
 487 1107 487 1107 472 1092.5 c 128,-1,10
 457 1078 457 1078 441 1063 c 128,-1,11
 425 1048 425 1048 410 1036 c 2,12,-1
 242 901 l 1,13,-1
 92 1087 l 1,14,-1
 563 1462 l 1,15,-1
 817 1462 l 1,16,-1
 817 0 l 1,0,-1
EndSplineSet
EndChar

StartChar: two
Encoding: 50 50 21
Width: 1128
GlyphClass: 2
Flags: W
LayerCount: 2
Fore
SplineSet
1063 0 m 1,0,-1
 82 0 l 1,1,-1
 82 215 l 1,2,-1
 426 586 l 2,3,4
 491 656 491 656 544 715 c 128,-1,5
 597 774 597 774 635 830 c 128,-1,6
 673 886 673 886 694 944 c 128,-1,7
 715 1002 715 1002 715 1069 c 0,8,9
 715 1143 715 1143 670.5 1184 c 128,-1,10
 626 1225 626 1225 551 1225 c 0,11,12
 472 1225 472 1225 399 1186 c 128,-1,13
 326 1147 326 1147 246 1075 c 1,14,-1
 78 1274 l 1,15,16
 123 1315 123 1315 172 1352.5 c 128,-1,17
 221 1390 221 1390 280 1419 c 128,-1,18
 339 1448 339 1448 410 1465.5 c 128,-1,19
 481 1483 481 1483 569 1483 c 0,20,21
 674 1483 674 1483 757.5 1454 c 128,-1,22
 841 1425 841 1425 900 1371.5 c 128,-1,23
 959 1318 959 1318 990.5 1242 c 128,-1,24
 1022 1166 1022 1166 1022 1071 c 0,25,26
 1022 985 1022 985 992 906.5 c 128,-1,27
 962 828 962 828 910 752.5 c 128,-1,28
 858 677 858 677 789.5 602.5 c 128,-1,29
 721 528 721 528 643 451 c 1,30,-1
 467 274 l 1,31,-1
 467 260 l 1,32,-1
 1063 260 l 1,33,-1
 1063 0 l 1,0,-1
EndSplineSet
EndChar

StartChar: three
Encoding: 51 51 22
Width: 1128
GlyphClass: 2
Flags: W
LayerCount: 2
Fore
SplineSet
1006 1135 m 0,0,1
 1006 1059 1006 1059 981.5 998.5 c 128,-1,2
 957 938 957 938 914.5 892.5 c 128,-1,3
 872 847 872 847 814.5 816.5 c 128,-1,4
 757 786 757 786 690 770 c 1,5,-1
 690 764 l 1,6,7
 867 742 867 742 958 656.5 c 128,-1,8
 1049 571 1049 571 1049 426 c 0,9,10
 1049 330 1049 330 1014.5 248.5 c 128,-1,11
 980 167 980 167 908.5 107 c 128,-1,12
 837 47 837 47 728.5 13.5 c 128,-1,13
 620 -20 620 -20 473 -20 c 0,14,15
 355 -20 355 -20 251 -0.5 c 128,-1,16
 147 19 147 19 57 59 c 1,17,-1
 57 322 l 1,18,19
 102 298 102 298 152 280 c 128,-1,20
 202 262 202 262 252 249.5 c 128,-1,21
 302 237 302 237 350.5 231 c 128,-1,22
 399 225 399 225 442 225 c 0,23,24
 528 225 528 225 585 241 c 128,-1,25
 642 257 642 257 676 286 c 128,-1,26
 710 315 710 315 724.5 355.5 c 128,-1,27
 739 396 739 396 739 444 c 0,28,29
 739 489 739 489 720.5 525.5 c 128,-1,30
 702 562 702 562 660.5 587.5 c 128,-1,31
 619 613 619 613 552 627 c 128,-1,32
 485 641 485 641 387 641 c 2,33,-1
 283 641 l 1,34,-1
 283 858 l 1,35,-1
 385 858 l 2,36,37
 477 858 477 858 538 874.5 c 128,-1,38
 599 891 599 891 635.5 919.5 c 128,-1,39
 672 948 672 948 687 986 c 128,-1,40
 702 1024 702 1024 702 1067 c 0,41,42
 702 1145 702 1145 653.5 1189 c 128,-1,43
 605 1233 605 1233 500 1233 c 0,44,45
 452 1233 452 1233 410.5 1223.5 c 128,-1,46
 369 1214 369 1214 333.5 1199.5 c 128,-1,47
 298 1185 298 1185 268.5 1167.5 c 128,-1,48
 239 1150 239 1150 215 1133 c 1,49,-1
 59 1339 l 1,50,51
 101 1370 101 1370 150.5 1396 c 128,-1,52
 200 1422 200 1422 258 1441.5 c 128,-1,53
 316 1461 316 1461 383 1472 c 128,-1,54
 450 1483 450 1483 526 1483 c 0,55,56
 634 1483 634 1483 722.5 1459.5 c 128,-1,57
 811 1436 811 1436 874 1391.5 c 128,-1,58
 937 1347 937 1347 971.5 1282.5 c 128,-1,59
 1006 1218 1006 1218 1006 1135 c 0,0,1
EndSplineSet
EndChar

StartChar: four
Encoding: 52 52 23
Width: 1128
GlyphClass: 2
Flags: W
LayerCount: 2
Fore
SplineSet
1085 303 m 1,0,-1
 909 303 l 1,1,-1
 909 0 l 1,2,-1
 608 0 l 1,3,-1
 608 303 l 1,4,-1
 4 303 l 1,5,-1
 4 518 l 1,6,-1
 625 1462 l 1,7,-1
 909 1462 l 1,8,-1
 909 543 l 1,9,-1
 1085 543 l 1,10,-1
 1085 303 l 1,0,-1
608 543 m 1,11,-1
 608 791 l 2,12,13
 608 804 608 804 608.5 828.5 c 128,-1,14
 609 853 609 853 610 884 c 128,-1,15
 611 915 611 915 612.5 948 c 128,-1,16
 614 981 614 981 615.5 1011 c 128,-1,17
 617 1041 617 1041 618.5 1063.5 c 128,-1,18
 620 1086 620 1086 621 1096 c 1,19,-1
 612 1096 l 1,20,21
 594 1054 594 1054 571.5 1007 c 128,-1,22
 549 960 549 960 520 913 c 1,23,-1
 276 543 l 1,24,-1
 608 543 l 1,11,-1
EndSplineSet
EndChar

StartChar: five
Encoding: 53 53 24
Width: 1128
GlyphClass: 2
Flags: W
LayerCount: 2
Fore
SplineSet
598 934 m 0,0,1
 692 934 692 934 773 905 c 128,-1,2
 854 876 854 876 914 820 c 128,-1,3
 974 764 974 764 1008 680.5 c 128,-1,4
 1042 597 1042 597 1042 489 c 0,5,6
 1042 370 1042 370 1005 275.5 c 128,-1,7
 968 181 968 181 896 115.5 c 128,-1,8
 824 50 824 50 717.5 15 c 128,-1,9
 611 -20 611 -20 473 -20 c 0,10,11
 418 -20 418 -20 364 -15 c 128,-1,12
 310 -10 310 -10 260.5 -0.5 c 128,-1,13
 211 9 211 9 166.5 24 c 128,-1,14
 122 39 122 39 86 59 c 1,15,-1
 86 326 l 1,16,17
 121 306 121 306 167 288.5 c 128,-1,18
 213 271 213 271 262.5 258.5 c 128,-1,19
 312 246 312 246 362 238.5 c 128,-1,20
 412 231 412 231 457 231 c 0,21,22
 591 231 591 231 661 286.5 c 128,-1,23
 731 342 731 342 731 463 c 0,24,25
 731 571 731 571 662.5 627.5 c 128,-1,26
 594 684 594 684 451 684 c 0,27,28
 425 684 425 684 395.5 681 c 128,-1,29
 366 678 366 678 337.5 673 c 128,-1,30
 309 668 309 668 283 662.5 c 128,-1,31
 257 657 257 657 238 651 c 1,32,-1
 115 717 l 1,33,-1
 170 1462 l 1,34,-1
 942 1462 l 1,35,-1
 942 1200 l 1,36,-1
 438 1200 l 1,37,-1
 414 913 l 1,38,39
 446 920 446 920 488.5 927 c 128,-1,40
 531 934 531 934 598 934 c 0,0,1
EndSplineSet
EndChar

StartChar: six
Encoding: 54 54 25
Width: 1128
GlyphClass: 2
Flags: W
LayerCount: 2
Fore
SplineSet
76 621 m 0,0,1
 76 726 76 726 87.5 830 c 128,-1,2
 99 934 99 934 128.5 1029.5 c 128,-1,3
 158 1125 158 1125 208.5 1207 c 128,-1,4
 259 1289 259 1289 336.5 1349.5 c 128,-1,5
 414 1410 414 1410 522.5 1444.5 c 128,-1,6
 631 1479 631 1479 776 1479 c 0,7,8
 797 1479 797 1479 822 1478 c 128,-1,9
 847 1477 847 1477 872.5 1475.5 c 128,-1,10
 898 1474 898 1474 922 1471 c 128,-1,11
 946 1468 946 1468 965 1464 c 1,12,-1
 965 1217 l 1,13,14
 927 1226 927 1226 884.5 1231.5 c 128,-1,15
 842 1237 842 1237 799 1237 c 0,16,17
 664 1237 664 1237 577 1203.5 c 128,-1,18
 490 1170 490 1170 439 1110 c 128,-1,19
 388 1050 388 1050 366.5 966 c 128,-1,20
 345 882 345 882 340 780 c 1,21,-1
 352 780 l 1,22,23
 372 816 372 816 400.5 847.5 c 128,-1,24
 429 879 429 879 467 901.5 c 128,-1,25
 505 924 505 924 552.5 937 c 128,-1,26
 600 950 600 950 659 950 c 0,27,28
 754 950 754 950 830 919 c 128,-1,29
 906 888 906 888 958.5 829 c 128,-1,30
 1011 770 1011 770 1039 684 c 128,-1,31
 1067 598 1067 598 1067 487 c 0,32,33
 1067 368 1067 368 1033.5 274 c 128,-1,34
 1000 180 1000 180 938 114.5 c 128,-1,35
 876 49 876 49 788 14.5 c 128,-1,36
 700 -20 700 -20 590 -20 c 0,37,38
 482 -20 482 -20 388 18.5 c 128,-1,39
 294 57 294 57 224.5 136 c 128,-1,40
 155 215 155 215 115.5 335.5 c 128,-1,41
 76 456 76 456 76 621 c 0,0,1
584 227 m 0,42,43
 625 227 625 227 658.5 242.5 c 128,-1,44
 692 258 692 258 716.5 289.5 c 128,-1,45
 741 321 741 321 754.5 369 c 128,-1,46
 768 417 768 417 768 483 c 0,47,48
 768 590 768 590 723.5 651.5 c 128,-1,49
 679 713 679 713 588 713 c 0,50,51
 542 713 542 713 504 695 c 128,-1,52
 466 677 466 677 439 648 c 128,-1,53
 412 619 412 619 397.5 583 c 128,-1,54
 383 547 383 547 383 510 c 0,55,56
 383 459 383 459 395.5 408.5 c 128,-1,57
 408 358 408 358 433.5 317.5 c 128,-1,58
 459 277 459 277 496.5 252 c 128,-1,59
 534 227 534 227 584 227 c 0,42,43
EndSplineSet
EndChar

StartChar: seven
Encoding: 55 55 26
Width: 1128
GlyphClass: 2
Flags: W
LayerCount: 2
Fore
SplineSet
207 0 m 1,0,-1
 727 1200 l 1,1,-1
 55 1200 l 1,2,-1
 55 1460 l 1,3,-1
 1063 1460 l 1,4,-1
 1063 1266 l 1,5,-1
 530 0 l 1,6,-1
 207 0 l 1,0,-1
EndSplineSet
EndChar

StartChar: eight
Encoding: 56 56 27
Width: 1128
GlyphClass: 2
Flags: W
LayerCount: 2
Fore
SplineSet
565 1481 m 0,0,1
 656 1481 656 1481 737 1459 c 128,-1,2
 818 1437 818 1437 879 1393 c 128,-1,3
 940 1349 940 1349 976 1283 c 128,-1,4
 1012 1217 1012 1217 1012 1128 c 0,5,6
 1012 1062 1012 1062 992 1008.5 c 128,-1,7
 972 955 972 955 937 911.5 c 128,-1,8
 902 868 902 868 854 834 c 128,-1,9
 806 800 806 800 750 772 c 1,10,11
 808 741 808 741 863.5 703 c 128,-1,12
 919 665 919 665 962 617.5 c 128,-1,13
 1005 570 1005 570 1031 511 c 128,-1,14
 1057 452 1057 452 1057 379 c 0,15,16
 1057 288 1057 288 1021 214 c 128,-1,17
 985 140 985 140 920 88 c 128,-1,18
 855 36 855 36 764.5 8 c 128,-1,19
 674 -20 674 -20 565 -20 c 0,20,21
 447 -20 447 -20 355 7 c 128,-1,22
 263 34 263 34 200 84 c 128,-1,23
 137 134 137 134 104.5 207 c 128,-1,24
 72 280 72 280 72 371 c 0,25,26
 72 446 72 446 94 506 c 128,-1,27
 116 566 116 566 154 614 c 128,-1,28
 192 662 192 662 243 699 c 128,-1,29
 294 736 294 736 352 764 c 1,30,31
 303 795 303 795 260 831.5 c 128,-1,32
 217 868 217 868 185.5 912.5 c 128,-1,33
 154 957 154 957 135.5 1011 c 128,-1,34
 117 1065 117 1065 117 1130 c 0,35,36
 117 1217 117 1217 153.5 1282.5 c 128,-1,37
 190 1348 190 1348 252 1392.5 c 128,-1,38
 314 1437 314 1437 395 1459 c 128,-1,39
 476 1481 476 1481 565 1481 c 0,0,1
358 389 m 0,40,41
 358 349 358 349 371 315.5 c 128,-1,42
 384 282 384 282 409.5 258 c 128,-1,43
 435 234 435 234 473 220.5 c 128,-1,44
 511 207 511 207 561 207 c 0,45,46
 666 207 666 207 718 256.5 c 128,-1,47
 770 306 770 306 770 387 c 0,48,49
 770 429 770 429 752.5 462.5 c 128,-1,50
 735 496 735 496 707.5 524.5 c 128,-1,51
 680 553 680 553 645 577 c 128,-1,52
 610 601 610 601 575 623 c 2,53,-1
 553 637 l 1,54,55
 509 615 509 615 473 589.5 c 128,-1,56
 437 564 437 564 411.5 533.5 c 128,-1,57
 386 503 386 503 372 467 c 128,-1,58
 358 431 358 431 358 389 c 0,40,41
563 1255 m 0,59,60
 530 1255 530 1255 501.5 1245 c 128,-1,61
 473 1235 473 1235 452.5 1216 c 128,-1,62
 432 1197 432 1197 420 1169 c 128,-1,63
 408 1141 408 1141 408 1106 c 0,64,65
 408 1064 408 1064 420.5 1033.5 c 128,-1,66
 433 1003 433 1003 454.5 979.5 c 128,-1,67
 476 956 476 956 504.5 937.5 c 128,-1,68
 533 919 533 919 565 901 c 1,69,70
 596 917 596 917 624 936 c 128,-1,71
 652 955 652 955 673.5 979.5 c 128,-1,72
 695 1004 695 1004 708 1035 c 128,-1,73
 721 1066 721 1066 721 1106 c 0,74,75
 721 1141 721 1141 709 1169 c 128,-1,76
 697 1197 697 1197 676 1216 c 128,-1,77
 655 1235 655 1235 626 1245 c 128,-1,78
 597 1255 597 1255 563 1255 c 0,59,60
EndSplineSet
EndChar

StartChar: nine
Encoding: 57 57 28
Width: 1128
GlyphClass: 2
Flags: W
LayerCount: 2
Fore
SplineSet
1055 838 m 0,0,1
 1055 733 1055 733 1043.5 628.5 c 128,-1,2
 1032 524 1032 524 1002.5 429 c 128,-1,3
 973 334 973 334 922.5 251.5 c 128,-1,4
 872 169 872 169 794.5 109 c 128,-1,5
 717 49 717 49 608.5 14.5 c 128,-1,6
 500 -20 500 -20 354 -20 c 0,7,8
 333 -20 333 -20 308 -19 c 128,-1,9
 283 -18 283 -18 257.5 -16.5 c 128,-1,10
 232 -15 232 -15 208 -12.5 c 128,-1,11
 184 -10 184 -10 166 -6 c 1,12,-1
 166 242 l 1,13,14
 203 232 203 232 245.5 226.5 c 128,-1,15
 288 221 288 221 332 221 c 0,16,17
 467 221 467 221 554 254.5 c 128,-1,18
 641 288 641 288 692 348.5 c 128,-1,19
 743 409 743 409 764.5 493 c 128,-1,20
 786 577 786 577 791 678 c 1,21,-1
 778 678 l 1,22,23
 758 642 758 642 730 611 c 128,-1,24
 702 580 702 580 664 557 c 128,-1,25
 626 534 626 534 578 521 c 128,-1,26
 530 508 530 508 471 508 c 0,27,28
 376 508 376 508 300 539 c 128,-1,29
 224 570 224 570 171.5 629 c 128,-1,30
 119 688 119 688 91 774 c 128,-1,31
 63 860 63 860 63 971 c 0,32,33
 63 1090 63 1090 96.5 1184 c 128,-1,34
 130 1278 130 1278 192 1343.5 c 128,-1,35
 254 1409 254 1409 342.5 1444 c 128,-1,36
 431 1479 431 1479 541 1479 c 0,37,38
 649 1479 649 1479 743 1440.5 c 128,-1,39
 837 1402 837 1402 906 1323 c 128,-1,40
 975 1244 975 1244 1015 1123 c 128,-1,41
 1055 1002 1055 1002 1055 838 c 0,0,1
547 1231 m 0,42,43
 506 1231 506 1231 472 1216 c 128,-1,44
 438 1201 438 1201 413.5 1169.5 c 128,-1,45
 389 1138 389 1138 375.5 1089.5 c 128,-1,46
 362 1041 362 1041 362 975 c 0,47,48
 362 869 362 869 407 807 c 128,-1,49
 452 745 452 745 543 745 c 0,50,51
 589 745 589 745 627 763 c 128,-1,52
 665 781 665 781 692 810 c 128,-1,53
 719 839 719 839 733.5 875 c 128,-1,54
 748 911 748 911 748 948 c 0,55,56
 748 999 748 999 735.5 1049.5 c 128,-1,57
 723 1100 723 1100 697.5 1140.5 c 128,-1,58
 672 1181 672 1181 634.5 1206 c 128,-1,59
 597 1231 597 1231 547 1231 c 0,42,43
EndSplineSet
EndChar

StartChar: colon
Encoding: 58 58 29
Width: 584
GlyphClass: 2
Flags: W
LayerCount: 2
Fore
SplineSet
117 143 m 0,0,1
 117 190 117 190 130.5 222.5 c 128,-1,2
 144 255 144 255 168 275 c 128,-1,3
 192 295 192 295 224 304 c 128,-1,4
 256 313 256 313 293 313 c 0,5,6
 328 313 328 313 359.5 304 c 128,-1,7
 391 295 391 295 415 275 c 128,-1,8
 439 255 439 255 453 222.5 c 128,-1,9
 467 190 467 190 467 143 c 0,10,11
 467 98 467 98 453 66 c 128,-1,12
 439 34 439 34 415 13 c 128,-1,13
 391 -8 391 -8 359.5 -17.5 c 128,-1,14
 328 -27 328 -27 293 -27 c 0,15,16
 256 -27 256 -27 224 -17.5 c 128,-1,17
 192 -8 192 -8 168 13 c 128,-1,18
 144 34 144 34 130.5 66 c 128,-1,19
 117 98 117 98 117 143 c 0,0,1
117 969 m 0,20,21
 117 1016 117 1016 130.5 1048.5 c 128,-1,22
 144 1081 144 1081 168 1101 c 128,-1,23
 192 1121 192 1121 224 1130 c 128,-1,24
 256 1139 256 1139 293 1139 c 0,25,26
 328 1139 328 1139 359.5 1130 c 128,-1,27
 391 1121 391 1121 415 1101 c 128,-1,28
 439 1081 439 1081 453 1048.5 c 128,-1,29
 467 1016 467 1016 467 969 c 0,30,31
 467 924 467 924 453 891.5 c 128,-1,32
 439 859 439 859 415 838.5 c 128,-1,33
 391 818 391 818 359.5 808.5 c 128,-1,34
 328 799 328 799 293 799 c 0,35,36
 256 799 256 799 224 808.5 c 128,-1,37
 192 818 192 818 168 838.5 c 128,-1,38
 144 859 144 859 130.5 891.5 c 128,-1,39
 117 924 117 924 117 969 c 0,20,21
EndSplineSet
EndChar

StartChar: semicolon
Encoding: 59 59 30
Width: 594
GlyphClass: 2
Flags: W
LayerCount: 2
Fore
SplineSet
444 238 m 1,0,-1
 459 215 l 1,1,2
 445 161 445 161 425.5 100 c 128,-1,3
 406 39 406 39 382.5 -23 c 128,-1,4
 359 -85 359 -85 333.5 -146.5 c 128,-1,5
 308 -208 308 -208 283 -264 c 1,6,-1
 63 -264 l 1,7,8
 78 -203 78 -203 92.5 -137 c 128,-1,9
 107 -71 107 -71 120.5 -5.5 c 128,-1,10
 134 60 134 60 145 122.5 c 128,-1,11
 156 185 156 185 164 238 c 1,12,-1
 444 238 l 1,0,-1
117 969 m 0,13,14
 117 1016 117 1016 130.5 1048.5 c 128,-1,15
 144 1081 144 1081 168 1101 c 128,-1,16
 192 1121 192 1121 224 1130 c 128,-1,17
 256 1139 256 1139 293 1139 c 0,18,19
 328 1139 328 1139 359.5 1130 c 128,-1,20
 391 1121 391 1121 415 1101 c 128,-1,21
 439 1081 439 1081 453 1048.5 c 128,-1,22
 467 1016 467 1016 467 969 c 0,23,24
 467 924 467 924 453 891.5 c 128,-1,25
 439 859 439 859 415 838.5 c 128,-1,26
 391 818 391 818 359.5 808.5 c 128,-1,27
 328 799 328 799 293 799 c 0,28,29
 256 799 256 799 224 808.5 c 128,-1,30
 192 818 192 818 168 838.5 c 128,-1,31
 144 859 144 859 130.5 891.5 c 128,-1,32
 117 924 117 924 117 969 c 0,13,14
EndSplineSet
EndChar

StartChar: less
Encoding: 60 60 31
Width: 1128
GlyphClass: 2
Flags: W
LayerCount: 2
Fore
SplineSet
1040 203 m 1,0,-1
 88 641 l 1,1,-1
 88 784 l 1,2,-1
 1040 1280 l 1,3,-1
 1040 1040 l 1,4,-1
 397 723 l 1,5,-1
 1040 442 l 1,6,-1
 1040 203 l 1,0,-1
EndSplineSet
EndChar

StartChar: equal
Encoding: 61 61 32
Width: 1128
GlyphClass: 2
Flags: W
LayerCount: 2
Fore
SplineSet
88 807 m 1,0,-1
 88 1024 l 1,1,-1
 1040 1024 l 1,2,-1
 1040 807 l 1,3,-1
 88 807 l 1,0,-1
88 418 m 1,4,-1
 88 637 l 1,5,-1
 1040 637 l 1,6,-1
 1040 418 l 1,7,-1
 88 418 l 1,4,-1
EndSplineSet
EndChar

StartChar: greater
Encoding: 62 62 33
Width: 1128
GlyphClass: 2
Flags: W
LayerCount: 2
Fore
SplineSet
88 442 m 1,0,-1
 731 723 l 1,1,-1
 88 1040 l 1,2,-1
 88 1280 l 1,3,-1
 1040 784 l 1,4,-1
 1040 641 l 1,5,-1
 88 203 l 1,6,-1
 88 442 l 1,0,-1
EndSplineSet
EndChar

StartChar: question
Encoding: 63 63 34
Width: 940
GlyphClass: 2
Flags: W
LayerCount: 2
Fore
SplineSet
264 485 m 1,0,-1
 264 559 l 2,1,2
 264 610 264 610 274.5 651.5 c 128,-1,3
 285 693 285 693 306.5 730.5 c 128,-1,4
 328 768 328 768 362 803.5 c 128,-1,5
 396 839 396 839 444 877 c 0,6,7
 486 910 486 910 515 936 c 128,-1,8
 544 962 544 962 562 987.5 c 128,-1,9
 580 1013 580 1013 588 1041 c 128,-1,10
 596 1069 596 1069 596 1106 c 0,11,12
 596 1163 596 1163 557.5 1200 c 128,-1,13
 519 1237 519 1237 440 1237 c 0,14,15
 371 1237 371 1237 291.5 1208 c 128,-1,16
 212 1179 212 1179 127 1137 c 1,17,-1
 25 1358 l 1,18,19
 68 1383 68 1383 118.5 1405.5 c 128,-1,20
 169 1428 169 1428 223.5 1445.5 c 128,-1,21
 278 1463 278 1463 334 1473 c 128,-1,22
 390 1483 390 1483 444 1483 c 0,23,24
 546 1483 546 1483 628 1458.5 c 128,-1,25
 710 1434 710 1434 767 1387 c 128,-1,26
 824 1340 824 1340 854.5 1273 c 128,-1,27
 885 1206 885 1206 885 1120 c 0,28,29
 885 1057 885 1057 871 1007.5 c 128,-1,30
 857 958 857 958 829.5 915.5 c 128,-1,31
 802 873 802 873 760.5 833.5 c 128,-1,32
 719 794 719 794 664 750 c 0,33,34
 622 717 622 717 595.5 692.5 c 128,-1,35
 569 668 569 668 554 646 c 128,-1,36
 539 624 539 624 533.5 600.5 c 128,-1,37
 528 577 528 577 528 545 c 2,38,-1
 528 485 l 1,39,-1
 264 485 l 1,0,-1
231 143 m 0,40,41
 231 190 231 190 244.5 222.5 c 128,-1,42
 258 255 258 255 282 275 c 128,-1,43
 306 295 306 295 338.5 304 c 128,-1,44
 371 313 371 313 408 313 c 0,45,46
 443 313 443 313 474.5 304 c 128,-1,47
 506 295 506 295 530 275 c 128,-1,48
 554 255 554 255 568 222.5 c 128,-1,49
 582 190 582 190 582 143 c 0,50,51
 582 98 582 98 568 66 c 128,-1,52
 554 34 554 34 530 13 c 128,-1,53
 506 -8 506 -8 474.5 -17.5 c 128,-1,54
 443 -27 443 -27 408 -27 c 0,55,56
 371 -27 371 -27 338.5 -17.5 c 128,-1,57
 306 -8 306 -8 282 13 c 128,-1,58
 258 34 258 34 244.5 66 c 128,-1,59
 231 98 231 98 231 143 c 0,40,41
EndSplineSet
EndChar

StartChar: at
Encoding: 64 64 35
Width: 1774
GlyphClass: 2
Flags: W
LayerCount: 2
Fore
SplineSet
1673 752 m 0,0,1
 1673 657 1673 657 1650.5 564 c 128,-1,2
 1628 471 1628 471 1582 397.5 c 128,-1,3
 1536 324 1536 324 1466.5 278.5 c 128,-1,4
 1397 233 1397 233 1303 233 c 0,5,6
 1265 233 1265 233 1231.5 242.5 c 128,-1,7
 1198 252 1198 252 1170 269.5 c 128,-1,8
 1142 287 1142 287 1121.5 310.5 c 128,-1,9
 1101 334 1101 334 1090 362 c 1,10,-1
 1075 362 l 1,11,12
 1056 337 1056 337 1031 313.5 c 128,-1,13
 1006 290 1006 290 975 272 c 128,-1,14
 944 254 944 254 906.5 243.5 c 128,-1,15
 869 233 869 233 825 233 c 0,16,17
 742 233 742 233 677.5 261.5 c 128,-1,18
 613 290 613 290 569 342.5 c 128,-1,19
 525 395 525 395 502 468.5 c 128,-1,20
 479 542 479 542 479 631 c 0,21,22
 479 734 479 734 510 820 c 128,-1,23
 541 906 541 906 599 968.5 c 128,-1,24
 657 1031 657 1031 740 1065.5 c 128,-1,25
 823 1100 823 1100 926 1100 c 0,26,27
 971 1100 971 1100 1019 1095 c 128,-1,28
 1067 1090 1067 1090 1111.5 1082 c 128,-1,29
 1156 1074 1156 1074 1195 1064 c 128,-1,30
 1234 1054 1234 1054 1262 1044 c 1,31,-1
 1241 625 l 2,32,33
 1239 603 1239 603 1239 582 c 128,-1,34
 1239 561 1239 561 1239 555 c 0,35,36
 1239 513 1239 513 1245.5 486 c 128,-1,37
 1252 459 1252 459 1262.5 443.5 c 128,-1,38
 1273 428 1273 428 1286.5 422 c 128,-1,39
 1300 416 1300 416 1315 416 c 0,40,41
 1350 416 1350 416 1376 443 c 128,-1,42
 1402 470 1402 470 1419 516 c 128,-1,43
 1436 562 1436 562 1445 623.5 c 128,-1,44
 1454 685 1454 685 1454 754 c 0,45,46
 1454 882 1454 882 1416 982 c 128,-1,47
 1378 1082 1378 1082 1310.5 1151 c 128,-1,48
 1243 1220 1243 1220 1150 1256 c 128,-1,49
 1057 1292 1057 1292 948 1292 c 0,50,51
 795 1292 795 1292 678.5 1241 c 128,-1,52
 562 1190 562 1190 483.5 1098.5 c 128,-1,53
 405 1007 405 1007 364.5 882 c 128,-1,54
 324 757 324 757 324 608 c 0,55,56
 324 470 324 470 359 363.5 c 128,-1,57
 394 257 394 257 463 184.5 c 128,-1,58
 532 112 532 112 633 74.5 c 128,-1,59
 734 37 734 37 866 37 c 0,60,61
 922 37 922 37 981 44 c 128,-1,62
 1040 51 1040 51 1098.5 63 c 128,-1,63
 1157 75 1157 75 1213.5 92 c 128,-1,64
 1270 109 1270 109 1321 129 c 1,65,-1
 1321 -63 l 1,66,67
 1227 -105 1227 -105 1112.5 -129.5 c 128,-1,68
 998 -154 998 -154 868 -154 c 0,69,70
 687 -154 687 -154 544.5 -102.5 c 128,-1,71
 402 -51 402 -51 304 46 c 128,-1,72
 206 143 206 143 154 283.5 c 128,-1,73
 102 424 102 424 102 602 c 0,74,75
 102 726 102 726 129 839.5 c 128,-1,76
 156 953 156 953 207 1050.5 c 128,-1,77
 258 1148 258 1148 331.5 1227.5 c 128,-1,78
 405 1307 405 1307 499 1363.5 c 128,-1,79
 593 1420 593 1420 706 1450.5 c 128,-1,80
 819 1481 819 1481 948 1481 c 0,81,82
 1106 1481 1106 1481 1239 1430.5 c 128,-1,83
 1372 1380 1372 1380 1468.5 1285.5 c 128,-1,84
 1565 1191 1565 1191 1619 1056 c 128,-1,85
 1673 921 1673 921 1673 752 c 0,0,1
711 627 m 0,86,87
 711 515 711 515 749 465.5 c 128,-1,88
 787 416 787 416 850 416 c 0,89,90
 892 416 892 416 922.5 435.5 c 128,-1,91
 953 455 953 455 972.5 490.5 c 128,-1,92
 992 526 992 526 1002.5 575.5 c 128,-1,93
 1013 625 1013 625 1016 686 c 2,94,-1
 1028 907 l 1,95,96
 1008 912 1008 912 981 915 c 128,-1,97
 954 918 954 918 926 918 c 0,98,99
 867 918 867 918 826 893 c 128,-1,100
 785 868 785 868 759.5 827 c 128,-1,101
 734 786 734 786 722.5 733.5 c 128,-1,102
 711 681 711 681 711 627 c 0,86,87
EndSplineSet
EndChar

StartChar: A
Encoding: 65 65 36
Width: 1331
GlyphClass: 2
Flags: W
LayerCount: 2
Fore
SplineSet
1018 0 m 1,0,-1
 918 348 l 1,1,-1
 414 348 l 1,2,-1
 313 0 l 1,3,-1
 0 0 l 1,4,-1
 475 1468 l 1,5,-1
 854 1468 l 1,6,-1
 1331 0 l 1,7,-1
 1018 0 l 1,0,-1
846 608 m 1,8,-1
 752 928 l 2,9,10
 746 946 746 946 734 987 c 128,-1,11
 722 1028 722 1028 708.5 1077.5 c 128,-1,12
 695 1127 695 1127 683 1177 c 128,-1,13
 671 1227 671 1227 666 1262 c 1,14,15
 662 1240 662 1240 655.5 1210 c 128,-1,16
 649 1180 649 1180 640.5 1146.5 c 128,-1,17
 632 1113 632 1113 623 1079 c 128,-1,18
 614 1045 614 1045 606 1015 c 128,-1,19
 598 985 598 985 591.5 962 c 128,-1,20
 585 939 585 939 582 928 c 2,21,-1
 489 608 l 1,22,-1
 846 608 l 1,8,-1
EndSplineSet
EndChar

StartChar: B
Encoding: 66 66 37
Width: 1315
GlyphClass: 2
Flags: W
LayerCount: 2
Fore
SplineSet
184 1462 m 1,0,-1
 612 1462 l 2,1,2
 750 1462 750 1462 854 1442.5 c 128,-1,3
 958 1423 958 1423 1028 1379.5 c 128,-1,4
 1098 1336 1098 1336 1133.5 1265.5 c 128,-1,5
 1169 1195 1169 1195 1169 1092 c 0,6,7
 1169 1030 1169 1030 1154 976 c 128,-1,8
 1139 922 1139 922 1110 881 c 128,-1,9
 1081 840 1081 840 1039.5 812.5 c 128,-1,10
 998 785 998 785 944 776 c 1,11,-1
 944 766 l 1,12,13
 999 754 999 754 1046.5 731.5 c 128,-1,14
 1094 709 1094 709 1129.5 669.5 c 128,-1,15
 1165 630 1165 630 1185.5 570 c 128,-1,16
 1206 510 1206 510 1206 424 c 0,17,18
 1206 324 1206 324 1171 245.5 c 128,-1,19
 1136 167 1136 167 1070.5 112.5 c 128,-1,20
 1005 58 1005 58 911.5 29 c 128,-1,21
 818 0 818 0 700 0 c 2,22,-1
 184 0 l 1,23,-1
 184 1462 l 1,0,-1
494 883 m 1,24,-1
 655 883 l 2,25,26
 713 883 713 883 752 893.5 c 128,-1,27
 791 904 791 904 815 925 c 128,-1,28
 839 946 839 946 849.5 977.5 c 128,-1,29
 860 1009 860 1009 860 1051 c 0,30,31
 860 1135 860 1135 807.5 1171.5 c 128,-1,32
 755 1208 755 1208 641 1208 c 2,33,-1
 494 1208 l 1,34,-1
 494 883 l 1,24,-1
494 637 m 1,35,-1
 494 256 l 1,36,-1
 676 256 l 2,37,38
 737 256 737 256 778.5 270 c 128,-1,39
 820 284 820 284 845.5 310 c 128,-1,40
 871 336 871 336 882 373 c 128,-1,41
 893 410 893 410 893 455 c 0,42,43
 893 496 893 496 882 529.5 c 128,-1,44
 871 563 871 563 844.5 587 c 128,-1,45
 818 611 818 611 775 624 c 128,-1,46
 732 637 732 637 668 637 c 2,47,-1
 494 637 l 1,35,-1
EndSplineSet
EndChar

StartChar: C
Encoding: 67 67 38
Width: 1305
GlyphClass: 2
Flags: W
LayerCount: 2
Fore
SplineSet
805 1225 m 0,0,1
 716 1225 716 1225 647.5 1190.5 c 128,-1,2
 579 1156 579 1156 532.5 1091.5 c 128,-1,3
 486 1027 486 1027 462 934.5 c 128,-1,4
 438 842 438 842 438 727 c 0,5,6
 438 610 438 610 459.5 519 c 128,-1,7
 481 428 481 428 525.5 365.5 c 128,-1,8
 570 303 570 303 639.5 270.5 c 128,-1,9
 709 238 709 238 805 238 c 0,10,11
 894 238 894 238 983.5 258 c 128,-1,12
 1073 278 1073 278 1178 315 c 1,13,-1
 1178 55 l 1,14,15
 1130 35 1130 35 1083 21 c 128,-1,16
 1036 7 1036 7 987 -2 c 128,-1,17
 938 -11 938 -11 886.5 -15.5 c 128,-1,18
 835 -20 835 -20 776 -20 c 0,19,20
 607 -20 607 -20 483 34 c 128,-1,21
 359 88 359 88 278 186 c 128,-1,22
 197 284 197 284 158 422 c 128,-1,23
 119 560 119 560 119 729 c 0,24,25
 119 895 119 895 164 1033.5 c 128,-1,26
 209 1172 209 1172 296 1272 c 128,-1,27
 383 1372 383 1372 511 1427.5 c 128,-1,28
 639 1483 639 1483 805 1483 c 0,29,30
 914 1483 914 1483 1023.5 1455.5 c 128,-1,31
 1133 1428 1133 1428 1233 1380 c 1,32,-1
 1133 1128 l 1,33,34
 1051 1167 1051 1167 968 1196 c 128,-1,35
 885 1225 885 1225 805 1225 c 0,0,1
EndSplineSet
EndChar

StartChar: D
Encoding: 68 68 39
Width: 1434
GlyphClass: 2
Flags: W
LayerCount: 2
Fore
SplineSet
1315 745 m 0,0,1
 1315 560 1315 560 1264.5 420.5 c 128,-1,2
 1214 281 1214 281 1118.5 187.5 c 128,-1,3
 1023 94 1023 94 884.5 47 c 128,-1,4
 746 0 746 0 569 0 c 2,5,-1
 184 0 l 1,6,-1
 184 1462 l 1,7,-1
 612 1462 l 2,8,9
 773 1462 773 1462 902.5 1416 c 128,-1,10
 1032 1370 1032 1370 1124 1279.5 c 128,-1,11
 1216 1189 1216 1189 1265.5 1055 c 128,-1,12
 1315 921 1315 921 1315 745 c 0,0,1
1001 737 m 0,13,14
 1001 859 1001 859 976.5 947.5 c 128,-1,15
 952 1036 952 1036 905.5 1094 c 128,-1,16
 859 1152 859 1152 791.5 1180 c 128,-1,17
 724 1208 724 1208 637 1208 c 2,18,-1
 494 1208 l 1,19,-1
 494 256 l 1,20,-1
 608 256 l 2,21,22
 804 256 804 256 902.5 376 c 128,-1,23
 1001 496 1001 496 1001 737 c 0,13,14
EndSplineSet
EndChar

StartChar: E
Encoding: 69 69 40
Width: 1147
GlyphClass: 2
Flags: W
LayerCount: 2
Fore
SplineSet
1026 0 m 1,0,-1
 184 0 l 1,1,-1
 184 1462 l 1,2,-1
 1026 1462 l 1,3,-1
 1026 1208 l 1,4,-1
 494 1208 l 1,5,-1
 494 887 l 1,6,-1
 989 887 l 1,7,-1
 989 633 l 1,8,-1
 494 633 l 1,9,-1
 494 256 l 1,10,-1
 1026 256 l 1,11,-1
 1026 0 l 1,0,-1
EndSplineSet
EndChar

StartChar: F
Encoding: 70 70 41
Width: 1124
GlyphClass: 2
Flags: W
LayerCount: 2
Fore
SplineSet
489 0 m 1,0,-1
 184 0 l 1,1,-1
 184 1462 l 1,2,-1
 1022 1462 l 1,3,-1
 1022 1208 l 1,4,-1
 489 1208 l 1,5,-1
 489 831 l 1,6,-1
 985 831 l 1,7,-1
 985 578 l 1,8,-1
 489 578 l 1,9,-1
 489 0 l 1,0,-1
EndSplineSet
EndChar

StartChar: G
Encoding: 71 71 42
Width: 1483
GlyphClass: 2
Flags: W
LayerCount: 2
Fore
SplineSet
739 821 m 1,0,-1
 1319 821 l 1,1,-1
 1319 63 l 1,2,3
 1261 44 1261 44 1202 28.5 c 128,-1,4
 1143 13 1143 13 1079.5 2.5 c 128,-1,5
 1016 -8 1016 -8 946.5 -14 c 128,-1,6
 877 -20 877 -20 799 -20 c 0,7,8
 635 -20 635 -20 508.5 28.5 c 128,-1,9
 382 77 382 77 295.5 172.5 c 128,-1,10
 209 268 209 268 164 408.5 c 128,-1,11
 119 549 119 549 119 733 c 0,12,13
 119 905 119 905 169 1044 c 128,-1,14
 219 1183 219 1183 316.5 1280.5 c 128,-1,15
 414 1378 414 1378 556.5 1430.5 c 128,-1,16
 699 1483 699 1483 883 1483 c 0,17,18
 1000 1483 1000 1483 1112 1458 c 128,-1,19
 1224 1433 1224 1433 1317 1393 c 1,20,-1
 1214 1145 l 1,21,22
 1146 1179 1146 1179 1060.5 1202 c 128,-1,23
 975 1225 975 1225 881 1225 c 0,24,25
 779 1225 779 1225 697.5 1189.5 c 128,-1,26
 616 1154 616 1154 558 1089 c 128,-1,27
 500 1024 500 1024 469 932 c 128,-1,28
 438 840 438 840 438 727 c 0,29,30
 438 619 438 619 459.5 529.5 c 128,-1,31
 481 440 481 440 527 375 c 128,-1,32
 573 310 573 310 645.5 274 c 128,-1,33
 718 238 718 238 819 238 c 0,34,35
 885 238 885 238 930.5 244 c 128,-1,36
 976 250 976 250 1016 258 c 1,37,-1
 1016 563 l 1,38,-1
 739 563 l 1,39,-1
 739 821 l 1,0,-1
EndSplineSet
EndChar

StartChar: H
Encoding: 72 72 43
Width: 1485
GlyphClass: 2
Flags: W
LayerCount: 2
Fore
SplineSet
1300 0 m 1,0,-1
 991 0 l 1,1,-1
 991 631 l 1,2,-1
 494 631 l 1,3,-1
 494 0 l 1,4,-1
 184 0 l 1,5,-1
 184 1462 l 1,6,-1
 494 1462 l 1,7,-1
 494 889 l 1,8,-1
 991 889 l 1,9,-1
 991 1462 l 1,10,-1
 1300 1462 l 1,11,-1
 1300 0 l 1,0,-1
EndSplineSet
EndChar

StartChar: I
Encoding: 73 73 44
Width: 797
GlyphClass: 2
Flags: W
LayerCount: 2
Fore
SplineSet
731 0 m 1,0,-1
 66 0 l 1,1,-1
 66 176 l 1,2,-1
 244 258 l 1,3,-1
 244 1204 l 1,4,-1
 66 1286 l 1,5,-1
 66 1462 l 1,6,-1
 731 1462 l 1,7,-1
 731 1286 l 1,8,-1
 553 1204 l 1,9,-1
 553 258 l 1,10,-1
 731 176 l 1,11,-1
 731 0 l 1,0,-1
EndSplineSet
EndChar

StartChar: J
Encoding: 74 74 45
Width: 678
GlyphClass: 2
Flags: W
LayerCount: 2
Fore
SplineSet
-2 -430 m 0,0,1
 -67 -430 -67 -430 -116 -423.5 c 128,-1,2
 -165 -417 -165 -417 -199 -408 c 1,3,-1
 -199 -150 l 1,4,5
 -162 -158 -162 -158 -121.5 -164 c 128,-1,6
 -81 -170 -81 -170 -33 -170 c 0,7,8
 13 -170 13 -170 52.5 -160 c 128,-1,9
 92 -150 92 -150 121.5 -125.5 c 128,-1,10
 151 -101 151 -101 167.5 -60 c 128,-1,11
 184 -19 184 -19 184 43 c 2,12,-1
 184 1462 l 1,13,-1
 494 1462 l 1,14,-1
 494 53 l 2,15,16
 494 -73 494 -73 457.5 -164 c 128,-1,17
 421 -255 421 -255 355.5 -314.5 c 128,-1,18
 290 -374 290 -374 199 -402 c 128,-1,19
 108 -430 108 -430 -2 -430 c 0,0,1
EndSplineSet
EndChar

StartChar: K
Encoding: 75 75 46
Width: 1298
GlyphClass: 2
Flags: W
LayerCount: 2
Fore
SplineSet
1298 0 m 1,0,-1
 946 0 l 1,1,-1
 610 608 l 1,2,-1
 494 522 l 1,3,-1
 494 0 l 1,4,-1
 184 0 l 1,5,-1
 184 1462 l 1,6,-1
 494 1462 l 1,7,-1
 494 758 l 1,8,-1
 616 965 l 1,9,-1
 950 1462 l 1,10,-1
 1294 1462 l 1,11,-1
 827 803 l 1,12,-1
 1298 0 l 1,0,-1
EndSplineSet
EndChar

StartChar: L
Encoding: 76 76 47
Width: 1096
GlyphClass: 2
Flags: W
LayerCount: 2
Fore
SplineSet
184 0 m 1,0,-1
 184 1462 l 1,1,-1
 494 1462 l 1,2,-1
 494 256 l 1,3,-1
 1026 256 l 1,4,-1
 1026 0 l 1,5,-1
 184 0 l 1,0,-1
EndSplineSet
EndChar

StartChar: M
Encoding: 77 77 48
Width: 1870
GlyphClass: 2
Flags: W
LayerCount: 2
Fore
SplineSet
772 0 m 1,0,-1
 451 1147 l 1,1,-1
 442 1147 l 1,2,3
 448 1055 448 1055 452 969 c 0,4,5
 454 932 454 932 455.5 893 c 128,-1,6
 457 854 457 854 458.5 816 c 128,-1,7
 460 778 460 778 460.5 743 c 128,-1,8
 461 708 461 708 461 680 c 2,9,-1
 461 0 l 1,10,-1
 184 0 l 1,11,-1
 184 1462 l 1,12,-1
 606 1462 l 1,13,-1
 922 344 l 1,14,-1
 928 344 l 1,15,-1
 1264 1462 l 1,16,-1
 1686 1462 l 1,17,-1
 1686 0 l 1,18,-1
 1397 0 l 1,19,-1
 1397 692 l 2,20,21
 1397 718 1397 718 1397.5 751 c 128,-1,22
 1398 784 1398 784 1399 821 c 128,-1,23
 1400 858 1400 858 1401.5 896 c 128,-1,24
 1403 934 1403 934 1404 970 c 0,25,26
 1408 1054 1408 1054 1411 1145 c 1,27,-1
 1403 1145 l 1,28,-1
 1057 0 l 1,29,-1
 772 0 l 1,0,-1
EndSplineSet
EndChar

StartChar: N
Encoding: 78 78 49
Width: 1604
GlyphClass: 2
Flags: W
LayerCount: 2
Fore
SplineSet
1419 0 m 1,0,-1
 1026 0 l 1,1,-1
 451 1106 l 1,2,-1
 442 1106 l 1,3,4
 448 1029 448 1029 452 953 c 0,5,6
 456 888 456 888 458.5 816.5 c 128,-1,7
 461 745 461 745 461 688 c 2,8,-1
 461 0 l 1,9,-1
 184 0 l 1,10,-1
 184 1462 l 1,11,-1
 575 1462 l 1,12,-1
 1149 367 l 1,13,-1
 1155 367 l 1,14,15
 1152 443 1152 443 1148 517 c 0,16,17
 1147 549 1147 549 1145.5 582.5 c 128,-1,18
 1144 616 1144 616 1143 649.5 c 128,-1,19
 1142 683 1142 683 1141.5 714 c 128,-1,20
 1141 745 1141 745 1141 770 c 2,21,-1
 1141 1462 l 1,22,-1
 1419 1462 l 1,23,-1
 1419 0 l 1,0,-1
EndSplineSet
EndChar

StartChar: O
Encoding: 79 79 50
Width: 1548
GlyphClass: 2
Flags: W
LayerCount: 2
Fore
SplineSet
1430 733 m 0,0,1
 1430 564 1430 564 1390.5 425 c 128,-1,2
 1351 286 1351 286 1270 187 c 128,-1,3
 1189 88 1189 88 1065.5 34 c 128,-1,4
 942 -20 942 -20 774 -20 c 256,5,6
 606 -20 606 -20 482.5 34 c 128,-1,7
 359 88 359 88 278.5 187 c 128,-1,8
 198 286 198 286 158.5 425.5 c 128,-1,9
 119 565 119 565 119 735 c 256,10,11
 119 905 119 905 158.5 1043.5 c 128,-1,12
 198 1182 198 1182 279 1280 c 128,-1,13
 360 1378 360 1378 483.5 1431.5 c 128,-1,14
 607 1485 607 1485 776 1485 c 0,15,16
 944 1485 944 1485 1067 1431.5 c 128,-1,17
 1190 1378 1190 1378 1270.5 1279.5 c 128,-1,18
 1351 1181 1351 1181 1390.5 1042.5 c 128,-1,19
 1430 904 1430 904 1430 733 c 0,0,1
438 733 m 256,20,21
 438 618 438 618 458 526.5 c 128,-1,22
 478 435 478 435 519.5 371.5 c 128,-1,23
 561 308 561 308 624 274 c 128,-1,24
 687 240 687 240 774 240 c 0,25,26
 863 240 863 240 926.5 274 c 128,-1,27
 990 308 990 308 1030.5 371.5 c 128,-1,28
 1071 435 1071 435 1090.5 526.5 c 128,-1,29
 1110 618 1110 618 1110 733 c 256,30,31
 1110 848 1110 848 1090.5 939.5 c 128,-1,32
 1071 1031 1071 1031 1030.5 1095 c 128,-1,33
 990 1159 990 1159 927 1193 c 128,-1,34
 864 1227 864 1227 776 1227 c 0,35,36
 689 1227 689 1227 625 1193 c 128,-1,37
 561 1159 561 1159 519.5 1095 c 128,-1,38
 478 1031 478 1031 458 939.5 c 128,-1,39
 438 848 438 848 438 733 c 256,20,21
EndSplineSet
EndChar

StartChar: P
Encoding: 80 80 51
Width: 1225
GlyphClass: 2
Flags: W
LayerCount: 2
Fore
SplineSet
494 774 m 1,0,-1
 555 774 l 2,1,2
 686 774 686 774 752.5 826 c 128,-1,3
 819 878 819 878 819 995 c 0,4,5
 819 1104 819 1104 759.5 1156 c 128,-1,6
 700 1208 700 1208 573 1208 c 2,7,-1
 494 1208 l 1,8,-1
 494 774 l 1,0,-1
1133 1006 m 0,9,10
 1133 910 1133 910 1104 822 c 128,-1,11
 1075 734 1075 734 1008.5 667 c 128,-1,12
 942 600 942 600 833.5 560 c 128,-1,13
 725 520 725 520 565 520 c 2,14,-1
 494 520 l 1,15,-1
 494 0 l 1,16,-1
 184 0 l 1,17,-1
 184 1462 l 1,18,-1
 590 1462 l 2,19,20
 731 1462 731 1462 833.5 1430.5 c 128,-1,21
 936 1399 936 1399 1002.5 1340.5 c 128,-1,22
 1069 1282 1069 1282 1101 1197.5 c 128,-1,23
 1133 1113 1133 1113 1133 1006 c 0,9,10
EndSplineSet
EndChar

StartChar: Q
Encoding: 81 81 52
Width: 1548
GlyphClass: 2
Flags: W
LayerCount: 2
Fore
SplineSet
1430 733 m 0,0,1
 1430 614 1430 614 1410.5 509.5 c 128,-1,2
 1391 405 1391 405 1351.5 319 c 128,-1,3
 1312 233 1312 233 1252.5 166 c 128,-1,4
 1193 99 1193 99 1112 55 c 1,5,-1
 1473 -348 l 1,6,-1
 1075 -348 l 1,7,-1
 807 -18 l 1,8,9
 800 -18 800 -18 794 -19 c 0,10,11
 789 -20 789 -20 783.5 -20 c 128,-1,12
 778 -20 778 -20 774 -20 c 0,13,14
 606 -20 606 -20 482.5 34 c 128,-1,15
 359 88 359 88 278.5 187 c 128,-1,16
 198 286 198 286 158.5 425.5 c 128,-1,17
 119 565 119 565 119 735 c 256,18,19
 119 905 119 905 158.5 1043.5 c 128,-1,20
 198 1182 198 1182 279 1280 c 128,-1,21
 360 1378 360 1378 483.5 1431.5 c 128,-1,22
 607 1485 607 1485 776 1485 c 0,23,24
 944 1485 944 1485 1067 1431.5 c 128,-1,25
 1190 1378 1190 1378 1270.5 1279.5 c 128,-1,26
 1351 1181 1351 1181 1390.5 1042.5 c 128,-1,27
 1430 904 1430 904 1430 733 c 0,0,1
438 733 m 256,28,29
 438 618 438 618 458 526.5 c 128,-1,30
 478 435 478 435 519.5 371.5 c 128,-1,31
 561 308 561 308 624 274 c 128,-1,32
 687 240 687 240 774 240 c 0,33,34
 863 240 863 240 926.5 274 c 128,-1,35
 990 308 990 308 1030.5 371.5 c 128,-1,36
 1071 435 1071 435 1090.5 526.5 c 128,-1,37
 1110 618 1110 618 1110 733 c 256,38,39
 1110 848 1110 848 1090.5 939.5 c 128,-1,40
 1071 1031 1071 1031 1030.5 1095 c 128,-1,41
 990 1159 990 1159 927 1193 c 128,-1,42
 864 1227 864 1227 776 1227 c 0,43,44
 689 1227 689 1227 625 1193 c 128,-1,45
 561 1159 561 1159 519.5 1095 c 128,-1,46
 478 1031 478 1031 458 939.5 c 128,-1,47
 438 848 438 848 438 733 c 256,28,29
EndSplineSet
EndChar

StartChar: R
Encoding: 82 82 53
Width: 1290
GlyphClass: 2
Flags: W
LayerCount: 2
Fore
SplineSet
494 813 m 1,0,-1
 578 813 l 2,1,2
 707 813 707 813 763 864.5 c 128,-1,3
 819 916 819 916 819 1016 c 0,4,5
 819 1120 819 1120 759 1164 c 128,-1,6
 699 1208 699 1208 573 1208 c 2,7,-1
 494 1208 l 1,8,-1
 494 813 l 1,0,-1
494 561 m 1,9,-1
 494 0 l 1,10,-1
 184 0 l 1,11,-1
 184 1462 l 1,12,-1
 584 1462 l 2,13,14
 865 1462 865 1462 999 1353.5 c 128,-1,15
 1133 1245 1133 1245 1133 1024 c 0,16,17
 1133 949 1133 949 1113 888 c 128,-1,18
 1093 827 1093 827 1059.5 779.5 c 128,-1,19
 1026 732 1026 732 982.5 696.5 c 128,-1,20
 939 661 939 661 891 637 c 1,21,22
 1002 459 1002 459 1090 319 c 0,23,24
 1128 259 1128 259 1163.5 202 c 128,-1,25
 1199 145 1199 145 1227 100 c 128,-1,26
 1255 55 1255 55 1273 28 c 1,27,-1
 1290 0 l 1,28,-1
 946 0 l 1,29,-1
 629 561 l 1,30,-1
 494 561 l 1,9,-1
EndSplineSet
EndChar

StartChar: S
Encoding: 83 83 54
Width: 1073
GlyphClass: 2
Flags: W
LayerCount: 2
Fore
SplineSet
985 406 m 0,0,1
 985 308 985 308 951.5 229.5 c 128,-1,2
 918 151 918 151 853.5 95.5 c 128,-1,3
 789 40 789 40 695.5 10 c 128,-1,4
 602 -20 602 -20 481 -20 c 0,5,6
 375 -20 375 -20 276.5 2 c 128,-1,7
 178 24 178 24 94 68 c 1,8,-1
 94 356 l 1,9,10
 142 333 142 333 191 311.5 c 128,-1,11
 240 290 240 290 290.5 273 c 128,-1,12
 341 256 341 256 391.5 246 c 128,-1,13
 442 236 442 236 492 236 c 0,14,15
 543 236 543 236 579.5 247.5 c 128,-1,16
 616 259 616 259 638.5 279.5 c 128,-1,17
 661 300 661 300 671.5 328.5 c 128,-1,18
 682 357 682 357 682 391 c 0,19,20
 682 432 682 432 664.5 463.5 c 128,-1,21
 647 495 647 495 615.5 522.5 c 128,-1,22
 584 550 584 550 539.5 576 c 128,-1,23
 495 602 495 602 440 631 c 0,24,25
 394 655 394 655 337 689 c 128,-1,26
 280 723 280 723 229.5 773.5 c 128,-1,27
 179 824 179 824 145 895.5 c 128,-1,28
 111 967 111 967 111 1067 c 0,29,30
 111 1165 111 1165 143.5 1242.5 c 128,-1,31
 176 1320 176 1320 236 1373.5 c 128,-1,32
 296 1427 296 1427 381.5 1455 c 128,-1,33
 467 1483 467 1483 573 1483 c 0,34,35
 626 1483 626 1483 676.5 1476 c 128,-1,36
 727 1469 727 1469 776.5 1456 c 128,-1,37
 826 1443 826 1443 876 1424 c 128,-1,38
 926 1405 926 1405 979 1380 c 1,39,-1
 879 1139 l 1,40,41
 834 1160 834 1160 795 1176 c 128,-1,42
 756 1192 756 1192 719 1203 c 128,-1,43
 682 1214 682 1214 646.5 1219.5 c 128,-1,44
 611 1225 611 1225 575 1225 c 0,45,46
 497 1225 497 1225 455.5 1183.5 c 128,-1,47
 414 1142 414 1142 414 1073 c 0,48,49
 414 1036 414 1036 426.5 1007.5 c 128,-1,50
 439 979 439 979 466.5 954 c 128,-1,51
 494 929 494 929 537.5 903 c 128,-1,52
 581 877 581 877 643 844 c 0,53,54
 718 804 718 804 781 762.5 c 128,-1,55
 844 721 844 721 889.5 670.5 c 128,-1,56
 935 620 935 620 960 556 c 128,-1,57
 985 492 985 492 985 406 c 0,0,1
EndSplineSet
EndChar

StartChar: T
Encoding: 84 84 55
Width: 1124
GlyphClass: 2
Flags: W
LayerCount: 2
Fore
SplineSet
717 0 m 1,0,-1
 408 0 l 1,1,-1
 408 1204 l 1,2,-1
 41 1204 l 1,3,-1
 41 1462 l 1,4,-1
 1083 1462 l 1,5,-1
 1083 1204 l 1,6,-1
 717 1204 l 1,7,-1
 717 0 l 1,0,-1
EndSplineSet
EndChar

StartChar: U
Encoding: 85 85 56
Width: 1466
GlyphClass: 2
Flags: W
LayerCount: 2
Fore
SplineSet
1292 1462 m 1,0,-1
 1292 516 l 2,1,2
 1292 402 1292 402 1257.5 304 c 128,-1,3
 1223 206 1223 206 1152.5 134 c 128,-1,4
 1082 62 1082 62 976 21 c 128,-1,5
 870 -20 870 -20 727 -20 c 0,6,7
 592 -20 592 -20 488.5 18.5 c 128,-1,8
 385 57 385 57 315.5 128 c 128,-1,9
 246 199 246 199 210 298.5 c 128,-1,10
 174 398 174 398 174 520 c 2,11,-1
 174 1462 l 1,12,-1
 483 1462 l 1,13,-1
 483 543 l 2,14,15
 483 462 483 462 499 404.5 c 128,-1,16
 515 347 515 347 546.5 310.5 c 128,-1,17
 578 274 578 274 625 257 c 128,-1,18
 672 240 672 240 735 240 c 0,19,20
 866 240 866 240 924.5 316 c 128,-1,21
 983 392 983 392 983 545 c 2,22,-1
 983 1462 l 1,23,-1
 1292 1462 l 1,0,-1
EndSplineSet
EndChar

StartChar: V
Encoding: 86 86 57
Width: 1249
GlyphClass: 2
Flags: W
LayerCount: 2
Fore
SplineSet
936 1462 m 1,0,-1
 1249 1462 l 1,1,-1
 793 0 l 1,2,-1
 455 0 l 1,3,-1
 0 1462 l 1,4,-1
 313 1462 l 1,5,-1
 561 582 l 2,6,7
 566 565 566 565 574.5 525 c 128,-1,8
 583 485 583 485 592.5 437 c 128,-1,9
 602 389 602 389 611 341 c 128,-1,10
 620 293 620 293 625 260 c 1,11,12
 630 293 630 293 639 341 c 128,-1,13
 648 389 648 389 658 436.5 c 128,-1,14
 668 484 668 484 677.5 524 c 128,-1,15
 687 564 687 564 692 582 c 2,16,-1
 936 1462 l 1,0,-1
EndSplineSet
EndChar

StartChar: W
Encoding: 87 87 58
Width: 1898
GlyphClass: 2
Flags: W
LayerCount: 2
Fore
SplineSet
1546 0 m 1,0,-1
 1194 0 l 1,1,-1
 1014 721 l 2,2,3
 1010 736 1010 736 1004.5 763 c 128,-1,4
 999 790 999 790 992 824 c 128,-1,5
 985 858 985 858 978 895 c 128,-1,6
 971 932 971 932 965 967 c 128,-1,7
 959 1002 959 1002 954.5 1031.5 c 128,-1,8
 950 1061 950 1061 948 1079 c 1,9,10
 946 1061 946 1061 941.5 1031.5 c 128,-1,11
 937 1002 937 1002 931 967.5 c 128,-1,12
 925 933 925 933 918.5 896 c 128,-1,13
 912 859 912 859 905.5 825 c 128,-1,14
 899 791 899 791 893 763 c 128,-1,15
 887 735 887 735 883 719 c 2,16,-1
 705 0 l 1,17,-1
 352 0 l 1,18,-1
 0 1462 l 1,19,-1
 305 1462 l 1,20,-1
 471 664 l 2,21,22
 474 648 474 648 479.5 617.5 c 128,-1,23
 485 587 485 587 492 549 c 128,-1,24
 499 511 499 511 506.5 469 c 128,-1,25
 514 427 514 427 521 387 c 128,-1,26
 528 347 528 347 534 312.5 c 128,-1,27
 540 278 540 278 543 256 c 1,28,29
 546 278 546 278 551.5 312 c 128,-1,30
 557 346 557 346 563 384.5 c 128,-1,31
 569 423 569 423 576.5 464 c 128,-1,32
 584 505 584 505 590 540.5 c 128,-1,33
 596 576 596 576 601.5 603.5 c 128,-1,34
 607 631 607 631 610 643 c 2,35,-1
 813 1462 l 1,36,-1
 1085 1462 l 1,37,-1
 1288 643 l 2,38,39
 1291 631 1291 631 1296.5 603.5 c 128,-1,40
 1302 576 1302 576 1308.5 540.5 c 128,-1,41
 1315 505 1315 505 1322 464 c 128,-1,42
 1329 423 1329 423 1335.5 384.5 c 128,-1,43
 1342 346 1342 346 1347.5 312 c 128,-1,44
 1353 278 1353 278 1356 256 c 1,45,46
 1359 278 1359 278 1364.5 312.5 c 128,-1,47
 1370 347 1370 347 1377 387 c 128,-1,48
 1384 427 1384 427 1391.5 469 c 128,-1,49
 1399 511 1399 511 1406 549 c 128,-1,50
 1413 587 1413 587 1418.5 617.5 c 128,-1,51
 1424 648 1424 648 1427 664 c 2,52,-1
 1593 1462 l 1,53,-1
 1898 1462 l 1,54,-1
 1546 0 l 1,0,-1
EndSplineSet
EndChar

StartChar: X
Encoding: 88 88 59
Width: 1284
GlyphClass: 2
Flags: W
LayerCount: 2
Fore
SplineSet
1284 0 m 1,0,-1
 930 0 l 1,1,-1
 631 553 l 1,2,-1
 332 0 l 1,3,-1
 0 0 l 1,4,-1
 444 754 l 1,5,-1
 31 1462 l 1,6,-1
 373 1462 l 1,7,-1
 647 936 l 1,8,-1
 915 1462 l 1,9,-1
 1249 1462 l 1,10,-1
 831 737 l 1,11,-1
 1284 0 l 1,0,-1
EndSplineSet
EndChar

StartChar: Y
Encoding: 89 89 60
Width: 1196
GlyphClass: 2
Flags: W
LayerCount: 2
Fore
SplineSet
598 860 m 1,0,-1
 862 1462 l 1,1,-1
 1196 1462 l 1,2,-1
 752 569 l 1,3,-1
 752 0 l 1,4,-1
 444 0 l 1,5,-1
 444 559 l 1,6,-1
 0 1462 l 1,7,-1
 336 1462 l 1,8,-1
 598 860 l 1,0,-1
EndSplineSet
EndChar

StartChar: Z
Encoding: 90 90 61
Width: 1104
GlyphClass: 2
Flags: W
LayerCount: 2
Fore
SplineSet
1055 0 m 1,0,-1
 49 0 l 1,1,-1
 49 201 l 1,2,-1
 668 1206 l 1,3,-1
 68 1206 l 1,4,-1
 68 1462 l 1,5,-1
 1036 1462 l 1,6,-1
 1036 1262 l 1,7,-1
 418 256 l 1,8,-1
 1055 256 l 1,9,-1
 1055 0 l 1,0,-1
EndSplineSet
EndChar

StartChar: bracketleft
Encoding: 91 91 62
Width: 678
GlyphClass: 2
Flags: W
LayerCount: 2
Fore
SplineSet
627 -324 m 1,0,-1
 143 -324 l 1,1,-1
 143 1462 l 1,2,-1
 627 1462 l 1,3,-1
 627 1251 l 1,4,-1
 403 1251 l 1,5,-1
 403 -113 l 1,6,-1
 627 -113 l 1,7,-1
 627 -324 l 1,0,-1
EndSplineSet
EndChar

StartChar: backslash
Encoding: 92 92 63
Width: 846
GlyphClass: 2
Flags: W
LayerCount: 2
Fore
SplineSet
289 1462 m 1,0,-1
 834 0 l 1,1,-1
 557 0 l 1,2,-1
 12 1462 l 1,3,-1
 289 1462 l 1,0,-1
EndSplineSet
EndChar

StartChar: bracketright
Encoding: 93 93 64
Width: 678
GlyphClass: 2
Flags: W
LayerCount: 2
Fore
SplineSet
51 -113 m 1,0,-1
 274 -113 l 1,1,-1
 274 1251 l 1,2,-1
 51 1251 l 1,3,-1
 51 1462 l 1,4,-1
 535 1462 l 1,5,-1
 535 -324 l 1,6,-1
 51 -324 l 1,7,-1
 51 -113 l 1,0,-1
EndSplineSet
EndChar

StartChar: asciicircum
Encoding: 94 94 65
Width: 1090
GlyphClass: 2
Flags: W
LayerCount: 2
Fore
SplineSet
8 520 m 1,0,-1
 446 1470 l 1,1,-1
 590 1470 l 1,2,-1
 1085 520 l 1,3,-1
 846 520 l 1,4,-1
 524 1163 l 1,5,6
 455 1002 455 1002 383.5 839 c 128,-1,7
 312 676 312 676 244 520 c 1,8,-1
 8 520 l 1,0,-1
EndSplineSet
EndChar

StartChar: underscore
Encoding: 95 95 66
Width: 842
GlyphClass: 2
Flags: W
LayerCount: 2
Fore
SplineSet
846 -324 m 1,0,-1
 -4 -324 l 1,1,-1
 -4 -184 l 1,2,-1
 846 -184 l 1,3,-1
 846 -324 l 1,0,-1
EndSplineSet
EndChar

StartChar: grave
Encoding: 96 96 67
Width: 1182
GlyphClass: 2
Flags: W
LayerCount: 2
Fore
SplineSet
645 1241 m 1,0,1
 611 1269 611 1269 563.5 1310.5 c 128,-1,2
 516 1352 516 1352 470 1396 c 128,-1,3
 424 1440 424 1440 386 1480.5 c 128,-1,4
 348 1521 348 1521 332 1548 c 1,5,-1
 332 1569 l 1,6,-1
 674 1569 l 1,7,8
 690 1535 690 1535 711.5 1494.5 c 128,-1,9
 733 1454 733 1454 756 1413.5 c 128,-1,10
 779 1373 779 1373 803 1335 c 128,-1,11
 827 1297 827 1297 848 1268 c 1,12,-1
 848 1241 l 1,13,-1
 645 1241 l 1,0,1
EndSplineSet
EndChar

StartChar: a
Encoding: 97 97 68
Width: 1176
GlyphClass: 2
Flags: W
LayerCount: 2
Fore
SplineSet
809 0 m 1,0,-1
 750 152 l 1,1,-1
 741 152 l 1,2,3
 708 107 708 107 675 74.5 c 128,-1,4
 642 42 642 42 603 21 c 128,-1,5
 564 0 564 0 515.5 -10 c 128,-1,6
 467 -20 467 -20 403 -20 c 0,7,8
 335 -20 335 -20 277 1.5 c 128,-1,9
 219 23 219 23 176.5 66.5 c 128,-1,10
 134 110 134 110 110 176.5 c 128,-1,11
 86 243 86 243 86 334 c 0,12,13
 86 512 86 512 200 596.5 c 128,-1,14
 314 681 314 681 541 690 c 1,15,-1
 719 696 l 1,16,-1
 719 780 l 2,17,18
 719 849 719 849 679 882 c 128,-1,19
 639 915 639 915 567 915 c 256,20,21
 495 915 495 915 426.5 894 c 128,-1,22
 358 873 358 873 289 838 c 1,23,-1
 190 1040 l 1,24,25
 274 1087 274 1087 376 1114 c 128,-1,26
 478 1141 478 1141 590 1141 c 0,27,28
 799 1141 799 1141 910.5 1043 c 128,-1,29
 1022 945 1022 945 1022 745 c 2,30,-1
 1022 0 l 1,31,-1
 809 0 l 1,0,-1
719 518 m 1,32,-1
 618 514 l 2,33,34
 557 512 557 512 515 498 c 128,-1,35
 473 484 473 484 447.5 460.5 c 128,-1,36
 422 437 422 437 410.5 404.5 c 128,-1,37
 399 372 399 372 399 332 c 0,38,39
 399 262 399 262 433 232.5 c 128,-1,40
 467 203 467 203 522 203 c 0,41,42
 564 203 564 203 600 217.5 c 128,-1,43
 636 232 636 232 662.5 260.5 c 128,-1,44
 689 289 689 289 704 330.5 c 128,-1,45
 719 372 719 372 719 426 c 2,46,-1
 719 518 l 1,32,-1
EndSplineSet
EndChar

StartChar: b
Encoding: 98 98 69
Width: 1245
GlyphClass: 2
Flags: W
LayerCount: 2
Fore
SplineSet
756 1139 m 0,0,1
 842 1139 842 1139 913 1102 c 128,-1,2
 984 1065 984 1065 1035 992 c 128,-1,3
 1086 919 1086 919 1114.5 811 c 128,-1,4
 1143 703 1143 703 1143 561 c 0,5,6
 1143 417 1143 417 1114.5 308.5 c 128,-1,7
 1086 200 1086 200 1034 127 c 128,-1,8
 982 54 982 54 909 17 c 128,-1,9
 836 -20 836 -20 748 -20 c 0,10,11
 692 -20 692 -20 648.5 -8 c 128,-1,12
 605 4 605 4 571 24 c 128,-1,13
 537 44 537 44 511.5 69.5 c 128,-1,14
 486 95 486 95 465 123 c 1,15,-1
 444 123 l 1,16,-1
 393 0 l 1,17,-1
 160 0 l 1,18,-1
 160 1556 l 1,19,-1
 465 1556 l 1,20,-1
 465 1194 l 2,21,22
 465 1161 465 1161 463 1122.5 c 128,-1,23
 461 1084 461 1084 459 1051 c 0,24,25
 456 1012 456 1012 453 973 c 1,26,-1
 465 973 l 1,27,28
 486 1008 486 1008 513 1038 c 128,-1,29
 540 1068 540 1068 575.5 1090.5 c 128,-1,30
 611 1113 611 1113 656 1126 c 128,-1,31
 701 1139 701 1139 756 1139 c 0,0,1
653 895 m 0,32,33
 602 895 602 895 566.5 876.5 c 128,-1,34
 531 858 531 858 509 821 c 128,-1,35
 487 784 487 784 477 727.5 c 128,-1,36
 467 671 467 671 465 596 c 1,37,-1
 465 563 l 2,38,39
 465 482 465 482 474.5 419 c 128,-1,40
 484 356 484 356 506 313.5 c 128,-1,41
 528 271 528 271 564.5 249 c 128,-1,42
 601 227 601 227 655 227 c 0,43,44
 746 227 746 227 788.5 313.5 c 128,-1,45
 831 400 831 400 831 565 c 256,46,47
 831 730 831 730 788.5 812.5 c 128,-1,48
 746 895 746 895 653 895 c 0,32,33
EndSplineSet
EndChar

StartChar: c
Encoding: 99 99 70
Width: 1022
GlyphClass: 2
Flags: W
LayerCount: 2
Fore
SplineSet
625 -20 m 0,0,1
 505 -20 505 -20 408.5 13 c 128,-1,2
 312 46 312 46 243.5 115.5 c 128,-1,3
 175 185 175 185 138.5 293.5 c 128,-1,4
 102 402 102 402 102 553 c 0,5,6
 102 720 102 720 139.5 832.5 c 128,-1,7
 177 945 177 945 245.5 1013 c 128,-1,8
 314 1081 314 1081 410.5 1110 c 128,-1,9
 507 1139 507 1139 625 1139 c 0,10,11
 711 1139 711 1139 796 1118 c 128,-1,12
 881 1097 881 1097 956 1059 c 1,13,-1
 868 827 l 1,14,15
 802 856 802 856 741 874.5 c 128,-1,16
 680 893 680 893 625 893 c 0,17,18
 514 893 514 893 464 808.5 c 128,-1,19
 414 724 414 724 414 555 c 0,20,21
 414 387 414 387 464 307 c 128,-1,22
 514 227 514 227 621 227 c 0,23,24
 708 227 708 227 779 249.5 c 128,-1,25
 850 272 850 272 924 307 c 1,26,-1
 924 53 l 1,27,28
 887 35 887 35 852 21 c 128,-1,29
 817 7 817 7 781.5 -2 c 128,-1,30
 746 -11 746 -11 707.5 -15.5 c 128,-1,31
 669 -20 669 -20 625 -20 c 0,0,1
EndSplineSet
EndChar

StartChar: d
Encoding: 100 100 71
Width: 1245
GlyphClass: 2
Flags: W
LayerCount: 2
Fore
SplineSet
489 -20 m 0,0,1
 403 -20 403 -20 332 17 c 128,-1,2
 261 54 261 54 210 126.5 c 128,-1,3
 159 199 159 199 130.5 307 c 128,-1,4
 102 415 102 415 102 557 c 0,5,6
 102 701 102 701 130.5 809.5 c 128,-1,7
 159 918 159 918 211.5 991.5 c 128,-1,8
 264 1065 264 1065 337 1102 c 128,-1,9
 410 1139 410 1139 498 1139 c 0,10,11
 552 1139 552 1139 597 1126.5 c 128,-1,12
 642 1114 642 1114 678 1091.5 c 128,-1,13
 714 1069 714 1069 742.5 1039.5 c 128,-1,14
 771 1010 771 1010 793 975 c 1,15,-1
 803 975 l 1,16,17
 797 1014 797 1014 792 1054 c 0,18,19
 787 1088 787 1088 783.5 1126.5 c 128,-1,20
 780 1165 780 1165 780 1198 c 2,21,-1
 780 1556 l 1,22,-1
 1085 1556 l 1,23,-1
 1085 0 l 1,24,-1
 852 0 l 1,25,-1
 793 145 l 1,26,-1
 780 145 l 1,27,28
 759 111 759 111 732 80.5 c 128,-1,29
 705 50 705 50 669.5 28 c 128,-1,30
 634 6 634 6 589.5 -7 c 128,-1,31
 545 -20 545 -20 489 -20 c 0,0,1
600 223 m 0,32,33
 654 223 654 223 692 241.5 c 128,-1,34
 730 260 730 260 753.5 297.5 c 128,-1,35
 777 335 777 335 788.5 391 c 128,-1,36
 800 447 800 447 801 522 c 1,37,-1
 801 555 l 2,38,39
 801 636 801 636 791 699 c 128,-1,40
 781 762 781 762 758 804.5 c 128,-1,41
 735 847 735 847 696 869 c 128,-1,42
 657 891 657 891 598 891 c 0,43,44
 502 891 502 891 457 804.5 c 128,-1,45
 412 718 412 718 412 553 c 256,46,47
 412 388 412 388 457.5 305.5 c 128,-1,48
 503 223 503 223 600 223 c 0,32,33
EndSplineSet
EndChar

StartChar: e
Encoding: 101 101 72
Width: 1190
GlyphClass: 2
Flags: W
LayerCount: 2
Fore
SplineSet
612 922 m 0,0,1
 531 922 531 922 477.5 865 c 128,-1,2
 424 808 424 808 416 686 c 1,3,-1
 805 686 l 1,4,5
 804 737 804 737 792 780 c 128,-1,6
 780 823 780 823 756 854.5 c 128,-1,7
 732 886 732 886 696 904 c 128,-1,8
 660 922 660 922 612 922 c 0,0,1
651 -20 m 0,9,10
 531 -20 531 -20 430 15 c 128,-1,11
 329 50 329 50 256 120.5 c 128,-1,12
 183 191 183 191 142.5 298.5 c 128,-1,13
 102 406 102 406 102 551 c 0,14,15
 102 698 102 698 139 808 c 128,-1,16
 176 918 176 918 242.5 991.5 c 128,-1,17
 309 1065 309 1065 402.5 1102 c 128,-1,18
 496 1139 496 1139 610 1139 c 0,19,20
 721 1139 721 1139 810.5 1105.5 c 128,-1,21
 900 1072 900 1072 962.5 1007 c 128,-1,22
 1025 942 1025 942 1058.5 847.5 c 128,-1,23
 1092 753 1092 753 1092 631 c 2,24,-1
 1092 483 l 1,25,-1
 410 483 l 1,26,27
 412 419 412 419 430.5 367.5 c 128,-1,28
 449 316 449 316 482.5 280.5 c 128,-1,29
 516 245 516 245 563.5 226 c 128,-1,30
 611 207 611 207 672 207 c 0,31,32
 723 207 723 207 768.5 212.5 c 128,-1,33
 814 218 814 218 857 229 c 128,-1,34
 900 240 900 240 942 256.5 c 128,-1,35
 984 273 984 273 1028 295 c 1,36,-1
 1028 59 l 1,37,38
 988 38 988 38 947.5 23.5 c 128,-1,39
 907 9 907 9 862 -1 c 128,-1,40
 817 -11 817 -11 765 -15.5 c 128,-1,41
 713 -20 713 -20 651 -20 c 0,9,10
EndSplineSet
EndChar

StartChar: f
Encoding: 102 102 73
Width: 793
GlyphClass: 2
Flags: W
LayerCount: 2
Fore
SplineSet
741 889 m 1,0,-1
 514 889 l 1,1,-1
 514 0 l 1,2,-1
 209 0 l 1,3,-1
 209 889 l 1,4,-1
 41 889 l 1,5,-1
 41 1036 l 1,6,-1
 209 1118 l 1,7,-1
 209 1200 l 2,8,9
 209 1307 209 1307 235 1377.5 c 128,-1,10
 261 1448 261 1448 309 1490 c 128,-1,11
 357 1532 357 1532 425 1549.5 c 128,-1,12
 493 1567 493 1567 578 1567 c 0,13,14
 670 1567 670 1567 733 1552.5 c 128,-1,15
 796 1538 796 1538 840 1520 c 1,16,-1
 768 1296 l 1,17,18
 737 1307 737 1307 703 1316 c 128,-1,19
 669 1325 669 1325 623 1325 c 0,20,21
 563 1325 563 1325 538.5 1286.5 c 128,-1,22
 514 1248 514 1248 514 1188 c 2,23,-1
 514 1118 l 1,24,-1
 741 1118 l 1,25,-1
 741 889 l 1,0,-1
EndSplineSet
EndChar

StartChar: g
Encoding: 103 103 74
Width: 1130
GlyphClass: 2
Flags: W
LayerCount: 2
Fore
SplineSet
1085 1116 m 1,0,-1
 1085 950 l 1,1,-1
 922 899 l 1,2,3
 942 865 942 865 950 828.5 c 128,-1,4
 958 792 958 792 958 750 c 0,5,6
 958 665 958 665 931 594.5 c 128,-1,7
 904 524 904 524 851 474 c 128,-1,8
 798 424 798 424 718 396.5 c 128,-1,9
 638 369 638 369 532 369 c 0,10,11
 509 369 509 369 482 371.5 c 128,-1,12
 455 374 455 374 442 377 c 1,13,14
 422 360 422 360 410.5 341.5 c 128,-1,15
 399 323 399 323 399 297 c 0,16,17
 399 276 399 276 412 263.5 c 128,-1,18
 425 251 425 251 446 243.5 c 128,-1,19
 467 236 467 236 495 233.5 c 128,-1,20
 523 231 523 231 553 231 c 2,21,-1
 727 231 l 2,22,23
 808 231 808 231 872 212.5 c 128,-1,24
 936 194 936 194 980.5 156 c 128,-1,25
 1025 118 1025 118 1049 59.5 c 128,-1,26
 1073 1 1073 1 1073 -80 c 0,27,28
 1073 -175 1073 -175 1035 -251.5 c 128,-1,29
 997 -328 997 -328 921.5 -381.5 c 128,-1,30
 846 -435 846 -435 734 -463.5 c 128,-1,31
 622 -492 622 -492 475 -492 c 0,32,33
 361 -492 361 -492 276 -470.5 c 128,-1,34
 191 -449 191 -449 134 -408.5 c 128,-1,35
 77 -368 77 -368 48.5 -311 c 128,-1,36
 20 -254 20 -254 20 -182 c 0,37,38
 20 -121 20 -121 41 -76 c 128,-1,39
 62 -31 62 -31 97 1 c 128,-1,40
 132 33 132 33 176.5 53 c 128,-1,41
 221 73 221 73 268 84 c 1,42,43
 247 93 247 93 226.5 109 c 128,-1,44
 206 125 206 125 189.5 146 c 128,-1,45
 173 167 173 167 162.5 192.5 c 128,-1,46
 152 218 152 218 152 246 c 0,47,48
 152 278 152 278 161.5 304 c 128,-1,49
 171 330 171 330 189 352.5 c 128,-1,50
 207 375 207 375 234 395 c 128,-1,51
 261 415 261 415 295 436 c 1,52,53
 207 474 207 474 155.5 558 c 128,-1,54
 104 642 104 642 104 756 c 0,55,56
 104 846 104 846 132 917 c 128,-1,57
 160 988 160 988 214 1037.5 c 128,-1,58
 268 1087 268 1087 348 1113 c 128,-1,59
 428 1139 428 1139 532 1139 c 0,60,61
 552 1139 552 1139 577 1136.5 c 128,-1,62
 602 1134 602 1134 626.5 1130.5 c 128,-1,63
 651 1127 651 1127 672 1123 c 128,-1,64
 693 1119 693 1119 705 1116 c 1,65,-1
 1085 1116 l 1,0,-1
285 -158 m 0,66,67
 285 -183 285 -183 295.5 -206.5 c 128,-1,68
 306 -230 306 -230 330 -248 c 128,-1,69
 354 -266 354 -266 393 -276.5 c 128,-1,70
 432 -287 432 -287 489 -287 c 0,71,72
 645 -287 645 -287 724 -243 c 128,-1,73
 803 -199 803 -199 803 -125 c 0,74,75
 803 -62 803 -62 754 -41 c 128,-1,76
 705 -20 705 -20 602 -20 c 2,77,-1
 461 -20 l 2,78,79
 434 -20 434 -20 403 -26.5 c 128,-1,80
 372 -33 372 -33 346 -49 c 128,-1,81
 320 -65 320 -65 302.5 -91.5 c 128,-1,82
 285 -118 285 -118 285 -158 c 0,66,67
395 752 m 0,83,84
 395 661 395 661 429 611 c 128,-1,85
 463 561 463 561 532 561 c 0,86,87
 604 561 604 561 636 611 c 128,-1,88
 668 661 668 661 668 752 c 0,89,90
 668 842 668 842 636.5 895 c 128,-1,91
 605 948 605 948 532 948 c 0,92,93
 395 948 395 948 395 752 c 0,83,84
EndSplineSet
EndChar

StartChar: h
Encoding: 104 104 75
Width: 1284
GlyphClass: 2
Flags: W
LayerCount: 2
Fore
SplineSet
1130 0 m 1,0,-1
 825 0 l 1,1,-1
 825 653 l 2,2,3
 825 774 825 774 787.5 834.5 c 128,-1,4
 750 895 750 895 672 895 c 0,5,6
 613 895 613 895 573 871 c 128,-1,7
 533 847 533 847 509 800 c 128,-1,8
 485 753 485 753 475 684 c 128,-1,9
 465 615 465 615 465 526 c 2,10,-1
 465 0 l 1,11,-1
 160 0 l 1,12,-1
 160 1556 l 1,13,-1
 465 1556 l 1,14,-1
 465 1239 l 2,15,16
 465 1197 465 1197 463 1150.5 c 128,-1,17
 461 1104 461 1104 458 1065 c 0,18,19
 454 1019 454 1019 451 975 c 1,20,-1
 467 975 l 1,21,22
 516 1062 516 1062 592 1100.5 c 128,-1,23
 668 1139 668 1139 764 1139 c 0,24,25
 847 1139 847 1139 914.5 1115.5 c 128,-1,26
 982 1092 982 1092 1030 1042 c 128,-1,27
 1078 992 1078 992 1104 914.5 c 128,-1,28
 1130 837 1130 837 1130 729 c 2,29,-1
 1130 0 l 1,0,-1
EndSplineSet
EndChar

StartChar: i
Encoding: 105 105 76
Width: 625
GlyphClass: 2
Flags: W
LayerCount: 2
Fore
SplineSet
147 1407 m 0,0,1
 147 1450 147 1450 160 1478.5 c 128,-1,2
 173 1507 173 1507 195.5 1524.5 c 128,-1,3
 218 1542 218 1542 248.5 1549 c 128,-1,4
 279 1556 279 1556 313 1556 c 256,5,6
 347 1556 347 1556 377 1549 c 128,-1,7
 407 1542 407 1542 429.5 1524.5 c 128,-1,8
 452 1507 452 1507 465.5 1478.5 c 128,-1,9
 479 1450 479 1450 479 1407 c 0,10,11
 479 1365 479 1365 465.5 1336 c 128,-1,12
 452 1307 452 1307 429.5 1289.5 c 128,-1,13
 407 1272 407 1272 377 1264.5 c 128,-1,14
 347 1257 347 1257 313 1257 c 256,15,16
 279 1257 279 1257 248.5 1264.5 c 128,-1,17
 218 1272 218 1272 195.5 1289.5 c 128,-1,18
 173 1307 173 1307 160 1336 c 128,-1,19
 147 1365 147 1365 147 1407 c 0,0,1
465 0 m 1,20,-1
 160 0 l 1,21,-1
 160 1118 l 1,22,-1
 465 1118 l 1,23,-1
 465 0 l 1,20,-1
EndSplineSet
EndChar

StartChar: j
Encoding: 106 106 77
Width: 625
GlyphClass: 2
Flags: W
LayerCount: 2
Fore
SplineSet
102 -492 m 0,0,1
 54 -492 54 -492 3 -485 c 128,-1,2
 -48 -478 -48 -478 -82 -467 c 1,3,-1
 -82 -227 l 1,4,5
 -51 -237 -51 -237 -24 -241.5 c 128,-1,6
 3 -246 3 -246 37 -246 c 0,7,8
 62 -246 62 -246 84.5 -238.5 c 128,-1,9
 107 -231 107 -231 123.5 -211.5 c 128,-1,10
 140 -192 140 -192 150 -159.5 c 128,-1,11
 160 -127 160 -127 160 -76 c 2,12,-1
 160 1118 l 1,13,-1
 465 1118 l 1,14,-1
 465 -121 l 2,15,16
 465 -198 465 -198 445.5 -265.5 c 128,-1,17
 426 -333 426 -333 382.5 -383.5 c 128,-1,18
 339 -434 339 -434 270 -463 c 128,-1,19
 201 -492 201 -492 102 -492 c 0,0,1
147 1407 m 0,20,21
 147 1450 147 1450 160 1478.5 c 128,-1,22
 173 1507 173 1507 195.5 1524.5 c 128,-1,23
 218 1542 218 1542 248.5 1549 c 128,-1,24
 279 1556 279 1556 313 1556 c 256,25,26
 347 1556 347 1556 377 1549 c 128,-1,27
 407 1542 407 1542 429.5 1524.5 c 128,-1,28
 452 1507 452 1507 465.5 1478.5 c 128,-1,29
 479 1450 479 1450 479 1407 c 0,30,31
 479 1365 479 1365 465.5 1336 c 128,-1,32
 452 1307 452 1307 429.5 1289.5 c 128,-1,33
 407 1272 407 1272 377 1264.5 c 128,-1,34
 347 1257 347 1257 313 1257 c 256,35,36
 279 1257 279 1257 248.5 1264.5 c 128,-1,37
 218 1272 218 1272 195.5 1289.5 c 128,-1,38
 173 1307 173 1307 160 1336 c 128,-1,39
 147 1365 147 1365 147 1407 c 0,20,21
EndSplineSet
EndChar

StartChar: k
Encoding: 107 107 78
Width: 1208
GlyphClass: 2
Flags: W
LayerCount: 2
Fore
SplineSet
453 608 m 1,0,-1
 565 778 l 1,1,-1
 838 1118 l 1,2,-1
 1182 1118 l 1,3,-1
 778 633 l 1,4,-1
 1208 0 l 1,5,-1
 856 0 l 1,6,-1
 584 430 l 1,7,-1
 465 348 l 1,8,-1
 465 0 l 1,9,-1
 160 0 l 1,10,-1
 160 1556 l 1,11,-1
 465 1556 l 1,12,-1
 465 862 l 1,13,-1
 449 608 l 1,14,-1
 453 608 l 1,0,-1
EndSplineSet
EndChar

StartChar: l
Encoding: 108 108 79
Width: 625
GlyphClass: 2
Flags: W
LayerCount: 2
Fore
SplineSet
465 0 m 1,0,-1
 160 0 l 1,1,-1
 160 1556 l 1,2,-1
 465 1556 l 1,3,-1
 465 0 l 1,0,-1
EndSplineSet
EndChar

StartChar: m
Encoding: 109 109 80
Width: 1929
GlyphClass: 2
Flags: W
LayerCount: 2
Fore
SplineSet
1120 0 m 1,0,-1
 815 0 l 1,1,-1
 815 653 l 2,2,3
 815 774 815 774 779 834.5 c 128,-1,4
 743 895 743 895 666 895 c 0,5,6
 608 895 608 895 569.5 871 c 128,-1,7
 531 847 531 847 508 800 c 128,-1,8
 485 753 485 753 475 684 c 128,-1,9
 465 615 465 615 465 526 c 2,10,-1
 465 0 l 1,11,-1
 160 0 l 1,12,-1
 160 1118 l 1,13,-1
 393 1118 l 1,14,-1
 434 975 l 1,15,-1
 451 975 l 1,16,17
 475 1018 475 1018 508.5 1049 c 128,-1,18
 542 1080 542 1080 582 1100 c 128,-1,19
 622 1120 622 1120 667 1129.5 c 128,-1,20
 712 1139 712 1139 758 1139 c 0,21,22
 873 1139 873 1139 953.5 1099.5 c 128,-1,23
 1034 1060 1034 1060 1077 975 c 1,24,-1
 1102 975 l 1,25,26
 1126 1018 1126 1018 1160 1049 c 128,-1,27
 1194 1080 1194 1080 1235 1100 c 128,-1,28
 1276 1120 1276 1120 1321.5 1129.5 c 128,-1,29
 1367 1139 1367 1139 1413 1139 c 0,30,31
 1593 1139 1593 1139 1684.5 1041.5 c 128,-1,32
 1776 944 1776 944 1776 729 c 2,33,-1
 1776 0 l 1,34,-1
 1470 0 l 1,35,-1
 1470 653 l 2,36,37
 1470 774 1470 774 1434 834.5 c 128,-1,38
 1398 895 1398 895 1321 895 c 0,39,40
 1212 895 1212 895 1166 808.5 c 128,-1,41
 1120 722 1120 722 1120 561 c 2,42,-1
 1120 0 l 1,0,-1
EndSplineSet
EndChar

StartChar: n
Encoding: 110 110 81
Width: 1284
GlyphClass: 2
Flags: W
LayerCount: 2
Fore
SplineSet
1130 0 m 1,0,-1
 825 0 l 1,1,-1
 825 653 l 2,2,3
 825 774 825 774 788.5 834.5 c 128,-1,4
 752 895 752 895 672 895 c 0,5,6
 612 895 612 895 572 871 c 128,-1,7
 532 847 532 847 508.5 800 c 128,-1,8
 485 753 485 753 475 684 c 128,-1,9
 465 615 465 615 465 526 c 2,10,-1
 465 0 l 1,11,-1
 160 0 l 1,12,-1
 160 1118 l 1,13,-1
 393 1118 l 1,14,-1
 434 975 l 1,15,-1
 451 975 l 1,16,17
 475 1018 475 1018 509.5 1049 c 128,-1,18
 544 1080 544 1080 585 1100 c 128,-1,19
 626 1120 626 1120 672 1129.5 c 128,-1,20
 718 1139 718 1139 766 1139 c 0,21,22
 848 1139 848 1139 915 1115.5 c 128,-1,23
 982 1092 982 1092 1030 1042 c 128,-1,24
 1078 992 1078 992 1104 914.5 c 128,-1,25
 1130 837 1130 837 1130 729 c 2,26,-1
 1130 0 l 1,0,-1
EndSplineSet
EndChar

StartChar: o
Encoding: 111 111 82
Width: 1227
GlyphClass: 2
Flags: W
LayerCount: 2
Fore
SplineSet
414 561 m 256,0,1
 414 394 414 394 461 309.5 c 128,-1,2
 508 225 508 225 614 225 c 0,3,4
 719 225 719 225 766 310 c 128,-1,5
 813 395 813 395 813 561 c 0,6,7
 813 728 813 728 766 810.5 c 128,-1,8
 719 893 719 893 612 893 c 0,9,10
 507 893 507 893 460.5 810.5 c 128,-1,11
 414 728 414 728 414 561 c 256,0,1
1124 561 m 0,12,13
 1124 421 1124 421 1088.5 313 c 128,-1,14
 1053 205 1053 205 986.5 131 c 128,-1,15
 920 57 920 57 824.5 18.5 c 128,-1,16
 729 -20 729 -20 610 -20 c 0,17,18
 499 -20 499 -20 406 18.5 c 128,-1,19
 313 57 313 57 245.5 131 c 128,-1,20
 178 205 178 205 140 313 c 128,-1,21
 102 421 102 421 102 561 c 0,22,23
 102 700 102 700 137.5 808 c 128,-1,24
 173 916 173 916 239.5 989.5 c 128,-1,25
 306 1063 306 1063 401 1101 c 128,-1,26
 496 1139 496 1139 616 1139 c 0,27,28
 727 1139 727 1139 820 1101 c 128,-1,29
 913 1063 913 1063 980.5 989.5 c 128,-1,30
 1048 916 1048 916 1086 808 c 128,-1,31
 1124 700 1124 700 1124 561 c 0,12,13
EndSplineSet
EndChar

StartChar: p
Encoding: 112 112 83
Width: 1245
GlyphClass: 2
Flags: W
LayerCount: 2
Fore
SplineSet
748 -20 m 0,0,1
 693 -20 693 -20 649.5 -8 c 128,-1,2
 606 4 606 4 572 24 c 128,-1,3
 538 44 538 44 512 69.5 c 128,-1,4
 486 95 486 95 465 123 c 1,5,-1
 449 123 l 1,6,7
 453 88 453 88 457 57 c 0,8,9
 460 31 460 31 462.5 3.5 c 128,-1,10
 465 -24 465 -24 465 -39 c 2,11,-1
 465 -492 l 1,12,-1
 160 -492 l 1,13,-1
 160 1118 l 1,14,-1
 408 1118 l 1,15,-1
 451 973 l 1,16,-1
 465 973 l 1,17,18
 486 1007 486 1007 513 1037 c 128,-1,19
 540 1067 540 1067 575.5 1089.5 c 128,-1,20
 611 1112 611 1112 656 1125.5 c 128,-1,21
 701 1139 701 1139 756 1139 c 0,22,23
 843 1139 843 1139 914 1102 c 128,-1,24
 985 1065 985 1065 1036 992 c 128,-1,25
 1087 919 1087 919 1115 811 c 128,-1,26
 1143 703 1143 703 1143 561 c 0,27,28
 1143 418 1143 418 1114 309.5 c 128,-1,29
 1085 201 1085 201 1032.5 127.5 c 128,-1,30
 980 54 980 54 907.5 17 c 128,-1,31
 835 -20 835 -20 748 -20 c 0,0,1
653 895 m 0,32,33
 602 895 602 895 566.5 876.5 c 128,-1,34
 531 858 531 858 509 821 c 128,-1,35
 487 784 487 784 477 727.5 c 128,-1,36
 467 671 467 671 465 596 c 1,37,-1
 465 563 l 2,38,39
 465 482 465 482 474.5 419 c 128,-1,40
 484 356 484 356 506 313.5 c 128,-1,41
 528 271 528 271 564.5 249 c 128,-1,42
 601 227 601 227 655 227 c 0,43,44
 746 227 746 227 788.5 313.5 c 128,-1,45
 831 400 831 400 831 565 c 256,46,47
 831 730 831 730 788.5 812.5 c 128,-1,48
 746 895 746 895 653 895 c 0,32,33
EndSplineSet
EndChar

StartChar: q
Encoding: 113 113 84
Width: 1245
GlyphClass: 2
Flags: W
LayerCount: 2
Fore
SplineSet
602 219 m 0,0,1
 657 219 657 219 694.5 237.5 c 128,-1,2
 732 256 732 256 755 293 c 128,-1,3
 778 330 778 330 789 386.5 c 128,-1,4
 800 443 800 443 801 518 c 1,5,-1
 801 555 l 2,6,7
 801 636 801 636 791.5 699 c 128,-1,8
 782 762 782 762 758.5 804.5 c 128,-1,9
 735 847 735 847 696.5 869 c 128,-1,10
 658 891 658 891 600 891 c 0,11,12
 504 891 504 891 459 804.5 c 128,-1,13
 414 718 414 718 414 553 c 0,14,15
 414 385 414 385 459.5 302 c 128,-1,16
 505 219 505 219 602 219 c 0,0,1
489 -20 m 0,17,18
 402 -20 402 -20 331 17 c 128,-1,19
 260 54 260 54 209 126.5 c 128,-1,20
 158 199 158 199 130 307 c 128,-1,21
 102 415 102 415 102 557 c 0,22,23
 102 700 102 700 130.5 808.5 c 128,-1,24
 159 917 159 917 211.5 990.5 c 128,-1,25
 264 1064 264 1064 337 1101.5 c 128,-1,26
 410 1139 410 1139 498 1139 c 0,27,28
 554 1139 554 1139 599 1126.5 c 128,-1,29
 644 1114 644 1114 680.5 1091.5 c 128,-1,30
 717 1069 717 1069 745 1039.5 c 128,-1,31
 773 1010 773 1010 795 975 c 1,32,-1
 803 975 l 1,33,-1
 827 1118 l 1,34,-1
 1085 1118 l 1,35,-1
 1085 -492 l 1,36,-1
 780 -492 l 1,37,-1
 780 -23 l 2,38,39
 780 -4 780 -4 782.5 24.5 c 128,-1,40
 785 53 785 53 787 80 c 0,41,42
 790 112 790 112 793 145 c 1,43,-1
 780 145 l 1,44,45
 760 111 760 111 733 80.5 c 128,-1,46
 706 50 706 50 670.5 28 c 128,-1,47
 635 6 635 6 590 -7 c 128,-1,48
 545 -20 545 -20 489 -20 c 0,17,18
EndSplineSet
EndChar

StartChar: r
Encoding: 114 114 85
Width: 889
GlyphClass: 2
Flags: W
LayerCount: 2
Fore
SplineSet
743 1139 m 0,0,1
 755 1139 755 1139 769.5 1138.5 c 128,-1,2
 784 1138 784 1138 797.5 1136.5 c 128,-1,3
 811 1135 811 1135 822.5 1133.5 c 128,-1,4
 834 1132 834 1132 840 1130 c 1,5,-1
 840 844 l 1,6,7
 832 846 832 846 818 848 c 128,-1,8
 804 850 804 850 788.5 851.5 c 128,-1,9
 773 853 773 853 758 853.5 c 128,-1,10
 743 854 743 854 733 854 c 0,11,12
 674 854 674 854 624.5 839 c 128,-1,13
 575 824 575 824 539.5 790.5 c 128,-1,14
 504 757 504 757 484.5 702.5 c 128,-1,15
 465 648 465 648 465 569 c 2,16,-1
 465 0 l 1,17,-1
 160 0 l 1,18,-1
 160 1118 l 1,19,-1
 391 1118 l 1,20,-1
 436 950 l 1,21,-1
 451 950 l 1,22,23
 475 993 475 993 503 1028 c 128,-1,24
 531 1063 531 1063 565.5 1087.5 c 128,-1,25
 600 1112 600 1112 643.5 1125.5 c 128,-1,26
 687 1139 687 1139 743 1139 c 0,0,1
EndSplineSet
EndChar

StartChar: s
Encoding: 115 115 86
Width: 985
GlyphClass: 2
Flags: W
LayerCount: 2
Fore
SplineSet
905 332 m 0,0,1
 905 244 905 244 873 178 c 128,-1,2
 841 112 841 112 782 68 c 128,-1,3
 723 24 723 24 639 2 c 128,-1,4
 555 -20 555 -20 451 -20 c 0,5,6
 396 -20 396 -20 349 -16.5 c 128,-1,7
 302 -13 302 -13 260 -5 c 128,-1,8
 218 3 218 3 179 15 c 128,-1,9
 140 27 140 27 100 45 c 1,10,-1
 100 297 l 1,11,12
 142 276 142 276 188.5 259 c 128,-1,13
 235 242 235 242 281 229.5 c 128,-1,14
 327 217 327 217 370.5 210 c 128,-1,15
 414 203 414 203 451 203 c 0,16,17
 492 203 492 203 521 210.5 c 128,-1,18
 550 218 550 218 568.5 231.5 c 128,-1,19
 587 245 587 245 595.5 263.5 c 128,-1,20
 604 282 604 282 604 303 c 256,21,22
 604 324 604 324 597.5 340.5 c 128,-1,23
 591 357 591 357 568 375.5 c 128,-1,24
 545 394 545 394 500.5 417.5 c 128,-1,25
 456 441 456 441 381 475 c 0,26,27
 308 508 308 508 254.5 540.5 c 128,-1,28
 201 573 201 573 166.5 613 c 128,-1,29
 132 653 132 653 115 704.5 c 128,-1,30
 98 756 98 756 98 827 c 0,31,32
 98 905 98 905 128 963.5 c 128,-1,33
 158 1022 158 1022 213 1061 c 128,-1,34
 268 1100 268 1100 345.5 1119.5 c 128,-1,35
 423 1139 423 1139 518 1139 c 0,36,37
 618 1139 618 1139 708 1116 c 128,-1,38
 798 1093 798 1093 893 1047 c 1,39,-1
 801 831 l 1,40,41
 725 867 725 867 656 890 c 128,-1,42
 587 913 587 913 518 913 c 0,43,44
 456 913 456 913 428.5 891 c 128,-1,45
 401 869 401 869 401 831 c 0,46,47
 401 811 401 811 408 795.5 c 128,-1,48
 415 780 415 780 436 763.5 c 128,-1,49
 457 747 457 747 495 727.5 c 128,-1,50
 533 708 533 708 594 680 c 1,51,52
 665 649 665 649 722 618.5 c 128,-1,53
 779 588 779 588 820 549 c 128,-1,54
 861 510 861 510 883 458 c 128,-1,55
 905 406 905 406 905 332 c 0,0,1
EndSplineSet
EndChar

StartChar: t
Encoding: 116 116 87
Width: 848
GlyphClass: 2
Flags: W
LayerCount: 2
Fore
SplineSet
614 223 m 0,0,1
 659 223 659 223 699.5 233 c 128,-1,2
 740 243 740 243 782 258 c 1,3,-1
 782 31 l 1,4,5
 739 9 739 9 675.5 -5.5 c 128,-1,6
 612 -20 612 -20 537 -20 c 0,7,8
 464 -20 464 -20 401 -3 c 128,-1,9
 338 14 338 14 292 56.5 c 128,-1,10
 246 99 246 99 219.5 170.5 c 128,-1,11
 193 242 193 242 193 350 c 2,12,-1
 193 889 l 1,13,-1
 47 889 l 1,14,-1
 47 1018 l 1,15,-1
 215 1120 l 1,16,-1
 303 1356 l 1,17,-1
 498 1356 l 1,18,-1
 498 1118 l 1,19,-1
 770 1118 l 1,20,-1
 770 889 l 1,21,-1
 498 889 l 1,22,-1
 498 350 l 2,23,24
 498 285 498 285 530 254 c 128,-1,25
 562 223 562 223 614 223 c 0,0,1
EndSplineSet
EndChar

StartChar: u
Encoding: 117 117 88
Width: 1284
GlyphClass: 2
Flags: W
LayerCount: 2
Fore
SplineSet
891 0 m 1,0,-1
 850 143 l 1,1,-1
 834 143 l 1,2,3
 809 100 809 100 774.5 69.5 c 128,-1,4
 740 39 740 39 699 19 c 128,-1,5
 658 -1 658 -1 612 -10.5 c 128,-1,6
 566 -20 566 -20 518 -20 c 0,7,8
 436 -20 436 -20 369 3.5 c 128,-1,9
 302 27 302 27 254 77 c 128,-1,10
 206 127 206 127 180 204 c 128,-1,11
 154 281 154 281 154 389 c 2,12,-1
 154 1118 l 1,13,-1
 459 1118 l 1,14,-1
 459 465 l 2,15,16
 459 344 459 344 495.5 283.5 c 128,-1,17
 532 223 532 223 612 223 c 0,18,19
 672 223 672 223 712 247 c 128,-1,20
 752 271 752 271 775.5 318 c 128,-1,21
 799 365 799 365 809 434 c 128,-1,22
 819 503 819 503 819 592 c 2,23,-1
 819 1118 l 1,24,-1
 1124 1118 l 1,25,-1
 1124 0 l 1,26,-1
 891 0 l 1,0,-1
EndSplineSet
EndChar

StartChar: v
Encoding: 118 118 89
Width: 1104
GlyphClass: 2
Flags: W
LayerCount: 2
Fore
SplineSet
395 0 m 1,0,-1
 0 1118 l 1,1,-1
 319 1118 l 1,2,-1
 504 481 l 2,3,4
 521 424 521 424 533.5 362.5 c 128,-1,5
 546 301 546 301 549 252 c 1,6,-1
 555 252 l 1,7,8
 558 305 558 305 570.5 364.5 c 128,-1,9
 583 424 583 424 600 481 c 2,10,-1
 784 1118 l 1,11,-1
 1104 1118 l 1,12,-1
 709 0 l 1,13,-1
 395 0 l 1,0,-1
EndSplineSet
EndChar

StartChar: w
Encoding: 119 119 90
Width: 1651
GlyphClass: 2
Flags: W
LayerCount: 2
Fore
SplineSet
1014 0 m 1,0,-1
 928 391 l 2,1,2
 924 408 924 408 917.5 439.5 c 128,-1,3
 911 471 911 471 903 510.5 c 128,-1,4
 895 550 895 550 886.5 594.5 c 128,-1,5
 878 639 878 639 869 683 c 0,6,7
 849 786 849 786 825 905 c 1,8,-1
 819 905 l 1,9,10
 796 786 796 786 777 682 c 0,11,12
 769 638 769 638 760.5 593 c 128,-1,13
 752 548 752 548 744 508.5 c 128,-1,14
 736 469 736 469 729.5 437 c 128,-1,15
 723 405 723 405 719 387 c 2,16,-1
 629 0 l 1,17,-1
 301 0 l 1,18,-1
 0 1118 l 1,19,-1
 303 1118 l 1,20,-1
 416 623 l 2,21,22
 425 584 425 584 434.5 529.5 c 128,-1,23
 444 475 444 475 452.5 419.5 c 128,-1,24
 461 364 461 364 468 314.5 c 128,-1,25
 475 265 475 265 479 236 c 1,26,-1
 485 236 l 1,27,28
 486 255 486 255 489.5 285.5 c 128,-1,29
 493 316 493 316 498 351 c 128,-1,30
 503 386 503 386 508.5 422.5 c 128,-1,31
 514 459 514 459 519.5 491 c 128,-1,32
 525 523 525 523 529.5 547.5 c 128,-1,33
 534 572 534 572 537 582 c 2,34,-1
 659 1118 l 1,35,-1
 995 1118 l 1,36,-1
 1112 582 l 2,37,38
 1117 560 1117 560 1125 514 c 128,-1,39
 1133 468 1133 468 1141.5 415.5 c 128,-1,40
 1150 363 1150 363 1156 313.5 c 128,-1,41
 1162 264 1162 264 1163 236 c 1,42,-1
 1169 236 l 1,43,44
 1172 261 1172 261 1179.5 310 c 128,-1,45
 1187 359 1187 359 1196 415.5 c 128,-1,46
 1205 472 1205 472 1215.5 528 c 128,-1,47
 1226 584 1226 584 1235 623 c 2,48,-1
 1352 1118 l 1,49,-1
 1651 1118 l 1,50,-1
 1346 0 l 1,51,-1
 1014 0 l 1,0,-1
EndSplineSet
EndChar

StartChar: x
Encoding: 120 120 91
Width: 1122
GlyphClass: 2
Flags: W
LayerCount: 2
Fore
SplineSet
389 571 m 1,0,-1
 29 1118 l 1,1,-1
 375 1118 l 1,2,-1
 561 782 l 1,3,-1
 750 1118 l 1,4,-1
 1096 1118 l 1,5,-1
 731 571 l 1,6,-1
 1112 0 l 1,7,-1
 766 0 l 1,8,-1
 561 362 l 1,9,-1
 356 0 l 1,10,-1
 10 0 l 1,11,-1
 389 571 l 1,0,-1
EndSplineSet
EndChar

StartChar: y
Encoding: 121 121 92
Width: 1104
GlyphClass: 2
Flags: W
LayerCount: 2
Fore
SplineSet
0 1118 m 1,0,-1
 334 1118 l 1,1,-1
 514 489 l 1,2,3
 530 437 530 437 537.5 378 c 128,-1,4
 545 319 545 319 547 272 c 1,5,-1
 553 272 l 1,6,7
 555 295 555 295 558.5 323 c 128,-1,8
 562 351 562 351 567 380 c 128,-1,9
 572 409 572 409 578.5 437.5 c 128,-1,10
 585 466 585 466 592 489 c 2,11,-1
 768 1118 l 1,12,-1
 1104 1118 l 1,13,-1
 662 -143 l 2,14,15
 600 -320 600 -320 493 -406 c 128,-1,16
 386 -492 386 -492 225 -492 c 0,17,18
 173 -492 173 -492 135 -486.5 c 128,-1,19
 97 -481 97 -481 70 -475 c 1,20,-1
 70 -233 l 1,21,22
 91 -238 91 -238 123 -242 c 128,-1,23
 155 -246 155 -246 190 -246 c 0,24,25
 238 -246 238 -246 272 -233 c 128,-1,26
 306 -220 306 -220 330.5 -196.5 c 128,-1,27
 355 -173 355 -173 372.5 -140 c 128,-1,28
 390 -107 390 -107 403 -66 c 2,29,-1
 422 -10 l 1,30,-1
 0 1118 l 1,0,-1
EndSplineSet
EndChar

StartChar: z
Encoding: 122 122 93
Width: 936
GlyphClass: 2
Flags: W
LayerCount: 2
Fore
SplineSet
877 0 m 1,0,-1
 55 0 l 1,1,-1
 55 180 l 1,2,-1
 512 885 l 1,3,-1
 86 885 l 1,4,-1
 86 1118 l 1,5,-1
 858 1118 l 1,6,-1
 858 920 l 1,7,-1
 416 233 l 1,8,-1
 877 233 l 1,9,-1
 877 0 l 1,0,-1
EndSplineSet
EndChar

StartChar: braceleft
Encoding: 123 123 94
Width: 745
GlyphClass: 2
Flags: W
LayerCount: 2
Fore
SplineSet
221.5 408 m 128,-1,1
 156 449 156 449 31 449 c 1,2,-1
 31 688 l 1,3,4
 93 688 93 688 141.5 697.5 c 128,-1,5
 190 707 190 707 223 728.5 c 128,-1,6
 256 750 256 750 272.5 784 c 128,-1,7
 289 818 289 818 287 866 c 1,8,-1
 287 1184 l 2,9,10
 287 1258 287 1258 306 1310.5 c 128,-1,11
 325 1363 325 1363 374.5 1396.5 c 128,-1,12
 424 1430 424 1430 509 1446 c 128,-1,13
 594 1462 594 1462 725 1462 c 1,14,-1
 725 1237 l 1,15,16
 685 1236 685 1236 652.5 1230 c 128,-1,17
 620 1224 620 1224 597.5 1208.5 c 128,-1,18
 575 1193 575 1193 563 1166 c 128,-1,19
 551 1139 551 1139 551 1096 c 2,20,-1
 551 797 l 1,21,22
 545 610 545 610 317 575 c 1,23,-1
 317 563 l 1,24,25
 432 546 432 546 493 491 c 128,-1,26
 554 436 554 436 551 342 c 1,27,-1
 551 43 l 2,28,29
 551 0 551 0 563 -27 c 128,-1,30
 575 -54 575 -54 597.5 -69.5 c 128,-1,31
 620 -85 620 -85 652.5 -91 c 128,-1,32
 685 -97 685 -97 725 -98 c 1,33,-1
 725 -324 l 1,34,35
 594 -324 594 -324 509 -308 c 128,-1,36
 424 -292 424 -292 374.5 -258.5 c 128,-1,37
 325 -225 325 -225 306 -172 c 128,-1,38
 287 -119 287 -119 287 -45 c 2,39,-1
 287 270 l 2,40,0
 287 367 287 367 221.5 408 c 128,-1,1
EndSplineSet
EndChar

StartChar: bar
Encoding: 124 124 95
Width: 1128
GlyphClass: 2
Flags: W
LayerCount: 2
Fore
SplineSet
455 1550 m 1,0,-1
 674 1550 l 1,1,-1
 674 -465 l 1,2,-1
 455 -465 l 1,3,-1
 455 1550 l 1,0,-1
EndSplineSet
EndChar

StartChar: braceright
Encoding: 125 125 96
Width: 745
GlyphClass: 2
Flags: W
LayerCount: 2
Fore
SplineSet
469 -45 m 2,0,1
 469 -119 469 -119 450 -172 c 128,-1,2
 431 -225 431 -225 381.5 -258.5 c 128,-1,3
 332 -292 332 -292 247 -308 c 128,-1,4
 162 -324 162 -324 31 -324 c 1,5,-1
 31 -98 l 1,6,7
 71 -97 71 -97 103 -91 c 128,-1,8
 135 -85 135 -85 157.5 -69.5 c 128,-1,9
 180 -54 180 -54 192.5 -27 c 128,-1,10
 205 0 205 0 205 43 c 2,11,-1
 205 342 l 1,12,13
 202 436 202 436 263 491 c 128,-1,14
 324 546 324 546 438 563 c 1,15,-1
 438 575 l 1,16,17
 211 610 211 610 205 797 c 1,18,-1
 205 1096 l 2,19,20
 205 1139 205 1139 192.5 1166 c 128,-1,21
 180 1193 180 1193 157.5 1208.5 c 128,-1,22
 135 1224 135 1224 103 1230 c 128,-1,23
 71 1236 71 1236 31 1237 c 1,24,-1
 31 1462 l 1,25,26
 162 1462 162 1462 247 1446 c 128,-1,27
 332 1430 332 1430 381.5 1396.5 c 128,-1,28
 431 1363 431 1363 450 1310.5 c 128,-1,29
 469 1258 469 1258 469 1184 c 2,30,-1
 469 866 l 1,31,32
 468 818 468 818 484 784 c 128,-1,33
 500 750 500 750 533 728.5 c 128,-1,34
 566 707 566 707 614.5 697.5 c 128,-1,35
 663 688 663 688 725 688 c 1,36,-1
 725 449 l 1,37,38
 600 449 600 449 534.5 408 c 128,-1,39
 469 367 469 367 469 270 c 2,40,-1
 469 -45 l 2,0,1
EndSplineSet
EndChar

StartChar: asciitilde
Encoding: 126 126 97
Width: 1128
GlyphClass: 2
Flags: W
LayerCount: 2
Fore
SplineSet
528 616 m 0,0,1
 491 632 491 632 462.5 643 c 128,-1,2
 434 654 434 654 410.5 660.5 c 128,-1,3
 387 667 387 667 366 669.5 c 128,-1,4
 345 672 345 672 322 672 c 0,5,6
 293 672 293 672 262 662.5 c 128,-1,7
 231 653 231 653 201 636.5 c 128,-1,8
 171 620 171 620 142.5 598 c 128,-1,9
 114 576 114 576 88 551 c 1,10,-1
 88 782 l 1,11,12
 139 836 139 836 202.5 863.5 c 128,-1,13
 266 891 266 891 344 891 c 0,14,15
 374 891 374 891 399.5 888.5 c 128,-1,16
 425 886 425 886 453.5 879 c 128,-1,17
 482 872 482 872 517 859.5 c 128,-1,18
 552 847 552 847 600 827 c 0,19,20
 638 811 638 811 666.5 800.5 c 128,-1,21
 695 790 695 790 719 783.5 c 128,-1,22
 743 777 743 777 764 774.5 c 128,-1,23
 785 772 785 772 807 772 c 0,24,25
 836 772 836 772 867 781.5 c 128,-1,26
 898 791 898 791 928 807 c 128,-1,27
 958 823 958 823 986.5 845.5 c 128,-1,28
 1015 868 1015 868 1040 893 c 1,29,-1
 1040 662 l 1,30,31
 939 553 939 553 784 553 c 0,32,33
 754 553 754 553 728.5 555.5 c 128,-1,34
 703 558 703 558 674.5 564.5 c 128,-1,35
 646 571 646 571 611 583.5 c 128,-1,36
 576 596 576 596 528 616 c 0,0,1
EndSplineSet
EndChar

StartChar: exclamdown
Encoding: 161 161 99
Width: 586
GlyphClass: 2
Flags: W
LayerCount: 2
Fore
SplineSet
168 606 m 1,0,-1
 412 606 l 1,1,-1
 463 -369 l 1,2,-1
 117 -369 l 1,3,-1
 168 606 l 1,0,-1
467 948 m 0,4,5
 467 901 467 901 453.5 868.5 c 128,-1,6
 440 836 440 836 416 816 c 128,-1,7
 392 796 392 796 360 787 c 128,-1,8
 328 778 328 778 291 778 c 0,9,10
 256 778 256 778 224.5 787 c 128,-1,11
 193 796 193 796 169 816 c 128,-1,12
 145 836 145 836 131 868.5 c 128,-1,13
 117 901 117 901 117 948 c 0,14,15
 117 993 117 993 131 1025.5 c 128,-1,16
 145 1058 145 1058 169 1078.5 c 128,-1,17
 193 1099 193 1099 224.5 1108.5 c 128,-1,18
 256 1118 256 1118 291 1118 c 0,19,20
 328 1118 328 1118 360 1108.5 c 128,-1,21
 392 1099 392 1099 416 1078.5 c 128,-1,22
 440 1058 440 1058 453.5 1025.5 c 128,-1,23
 467 993 467 993 467 948 c 0,4,5
EndSplineSet
EndChar

StartChar: cent
Encoding: 162 162 100
Width: 1128
GlyphClass: 2
Flags: W
LayerCount: 2
Fore
SplineSet
543 -20 m 1,0,-1
 543 186 l 1,1,2
 451 199 451 199 377 236.5 c 128,-1,3
 303 274 303 274 251 340.5 c 128,-1,4
 199 407 199 407 171 506.5 c 128,-1,5
 143 606 143 606 143 743 c 0,6,7
 143 884 143 884 171 985.5 c 128,-1,8
 199 1087 199 1087 251.5 1155 c 128,-1,9
 304 1223 304 1223 378 1260.5 c 128,-1,10
 452 1298 452 1298 543 1311 c 1,11,-1
 543 1483 l 1,12,-1
 721 1483 l 1,13,-1
 721 1319 l 1,14,15
 759 1318 759 1318 797 1312.5 c 128,-1,16
 835 1307 835 1307 870.5 1299 c 128,-1,17
 906 1291 906 1291 937.5 1281 c 128,-1,18
 969 1271 969 1271 993 1260 c 1,19,-1
 907 1034 l 1,20,21
 886 1044 886 1044 859.5 1053.5 c 128,-1,22
 833 1063 833 1063 805 1070.5 c 128,-1,23
 777 1078 777 1078 749.5 1082.5 c 128,-1,24
 722 1087 722 1087 698 1087 c 0,25,26
 632 1087 632 1087 586 1067 c 128,-1,27
 540 1047 540 1047 510.5 1005.5 c 128,-1,28
 481 964 481 964 468 900.5 c 128,-1,29
 455 837 455 837 455 750 c 0,30,31
 455 579 455 579 512 499.5 c 128,-1,32
 569 420 569 420 698 420 c 0,33,34
 774 420 774 420 844.5 438.5 c 128,-1,35
 915 457 915 457 965 481 c 1,36,-1
 965 242 l 1,37,38
 914 213 914 213 852 197.5 c 128,-1,39
 790 182 790 182 721 180 c 1,40,-1
 721 -20 l 1,41,-1
 543 -20 l 1,0,-1
EndSplineSet
EndChar

StartChar: sterling
Encoding: 163 163 101
Width: 1128
GlyphClass: 2
Flags: W
LayerCount: 2
Fore
SplineSet
680 1483 m 0,0,1
 790 1483 790 1483 879.5 1459 c 128,-1,2
 969 1435 969 1435 1049 1401 c 1,3,-1
 956 1171 l 1,4,5
 885 1200 885 1200 826.5 1217.5 c 128,-1,6
 768 1235 768 1235 705 1235 c 0,7,8
 638 1235 638 1235 600.5 1196.5 c 128,-1,9
 563 1158 563 1158 563 1063 c 2,10,-1
 563 870 l 1,11,-1
 897 870 l 1,12,-1
 897 651 l 1,13,-1
 563 651 l 1,14,-1
 563 508 l 2,15,16
 563 453 563 453 549.5 412.5 c 128,-1,17
 536 372 536 372 514 343 c 128,-1,18
 492 314 492 314 465.5 294 c 128,-1,19
 439 274 439 274 412 260 c 1,20,-1
 1090 260 l 1,21,-1
 1090 0 l 1,22,-1
 82 0 l 1,23,-1
 82 248 l 1,24,25
 124 266 124 266 157.5 287 c 128,-1,26
 191 308 191 308 214.5 337 c 128,-1,27
 238 366 238 366 250 407 c 128,-1,28
 262 448 262 448 262 506 c 2,29,-1
 262 651 l 1,30,-1
 84 651 l 1,31,-1
 84 870 l 1,32,-1
 262 870 l 1,33,-1
 262 1065 l 2,34,35
 262 1178 262 1178 293.5 1257.5 c 128,-1,36
 325 1337 325 1337 380.5 1387 c 128,-1,37
 436 1437 436 1437 512.5 1460 c 128,-1,38
 589 1483 589 1483 680 1483 c 0,0,1
EndSplineSet
EndChar

StartChar: currency
Encoding: 164 164 102
Width: 1128
GlyphClass: 2
Flags: W
LayerCount: 2
Fore
SplineSet
168 723 m 0,0,1
 168 777 168 777 182 826.5 c 128,-1,2
 196 876 196 876 221 920 c 1,3,-1
 92 1047 l 1,4,-1
 240 1194 l 1,5,-1
 367 1067 l 1,6,7
 410 1092 410 1092 461 1106 c 128,-1,8
 512 1120 512 1120 563 1120 c 0,9,10
 617 1120 617 1120 665 1106.5 c 128,-1,11
 713 1093 713 1093 760 1065 c 1,12,-1
 887 1194 l 1,13,-1
 1036 1051 l 1,14,-1
 907 922 l 1,15,16
 932 880 932 880 946.5 828.5 c 128,-1,17
 961 777 961 777 961 723 c 0,18,19
 961 667 961 667 947 618 c 128,-1,20
 933 569 933 569 907 524 c 1,21,-1
 1032 399 l 1,22,-1
 887 254 l 1,23,-1
 760 379 l 1,24,25
 716 356 716 356 666.5 342 c 128,-1,26
 617 328 617 328 563 328 c 0,27,28
 507 328 507 328 457.5 340.5 c 128,-1,29
 408 353 408 353 365 379 c 1,30,-1
 240 256 l 1,31,-1
 94 401 l 1,32,-1
 221 526 l 1,33,34
 168 617 168 617 168 723 c 0,0,1
375 723 m 0,35,36
 375 684 375 684 390 649.5 c 128,-1,37
 405 615 405 615 430.5 589.5 c 128,-1,38
 456 564 456 564 490 549.5 c 128,-1,39
 524 535 524 535 563 535 c 0,40,41
 603 535 603 535 638 549.5 c 128,-1,42
 673 564 673 564 699.5 589.5 c 128,-1,43
 726 615 726 615 741 649.5 c 128,-1,44
 756 684 756 684 756 723 c 0,45,46
 756 763 756 763 741 797.5 c 128,-1,47
 726 832 726 832 699.5 857.5 c 128,-1,48
 673 883 673 883 638 898 c 128,-1,49
 603 913 603 913 563 913 c 0,50,51
 524 913 524 913 490 898 c 128,-1,52
 456 883 456 883 430.5 857.5 c 128,-1,53
 405 832 405 832 390 797.5 c 128,-1,54
 375 763 375 763 375 723 c 0,35,36
EndSplineSet
EndChar

StartChar: yen
Encoding: 165 165 103
Width: 1128
GlyphClass: 2
Flags: W
LayerCount: 2
Fore
SplineSet
565 860 m 1,0,-1
 809 1462 l 1,1,-1
 1122 1462 l 1,2,-1
 760 715 l 1,3,-1
 954 715 l 1,4,-1
 954 537 l 1,5,-1
 709 537 l 1,6,-1
 709 399 l 1,7,-1
 954 399 l 1,8,-1
 954 221 l 1,9,-1
 709 221 l 1,10,-1
 709 0 l 1,11,-1
 422 0 l 1,12,-1
 422 221 l 1,13,-1
 174 221 l 1,14,-1
 174 399 l 1,15,-1
 422 399 l 1,16,-1
 422 537 l 1,17,-1
 174 537 l 1,18,-1
 174 715 l 1,19,-1
 365 715 l 1,20,-1
 8 1462 l 1,21,-1
 324 1462 l 1,22,-1
 565 860 l 1,0,-1
EndSplineSet
EndChar

StartChar: brokenbar
Encoding: 166 166 104
Width: 1128
GlyphClass: 2
Flags: W
LayerCount: 2
Fore
SplineSet
455 1550 m 1,0,-1
 674 1550 l 1,1,-1
 674 735 l 1,2,-1
 455 735 l 1,3,-1
 455 1550 l 1,0,-1
455 350 m 1,4,-1
 674 350 l 1,5,-1
 674 -465 l 1,6,-1
 455 -465 l 1,7,-1
 455 350 l 1,4,-1
EndSplineSet
EndChar

StartChar: section
Encoding: 167 167 105
Width: 995
GlyphClass: 2
Flags: W
LayerCount: 2
Fore
SplineSet
121 805 m 0,0,1
 121 849 121 849 131.5 886.5 c 128,-1,2
 142 924 142 924 160.5 955.5 c 128,-1,3
 179 987 179 987 203 1012 c 128,-1,4
 227 1037 227 1037 254 1055 c 1,5,6
 191 1095 191 1095 156 1154 c 128,-1,7
 121 1213 121 1213 121 1288 c 0,8,9
 121 1353 121 1353 150 1406.5 c 128,-1,10
 179 1460 179 1460 232.5 1498 c 128,-1,11
 286 1536 286 1536 360.5 1556.5 c 128,-1,12
 435 1577 435 1577 526 1577 c 0,13,14
 628 1577 628 1577 716 1553.5 c 128,-1,15
 804 1530 804 1530 889 1493 c 1,16,-1
 807 1303 l 1,17,18
 739 1335 739 1335 668.5 1360.5 c 128,-1,19
 598 1386 598 1386 520 1386 c 0,20,21
 439 1386 439 1386 402 1363 c 128,-1,22
 365 1340 365 1340 365 1292 c 0,23,24
 365 1267 365 1267 377 1246 c 128,-1,25
 389 1225 389 1225 415 1205.5 c 128,-1,26
 441 1186 441 1186 481.5 1166.5 c 128,-1,27
 522 1147 522 1147 578 1124 c 0,28,29
 649 1096 649 1096 707.5 1062 c 128,-1,30
 766 1028 766 1028 807.5 986.5 c 128,-1,31
 849 945 849 945 872 894.5 c 128,-1,32
 895 844 895 844 895 782 c 0,33,34
 895 682 895 682 860.5 620.5 c 128,-1,35
 826 559 826 559 770 522 c 1,36,37
 832 482 832 482 863.5 429.5 c 128,-1,38
 895 377 895 377 895 303 c 256,39,40
 895 229 895 229 864 169.5 c 128,-1,41
 833 110 833 110 776 68 c 128,-1,42
 719 26 719 26 637.5 3 c 128,-1,43
 556 -20 556 -20 455 -20 c 0,44,45
 345 -20 345 -20 260.5 0.5 c 128,-1,46
 176 21 176 21 106 59 c 1,47,-1
 106 266 l 1,48,49
 145 246 145 246 190 228.5 c 128,-1,50
 235 211 235 211 281 197.5 c 128,-1,51
 327 184 327 184 371.5 176 c 128,-1,52
 416 168 416 168 455 168 c 0,53,54
 511 168 511 168 548 177 c 128,-1,55
 585 186 585 186 607.5 202 c 128,-1,56
 630 218 630 218 639.5 239 c 128,-1,57
 649 260 649 260 649 285 c 256,58,59
 649 310 649 310 641.5 329.5 c 128,-1,60
 634 349 634 349 611.5 368 c 128,-1,61
 589 387 589 387 548.5 408 c 128,-1,62
 508 429 508 429 442 457 c 0,63,64
 366 489 366 489 306 521 c 128,-1,65
 246 553 246 553 205 593.5 c 128,-1,66
 164 634 164 634 142.5 685 c 128,-1,67
 121 736 121 736 121 805 c 0,0,1
344 827 m 0,68,69
 344 764 344 764 400.5 715.5 c 128,-1,70
 457 667 457 667 575 616 c 1,71,-1
 590 610 l 1,72,73
 605 621 605 621 619 635.5 c 128,-1,74
 633 650 633 650 644 668 c 128,-1,75
 655 686 655 686 661.5 708 c 128,-1,76
 668 730 668 730 668 756 c 0,77,78
 668 788 668 788 657.5 815 c 128,-1,79
 647 842 647 842 621 867.5 c 128,-1,80
 595 893 595 893 549.5 917.5 c 128,-1,81
 504 942 504 942 434 967 c 1,82,83
 416 960 416 960 400 946.5 c 128,-1,84
 384 933 384 933 371.5 915 c 128,-1,85
 359 897 359 897 351.5 875 c 128,-1,86
 344 853 344 853 344 827 c 0,68,69
EndSplineSet
EndChar

StartChar: dieresis
Encoding: 168 168 106
Width: 1182
GlyphClass: 2
Flags: W
LayerCount: 2
Fore
SplineSet
248 1405 m 0,0,1
 248 1440 248 1440 259 1465.5 c 128,-1,2
 270 1491 270 1491 288.5 1507.5 c 128,-1,3
 307 1524 307 1524 332.5 1532 c 128,-1,4
 358 1540 358 1540 387 1540 c 256,5,6
 416 1540 416 1540 441.5 1532 c 128,-1,7
 467 1524 467 1524 486 1507.5 c 128,-1,8
 505 1491 505 1491 516.5 1465.5 c 128,-1,9
 528 1440 528 1440 528 1405 c 0,10,11
 528 1371 528 1371 516.5 1346 c 128,-1,12
 505 1321 505 1321 486 1304.5 c 128,-1,13
 467 1288 467 1288 441.5 1280 c 128,-1,14
 416 1272 416 1272 387 1272 c 256,15,16
 358 1272 358 1272 332.5 1280 c 128,-1,17
 307 1288 307 1288 288.5 1304.5 c 128,-1,18
 270 1321 270 1321 259 1346 c 128,-1,19
 248 1371 248 1371 248 1405 c 0,0,1
651 1405 m 0,20,21
 651 1440 651 1440 662 1465.5 c 128,-1,22
 673 1491 673 1491 692 1507.5 c 128,-1,23
 711 1524 711 1524 737 1532 c 128,-1,24
 763 1540 763 1540 793 1540 c 0,25,26
 821 1540 821 1540 846.5 1532 c 128,-1,27
 872 1524 872 1524 891.5 1507.5 c 128,-1,28
 911 1491 911 1491 922.5 1465.5 c 128,-1,29
 934 1440 934 1440 934 1405 c 0,30,31
 934 1371 934 1371 922.5 1346 c 128,-1,32
 911 1321 911 1321 891.5 1304.5 c 128,-1,33
 872 1288 872 1288 846.5 1280 c 128,-1,34
 821 1272 821 1272 793 1272 c 0,35,36
 733 1272 733 1272 692 1305 c 128,-1,37
 651 1338 651 1338 651 1405 c 0,20,21
EndSplineSet
EndChar

StartChar: copyright
Encoding: 169 169 107
Width: 1704
GlyphClass: 2
Flags: W
LayerCount: 2
Fore
SplineSet
895 1010 m 0,0,1
 798 1010 798 1010 745 936 c 128,-1,2
 692 862 692 862 692 731 c 0,3,4
 692 596 692 596 740 523.5 c 128,-1,5
 788 451 788 451 895 451 c 0,6,7
 952 451 952 451 1018 466 c 128,-1,8
 1084 481 1084 481 1141 510 c 1,9,-1
 1141 319 l 1,10,11
 1084 292 1084 292 1025 277 c 128,-1,12
 966 262 966 262 889 262 c 0,13,14
 782 262 782 262 702 296 c 128,-1,15
 622 330 622 330 568.5 392 c 128,-1,16
 515 454 515 454 488 540.5 c 128,-1,17
 461 627 461 627 461 733 c 0,18,19
 461 836 461 836 487 921.5 c 128,-1,20
 513 1007 513 1007 565.5 1068.5 c 128,-1,21
 618 1130 618 1130 697 1164 c 128,-1,22
 776 1198 776 1198 881 1198 c 0,23,24
 964 1198 964 1198 1041 1176 c 128,-1,25
 1118 1154 1118 1154 1186 1120 c 1,26,-1
 1112 952 l 1,27,28
 999 1010 999 1010 895 1010 c 0,0,1
100 731 m 256,29,30
 100 835 100 835 127 931 c 128,-1,31
 154 1027 154 1027 202.5 1110.5 c 128,-1,32
 251 1194 251 1194 320 1263 c 128,-1,33
 389 1332 389 1332 472.5 1380.5 c 128,-1,34
 556 1429 556 1429 652 1456 c 128,-1,35
 748 1483 748 1483 852 1483 c 256,36,37
 956 1483 956 1483 1052 1456 c 128,-1,38
 1148 1429 1148 1429 1231.5 1380.5 c 128,-1,39
 1315 1332 1315 1332 1384 1263 c 128,-1,40
 1453 1194 1453 1194 1501.5 1110.5 c 128,-1,41
 1550 1027 1550 1027 1577 931 c 128,-1,42
 1604 835 1604 835 1604 731 c 256,43,44
 1604 627 1604 627 1577 531 c 128,-1,45
 1550 435 1550 435 1501.5 351.5 c 128,-1,46
 1453 268 1453 268 1384 199.5 c 128,-1,47
 1315 131 1315 131 1231.5 82 c 128,-1,48
 1148 33 1148 33 1052 6.5 c 128,-1,49
 956 -20 956 -20 852 -20 c 256,50,51
 748 -20 748 -20 652 6.5 c 128,-1,52
 556 33 556 33 472.5 82 c 128,-1,53
 389 131 389 131 320 199.5 c 128,-1,54
 251 268 251 268 202.5 351.5 c 128,-1,55
 154 435 154 435 127 531 c 128,-1,56
 100 627 100 627 100 731 c 256,29,30
242 731 m 256,57,58
 242 604 242 604 290 493 c 128,-1,59
 338 382 338 382 420.5 299.5 c 128,-1,60
 503 217 503 217 614 169 c 128,-1,61
 725 121 725 121 852 121 c 256,62,63
 979 121 979 121 1090 169 c 128,-1,64
 1201 217 1201 217 1283.5 299.5 c 128,-1,65
 1366 382 1366 382 1414 493 c 128,-1,66
 1462 604 1462 604 1462 731 c 256,67,68
 1462 858 1462 858 1414 969 c 128,-1,69
 1366 1080 1366 1080 1283.5 1162.5 c 128,-1,70
 1201 1245 1201 1245 1090 1293 c 128,-1,71
 979 1341 979 1341 852 1341 c 256,72,73
 725 1341 725 1341 614 1293 c 128,-1,74
 503 1245 503 1245 420.5 1162.5 c 128,-1,75
 338 1080 338 1080 290 969 c 128,-1,76
 242 858 242 858 242 731 c 256,57,58
EndSplineSet
EndChar

StartChar: ordfeminine
Encoding: 170 170 108
Width: 743
GlyphClass: 2
Flags: W
LayerCount: 2
Fore
SplineSet
520 764 m 1,0,-1
 489 874 l 1,1,2
 449 816 449 816 392.5 784 c 128,-1,3
 336 752 336 752 268 752 c 0,4,5
 218 752 218 752 177.5 765.5 c 128,-1,6
 137 779 137 779 108 806.5 c 128,-1,7
 79 834 79 834 63 876 c 128,-1,8
 47 918 47 918 47 975 c 0,9,10
 47 1035 47 1035 68.5 1076.5 c 128,-1,11
 90 1118 90 1118 130.5 1144.5 c 128,-1,12
 171 1171 171 1171 230.5 1184.5 c 128,-1,13
 290 1198 290 1198 365 1202 c 2,14,-1
 455 1206 l 1,15,16
 455 1269 455 1269 425.5 1296 c 128,-1,17
 396 1323 396 1323 342 1323 c 0,18,19
 302 1323 302 1323 253 1306 c 128,-1,20
 204 1289 204 1289 152 1262 c 1,21,-1
 86 1397 l 1,22,23
 148 1429 148 1429 222 1454 c 128,-1,24
 296 1479 296 1479 387 1479 c 0,25,26
 455 1479 455 1479 505.5 1459.5 c 128,-1,27
 556 1440 556 1440 589 1404.5 c 128,-1,28
 622 1369 622 1369 638.5 1318.5 c 128,-1,29
 655 1268 655 1268 655 1206 c 2,30,-1
 655 764 l 1,31,-1
 520 764 l 1,0,-1
373 1081 m 2,32,33
 335 1078 335 1078 311.5 1068 c 128,-1,34
 288 1058 288 1058 274.5 1043.5 c 128,-1,35
 261 1029 261 1029 256.5 1012 c 128,-1,36
 252 995 252 995 252 977 c 0,37,38
 252 939 252 939 271 921 c 128,-1,39
 290 903 290 903 317 903 c 0,40,41
 349 903 349 903 374.5 914 c 128,-1,42
 400 925 400 925 418 944.5 c 128,-1,43
 436 964 436 964 445.5 991.5 c 128,-1,44
 455 1019 455 1019 455 1051 c 2,45,-1
 455 1087 l 1,46,-1
 373 1081 l 2,32,33
EndSplineSet
EndChar

StartChar: guillemotleft
Encoding: 171 171 109
Width: 1198
GlyphClass: 2
Flags: W
LayerCount: 2
Fore
SplineSet
82 573 m 1,0,-1
 391 1028 l 1,1,-1
 610 909 l 1,2,-1
 393 561 l 1,3,-1
 610 213 l 1,4,-1
 391 94 l 1,5,-1
 82 547 l 1,6,-1
 82 573 l 1,0,-1
588 573 m 1,7,-1
 897 1028 l 1,8,-1
 1116 909 l 1,9,-1
 899 561 l 1,10,-1
 1116 213 l 1,11,-1
 897 94 l 1,12,-1
 588 547 l 1,13,-1
 588 573 l 1,7,-1
EndSplineSet
EndChar

StartChar: logicalnot
Encoding: 172 172 110
Width: 1128
GlyphClass: 2
Flags: W
LayerCount: 2
Fore
SplineSet
1040 248 m 1,0,-1
 821 248 l 1,1,-1
 821 612 l 1,2,-1
 88 612 l 1,3,-1
 88 831 l 1,4,-1
 1040 831 l 1,5,-1
 1040 248 l 1,0,-1
EndSplineSet
EndChar

StartChar: registered
Encoding: 174 174 112
Width: 1704
GlyphClass: 2
Flags: W
LayerCount: 2
Fore
SplineSet
1157 905 m 0,0,1
 1157 811 1157 811 1118.5 756 c 128,-1,2
 1080 701 1080 701 1014 672 c 1,3,-1
 1251 272 l 1,4,-1
 997 272 l 1,5,-1
 819 610 l 1,6,-1
 772 610 l 1,7,-1
 772 272 l 1,8,-1
 543 272 l 1,9,-1
 543 1188 l 1,10,-1
 807 1188 l 2,11,12
 989 1188 989 1188 1073 1118 c 128,-1,13
 1157 1048 1157 1048 1157 905 c 0,0,1
772 778 m 1,14,-1
 803 778 l 2,15,16
 869 778 869 778 897.5 806.5 c 128,-1,17
 926 835 926 835 926 901 c 0,18,19
 926 936 926 936 918.5 959 c 128,-1,20
 911 982 911 982 895.5 995.5 c 128,-1,21
 880 1009 880 1009 856.5 1014.5 c 128,-1,22
 833 1020 833 1020 801 1020 c 2,23,-1
 772 1020 l 1,24,-1
 772 778 l 1,14,-1
100 731 m 256,25,26
 100 835 100 835 127 931 c 128,-1,27
 154 1027 154 1027 202.5 1110.5 c 128,-1,28
 251 1194 251 1194 320 1263 c 128,-1,29
 389 1332 389 1332 472.5 1380.5 c 128,-1,30
 556 1429 556 1429 652 1456 c 128,-1,31
 748 1483 748 1483 852 1483 c 256,32,33
 956 1483 956 1483 1052 1456 c 128,-1,34
 1148 1429 1148 1429 1231.5 1380.5 c 128,-1,35
 1315 1332 1315 1332 1384 1263 c 128,-1,36
 1453 1194 1453 1194 1501.5 1110.5 c 128,-1,37
 1550 1027 1550 1027 1577 931 c 128,-1,38
 1604 835 1604 835 1604 731 c 256,39,40
 1604 627 1604 627 1577 531 c 128,-1,41
 1550 435 1550 435 1501.5 351.5 c 128,-1,42
 1453 268 1453 268 1384 199.5 c 128,-1,43
 1315 131 1315 131 1231.5 82 c 128,-1,44
 1148 33 1148 33 1052 6.5 c 128,-1,45
 956 -20 956 -20 852 -20 c 256,46,47
 748 -20 748 -20 652 6.5 c 128,-1,48
 556 33 556 33 472.5 82 c 128,-1,49
 389 131 389 131 320 199.5 c 128,-1,50
 251 268 251 268 202.5 351.5 c 128,-1,51
 154 435 154 435 127 531 c 128,-1,52
 100 627 100 627 100 731 c 256,25,26
242 731 m 256,53,54
 242 604 242 604 290 493 c 128,-1,55
 338 382 338 382 420.5 299.5 c 128,-1,56
 503 217 503 217 614 169 c 128,-1,57
 725 121 725 121 852 121 c 256,58,59
 979 121 979 121 1090 169 c 128,-1,60
 1201 217 1201 217 1283.5 299.5 c 128,-1,61
 1366 382 1366 382 1414 493 c 128,-1,62
 1462 604 1462 604 1462 731 c 256,63,64
 1462 858 1462 858 1414 969 c 128,-1,65
 1366 1080 1366 1080 1283.5 1162.5 c 128,-1,66
 1201 1245 1201 1245 1090 1293 c 128,-1,67
 979 1341 979 1341 852 1341 c 256,68,69
 725 1341 725 1341 614 1293 c 128,-1,70
 503 1245 503 1245 420.5 1162.5 c 128,-1,71
 338 1080 338 1080 290 969 c 128,-1,72
 242 858 242 858 242 731 c 256,53,54
EndSplineSet
EndChar

StartChar: overscore
Encoding: 175 175 113
Width: 1024
GlyphClass: 2
Flags: W
LayerCount: 2
Fore
SplineSet
1030 1556 m 1,0,-1
 -6 1556 l 1,1,-1
 -6 1757 l 1,2,-1
 1030 1757 l 1,3,-1
 1030 1556 l 1,0,-1
EndSplineSet
EndChar

StartChar: degree
Encoding: 176 176 114
Width: 877
GlyphClass: 2
Flags: W
LayerCount: 2
Fore
SplineSet
92 1137 m 0,0,1
 92 1208 92 1208 119 1271 c 128,-1,2
 146 1334 146 1334 193 1381 c 128,-1,3
 240 1428 240 1428 303 1455.5 c 128,-1,4
 366 1483 366 1483 438 1483 c 256,5,6
 510 1483 510 1483 573.5 1455.5 c 128,-1,7
 637 1428 637 1428 683.5 1381 c 128,-1,8
 730 1334 730 1334 757 1271 c 128,-1,9
 784 1208 784 1208 784 1137 c 0,10,11
 784 1065 784 1065 757 1002 c 128,-1,12
 730 939 730 939 683.5 892.5 c 128,-1,13
 637 846 637 846 573.5 819.5 c 128,-1,14
 510 793 510 793 438 793 c 256,15,16
 366 793 366 793 303 819.5 c 128,-1,17
 240 846 240 846 193 892.5 c 128,-1,18
 146 939 146 939 119 1002 c 128,-1,19
 92 1065 92 1065 92 1137 c 0,0,1
283 1137 m 0,20,21
 283 1106 283 1106 295 1078 c 128,-1,22
 307 1050 307 1050 328 1029 c 128,-1,23
 349 1008 349 1008 377.5 995.5 c 128,-1,24
 406 983 406 983 438 983 c 256,25,26
 470 983 470 983 498.5 995.5 c 128,-1,27
 527 1008 527 1008 548 1029 c 128,-1,28
 569 1050 569 1050 581.5 1078 c 128,-1,29
 594 1106 594 1106 594 1137 c 0,30,31
 594 1169 594 1169 581.5 1197.5 c 128,-1,32
 569 1226 569 1226 548 1247.5 c 128,-1,33
 527 1269 527 1269 498.5 1281.5 c 128,-1,34
 470 1294 470 1294 438 1294 c 256,35,36
 406 1294 406 1294 377.5 1281.5 c 128,-1,37
 349 1269 349 1269 328 1247.5 c 128,-1,38
 307 1226 307 1226 295 1197.5 c 128,-1,39
 283 1169 283 1169 283 1137 c 0,20,21
EndSplineSet
EndChar

StartChar: plusminus
Encoding: 177 177 115
Width: 1128
GlyphClass: 2
Flags: W
LayerCount: 2
Fore
SplineSet
455 674 m 1,0,-1
 88 674 l 1,1,-1
 88 893 l 1,2,-1
 455 893 l 1,3,-1
 455 1262 l 1,4,-1
 674 1262 l 1,5,-1
 674 893 l 1,6,-1
 1040 893 l 1,7,-1
 1040 674 l 1,8,-1
 674 674 l 1,9,-1
 674 309 l 1,10,-1
 455 309 l 1,11,-1
 455 674 l 1,0,-1
88 0 m 1,12,-1
 88 219 l 1,13,-1
 1040 219 l 1,14,-1
 1040 0 l 1,15,-1
 88 0 l 1,12,-1
EndSplineSet
EndChar

StartChar: twosuperior
Encoding: 178 178 116
Width: 776
GlyphClass: 2
Flags: W
LayerCount: 2
Fore
SplineSet
702 586 m 1,0,-1
 55 586 l 1,1,-1
 55 754 l 1,2,-1
 279 973 l 2,3,4
 325 1018 325 1018 355.5 1051 c 128,-1,5
 386 1084 386 1084 404.5 1111 c 128,-1,6
 423 1138 423 1138 430.5 1161.5 c 128,-1,7
 438 1185 438 1185 438 1212 c 0,8,9
 438 1250 438 1250 414 1270 c 128,-1,10
 390 1290 390 1290 350 1290 c 256,11,12
 310 1290 310 1290 266.5 1269.5 c 128,-1,13
 223 1249 223 1249 170 1202 c 1,14,-1
 47 1354 l 1,15,16
 112 1411 112 1411 193 1447 c 128,-1,17
 274 1483 274 1483 383 1483 c 0,18,19
 449 1483 449 1483 503.5 1466.5 c 128,-1,20
 558 1450 558 1450 596.5 1418.5 c 128,-1,21
 635 1387 635 1387 656.5 1340.5 c 128,-1,22
 678 1294 678 1294 678 1233 c 0,23,24
 678 1187 678 1187 665.5 1146.5 c 128,-1,25
 653 1106 653 1106 626 1065 c 128,-1,26
 599 1024 599 1024 557 979.5 c 128,-1,27
 515 935 515 935 455 881 c 2,28,-1
 350 786 l 1,29,-1
 702 786 l 1,30,-1
 702 586 l 1,0,-1
EndSplineSet
EndChar

StartChar: threesuperior
Encoding: 179 179 117
Width: 776
GlyphClass: 2
Flags: W
LayerCount: 2
Fore
SplineSet
666 1249 m 0,0,1
 666 1180 666 1180 625.5 1130 c 128,-1,2
 585 1080 585 1080 496 1051 c 1,3,-1
 496 1038 l 1,4,5
 547 1028 547 1028 584 1007 c 128,-1,6
 621 986 621 986 645.5 958.5 c 128,-1,7
 670 931 670 931 682 898 c 128,-1,8
 694 865 694 865 694 829 c 0,9,10
 694 708 694 708 606 638.5 c 128,-1,11
 518 569 518 569 332 569 c 0,12,13
 256 569 256 569 190 586.5 c 128,-1,14
 124 604 124 604 59 639 c 1,15,-1
 59 829 l 1,16,17
 125 789 125 789 191 764 c 128,-1,18
 257 739 257 739 330 739 c 0,19,20
 404 739 404 739 438.5 766 c 128,-1,21
 473 793 473 793 473 846 c 0,22,23
 473 867 473 867 465 886 c 128,-1,24
 457 905 457 905 438 919.5 c 128,-1,25
 419 934 419 934 387 943 c 128,-1,26
 355 952 355 952 307 952 c 2,27,-1
 195 952 l 1,28,-1
 195 1112 l 1,29,-1
 287 1112 l 2,30,31
 339 1112 339 1112 371 1121 c 128,-1,32
 403 1130 403 1130 421 1145.5 c 128,-1,33
 439 1161 439 1161 445 1180.5 c 128,-1,34
 451 1200 451 1200 451 1221 c 0,35,36
 451 1259 451 1259 426 1284 c 128,-1,37
 401 1309 401 1309 350 1309 c 0,38,39
 303 1309 303 1309 261 1290 c 128,-1,40
 219 1271 219 1271 162 1231 c 1,41,-1
 61 1372 l 1,42,43
 123 1419 123 1419 198.5 1450 c 128,-1,44
 274 1481 274 1481 377 1481 c 0,45,46
 439 1481 439 1481 492 1464.5 c 128,-1,47
 545 1448 545 1448 583.5 1418 c 128,-1,48
 622 1388 622 1388 644 1345 c 128,-1,49
 666 1302 666 1302 666 1249 c 0,0,1
EndSplineSet
EndChar

StartChar: acute
Encoding: 180 180 118
Width: 1182
GlyphClass: 2
Flags: W
LayerCount: 2
Fore
SplineSet
332 1241 m 1,0,-1
 332 1268 l 1,1,2
 353 1297 353 1297 377 1335 c 128,-1,3
 401 1373 401 1373 424.5 1413.5 c 128,-1,4
 448 1454 448 1454 469 1494.5 c 128,-1,5
 490 1535 490 1535 506 1569 c 1,6,-1
 848 1569 l 1,7,-1
 848 1548 l 1,8,9
 837 1530 837 1530 816 1505.5 c 128,-1,10
 795 1481 795 1481 768 1453 c 128,-1,11
 741 1425 741 1425 710 1395.5 c 128,-1,12
 679 1366 679 1366 647.5 1338 c 128,-1,13
 616 1310 616 1310 587 1285 c 128,-1,14
 558 1260 558 1260 535 1241 c 1,15,-1
 332 1241 l 1,0,-1
EndSplineSet
EndChar

StartChar: mu
Encoding: 181 181 119
Width: 1290
GlyphClass: 2
Flags: W
LayerCount: 2
Fore
SplineSet
465 465 m 2,0,1
 465 344 465 344 502.5 283.5 c 128,-1,2
 540 223 540 223 621 223 c 0,3,4
 679 223 679 223 718 247 c 128,-1,5
 757 271 757 271 781 318 c 128,-1,6
 805 365 805 365 815 434 c 128,-1,7
 825 503 825 503 825 592 c 2,8,-1
 825 1118 l 1,9,-1
 1130 1118 l 1,10,-1
 1130 0 l 1,11,-1
 897 0 l 1,12,-1
 854 150 l 1,13,-1
 842 150 l 1,14,15
 807 65 807 65 754.5 22.5 c 128,-1,16
 702 -20 702 -20 627 -20 c 0,17,18
 573 -20 573 -20 528 3 c 128,-1,19
 483 26 483 26 455 70 c 1,20,21
 457 28 457 28 460 -15 c 0,22,23
 462 -52 462 -52 463.5 -94 c 128,-1,24
 465 -136 465 -136 465 -172 c 2,25,-1
 465 -492 l 1,26,-1
 160 -492 l 1,27,-1
 160 1118 l 1,28,-1
 465 1118 l 1,29,-1
 465 465 l 2,0,1
EndSplineSet
EndChar

StartChar: paragraph
Encoding: 182 182 120
Width: 1341
GlyphClass: 2
Flags: W
LayerCount: 2
Fore
SplineSet
1167 -260 m 1,0,-1
 1006 -260 l 1,1,-1
 1006 1356 l 1,2,-1
 840 1356 l 1,3,-1
 840 -260 l 1,4,-1
 678 -260 l 1,5,-1
 678 559 l 1,6,7
 617 541 617 541 532 541 c 0,8,9
 437 541 437 541 359.5 566.5 c 128,-1,10
 282 592 282 592 227.5 651 c 128,-1,11
 173 710 173 710 143 806 c 128,-1,12
 113 902 113 902 113 1042 c 0,13,14
 113 1189 113 1189 145.5 1287.5 c 128,-1,15
 178 1386 178 1386 237.5 1446 c 128,-1,16
 297 1506 297 1506 380 1531 c 128,-1,17
 463 1556 463 1556 563 1556 c 2,18,-1
 1167 1556 l 1,19,-1
 1167 -260 l 1,0,-1
EndSplineSet
EndChar

StartChar: periodcentered
Encoding: 183 183 121
Width: 584
GlyphClass: 2
Flags: W
LayerCount: 2
Fore
SplineSet
117 723 m 0,0,1
 117 770 117 770 130.5 802.5 c 128,-1,2
 144 835 144 835 168 855 c 128,-1,3
 192 875 192 875 224 884 c 128,-1,4
 256 893 256 893 293 893 c 0,5,6
 328 893 328 893 359.5 884 c 128,-1,7
 391 875 391 875 415 855 c 128,-1,8
 439 835 439 835 453 802.5 c 128,-1,9
 467 770 467 770 467 723 c 0,10,11
 467 678 467 678 453 645.5 c 128,-1,12
 439 613 439 613 415 592.5 c 128,-1,13
 391 572 391 572 359.5 562.5 c 128,-1,14
 328 553 328 553 293 553 c 0,15,16
 256 553 256 553 224 562.5 c 128,-1,17
 192 572 192 572 168 592.5 c 128,-1,18
 144 613 144 613 130.5 645.5 c 128,-1,19
 117 678 117 678 117 723 c 0,0,1
EndSplineSet
EndChar

StartChar: cedilla
Encoding: 184 184 122
Width: 420
GlyphClass: 2
Flags: W
LayerCount: 2
Fore
SplineSet
418 -250 m 0,0,1
 418 -307 418 -307 402.5 -352 c 128,-1,2
 387 -397 387 -397 351 -428 c 128,-1,3
 315 -459 315 -459 255.5 -475.5 c 128,-1,4
 196 -492 196 -492 109 -492 c 0,5,6
 64 -492 64 -492 28 -486 c 128,-1,7
 -8 -480 -8 -480 -37 -471 c 1,8,-1
 -37 -303 l 1,9,10
 -22 -307 -22 -307 -3.5 -310.5 c 128,-1,11
 15 -314 15 -314 34.5 -317 c 128,-1,12
 54 -320 54 -320 72.5 -322 c 128,-1,13
 91 -324 91 -324 106 -324 c 0,14,15
 135 -324 135 -324 156.5 -310.5 c 128,-1,16
 178 -297 178 -297 178 -262 c 0,17,18
 178 -225 178 -225 141 -196.5 c 128,-1,19
 104 -168 104 -168 12 -154 c 1,20,-1
 90 0 l 1,21,-1
 283 0 l 1,22,-1
 256 -61 l 1,23,24
 287 -71 287 -71 316 -88 c 128,-1,25
 345 -105 345 -105 367.5 -128.5 c 128,-1,26
 390 -152 390 -152 404 -182.5 c 128,-1,27
 418 -213 418 -213 418 -250 c 0,0,1
EndSplineSet
EndChar

StartChar: onesuperior
Encoding: 185 185 123
Width: 776
GlyphClass: 2
Flags: W
LayerCount: 2
Fore
SplineSet
584 586 m 1,0,-1
 346 586 l 1,1,-1
 346 1032 l 2,2,3
 346 1052 346 1052 346.5 1082.5 c 128,-1,4
 347 1113 347 1113 348.5 1144 c 128,-1,5
 350 1175 350 1175 351.5 1201 c 128,-1,6
 353 1227 353 1227 354 1239 c 1,7,8
 348 1231 348 1231 338.5 1220.5 c 128,-1,9
 329 1210 329 1210 318.5 1199 c 128,-1,10
 308 1188 308 1188 297.5 1178 c 128,-1,11
 287 1168 287 1168 279 1161 c 2,12,-1
 201 1100 l 1,13,-1
 92 1227 l 1,14,-1
 393 1462 l 1,15,-1
 584 1462 l 1,16,-1
 584 586 l 1,0,-1
EndSplineSet
EndChar

StartChar: ordmasculine
Encoding: 186 186 124
Width: 754
GlyphClass: 2
Flags: W
LayerCount: 2
Fore
SplineSet
696 1116 m 256,0,1
 696 1029 696 1029 673.5 961.5 c 128,-1,2
 651 894 651 894 609 847.5 c 128,-1,3
 567 801 567 801 508 776.5 c 128,-1,4
 449 752 449 752 375 752 c 0,5,6
 306 752 306 752 247.5 776.5 c 128,-1,7
 189 801 189 801 146.5 847.5 c 128,-1,8
 104 894 104 894 80.5 961.5 c 128,-1,9
 57 1029 57 1029 57 1116 c 256,10,11
 57 1203 57 1203 79.5 1270.5 c 128,-1,12
 102 1338 102 1338 143.5 1384.5 c 128,-1,13
 185 1431 185 1431 244.5 1455 c 128,-1,14
 304 1479 304 1479 379 1479 c 0,15,16
 447 1479 447 1479 504.5 1455 c 128,-1,17
 562 1431 562 1431 605 1384.5 c 128,-1,18
 648 1338 648 1338 672 1270.5 c 128,-1,19
 696 1203 696 1203 696 1116 c 256,0,1
260 1116 m 256,20,21
 260 1016 260 1016 287.5 965.5 c 128,-1,22
 315 915 315 915 377 915 c 0,23,24
 437 915 437 915 464.5 965.5 c 128,-1,25
 492 1016 492 1016 492 1116 c 256,26,27
 492 1216 492 1216 464.5 1265.5 c 128,-1,28
 437 1315 437 1315 377 1315 c 0,29,30
 315 1315 315 1315 287.5 1265.5 c 128,-1,31
 260 1216 260 1216 260 1116 c 256,20,21
EndSplineSet
EndChar

StartChar: guillemotright
Encoding: 187 187 125
Width: 1198
GlyphClass: 2
Flags: W
LayerCount: 2
Fore
SplineSet
1118 547 m 1,0,-1
 809 94 l 1,1,-1
 590 213 l 1,2,-1
 807 561 l 1,3,-1
 590 909 l 1,4,-1
 809 1028 l 1,5,-1
 1118 573 l 1,6,-1
 1118 547 l 1,0,-1
612 547 m 1,7,-1
 303 94 l 1,8,-1
 84 213 l 1,9,-1
 301 561 l 1,10,-1
 84 909 l 1,11,-1
 303 1028 l 1,12,-1
 612 573 l 1,13,-1
 612 547 l 1,7,-1
EndSplineSet
EndChar

StartChar: questiondown
Encoding: 191 191 129
Width: 940
GlyphClass: 2
Flags: W
LayerCount: 2
Fore
SplineSet
686 606 m 1,0,-1
 686 532 l 2,1,2
 686 481 686 481 675.5 439.5 c 128,-1,3
 665 398 665 398 643.5 360.5 c 128,-1,4
 622 323 622 323 588 288 c 128,-1,5
 554 253 554 253 506 215 c 0,6,7
 464 182 464 182 435 156 c 128,-1,8
 406 130 406 130 388 104.5 c 128,-1,9
 370 79 370 79 362 51 c 128,-1,10
 354 23 354 23 354 -14 c 0,11,12
 354 -71 354 -71 393 -108 c 128,-1,13
 432 -145 432 -145 510 -145 c 0,14,15
 579 -145 579 -145 659 -115.5 c 128,-1,16
 739 -86 739 -86 823 -45 c 1,17,-1
 926 -266 l 1,18,19
 883 -292 883 -292 832 -314.5 c 128,-1,20
 781 -337 781 -337 726.5 -354 c 128,-1,21
 672 -371 672 -371 616 -381 c 128,-1,22
 560 -391 560 -391 506 -391 c 0,23,24
 404 -391 404 -391 322.5 -366.5 c 128,-1,25
 241 -342 241 -342 184 -295.5 c 128,-1,26
 127 -249 127 -249 96.5 -181.5 c 128,-1,27
 66 -114 66 -114 66 -29 c 0,28,29
 66 34 66 34 79.5 83.5 c 128,-1,30
 93 133 93 133 121 175.5 c 128,-1,31
 149 218 149 218 190.5 258 c 128,-1,32
 232 298 232 298 287 342 c 0,33,34
 328 375 328 375 354.5 399.5 c 128,-1,35
 381 424 381 424 396 446 c 128,-1,36
 411 468 411 468 416.5 492 c 128,-1,37
 422 516 422 516 422 547 c 2,38,-1
 422 606 l 1,39,-1
 686 606 l 1,0,-1
719 948 m 0,40,41
 719 901 719 901 705.5 868.5 c 128,-1,42
 692 836 692 836 668 816 c 128,-1,43
 644 796 644 796 612 787 c 128,-1,44
 580 778 580 778 543 778 c 0,45,46
 508 778 508 778 476.5 787 c 128,-1,47
 445 796 445 796 421 816 c 128,-1,48
 397 836 397 836 383 868.5 c 128,-1,49
 369 901 369 901 369 948 c 0,50,51
 369 993 369 993 383 1025.5 c 128,-1,52
 397 1058 397 1058 421 1078.5 c 128,-1,53
 445 1099 445 1099 476.5 1108.5 c 128,-1,54
 508 1118 508 1118 543 1118 c 0,55,56
 580 1118 580 1118 612 1108.5 c 128,-1,57
 644 1099 644 1099 668 1078.5 c 128,-1,58
 692 1058 692 1058 705.5 1025.5 c 128,-1,59
 719 993 719 993 719 948 c 0,40,41
EndSplineSet
EndChar

StartChar: AE
Encoding: 198 198 136
Width: 1888
GlyphClass: 2
Flags: W
LayerCount: 2
Fore
SplineSet
1767 0 m 1,0,-1
 926 0 l 1,1,-1
 926 348 l 1,2,-1
 465 348 l 1,3,-1
 315 0 l 1,4,-1
 0 0 l 1,5,-1
 655 1462 l 1,6,-1
 1767 1462 l 1,7,-1
 1767 1208 l 1,8,-1
 1235 1208 l 1,9,-1
 1235 887 l 1,10,-1
 1731 887 l 1,11,-1
 1731 633 l 1,12,-1
 1235 633 l 1,13,-1
 1235 256 l 1,14,-1
 1767 256 l 1,15,-1
 1767 0 l 1,0,-1
578 608 m 1,16,-1
 926 608 l 1,17,-1
 926 1198 l 1,18,-1
 829 1198 l 1,19,-1
 578 608 l 1,16,-1
EndSplineSet
EndChar

StartChar: Eth
Encoding: 208 208 146
Width: 1434
GlyphClass: 2
Flags: W
LayerCount: 2
Fore
SplineSet
47 850 m 1,0,-1
 184 850 l 1,1,-1
 184 1462 l 1,2,-1
 612 1462 l 2,3,4
 773 1462 773 1462 902.5 1416 c 128,-1,5
 1032 1370 1032 1370 1124 1279.5 c 128,-1,6
 1216 1189 1216 1189 1265.5 1055 c 128,-1,7
 1315 921 1315 921 1315 745 c 0,8,9
 1315 560 1315 560 1264.5 420.5 c 128,-1,10
 1214 281 1214 281 1118.5 187.5 c 128,-1,11
 1023 94 1023 94 884.5 47 c 128,-1,12
 746 0 746 0 569 0 c 2,13,-1
 184 0 l 1,14,-1
 184 596 l 1,15,-1
 47 596 l 1,16,-1
 47 850 l 1,0,-1
1001 737 m 0,17,18
 1001 859 1001 859 976.5 947.5 c 128,-1,19
 952 1036 952 1036 905.5 1094 c 128,-1,20
 859 1152 859 1152 791.5 1180 c 128,-1,21
 724 1208 724 1208 637 1208 c 2,22,-1
 494 1208 l 1,23,-1
 494 850 l 1,24,-1
 731 850 l 1,25,-1
 731 596 l 1,26,-1
 494 596 l 1,27,-1
 494 256 l 1,28,-1
 608 256 l 2,29,30
 804 256 804 256 902.5 376 c 128,-1,31
 1001 496 1001 496 1001 737 c 0,17,18
EndSplineSet
EndChar

StartChar: multiply
Encoding: 215 215 153
Width: 1128
GlyphClass: 2
Flags: W
LayerCount: 2
Fore
SplineSet
408 723 m 1,0,-1
 109 1024 l 1,1,-1
 260 1178 l 1,2,-1
 561 879 l 1,3,-1
 866 1178 l 1,4,-1
 1020 1028 l 1,5,-1
 715 723 l 1,6,-1
 1016 420 l 1,7,-1
 866 268 l 1,8,-1
 561 569 l 1,9,-1
 260 270 l 1,10,-1
 111 422 l 1,11,-1
 408 723 l 1,0,-1
EndSplineSet
EndChar

StartChar: Oslash
Encoding: 216 216 154
Width: 1548
GlyphClass: 2
Flags: W
LayerCount: 2
Fore
SplineSet
1430 733 m 0,0,1
 1430 564 1430 564 1390.5 425 c 128,-1,2
 1351 286 1351 286 1270 187 c 128,-1,3
 1189 88 1189 88 1065.5 34 c 128,-1,4
 942 -20 942 -20 774 -20 c 0,5,6
 595 -20 595 -20 467 41 c 1,7,-1
 395 -76 l 1,8,-1
 227 18 l 1,9,-1
 309 152 l 1,10,11
 212 252 212 252 165.5 400 c 128,-1,12
 119 548 119 548 119 735 c 0,13,14
 119 905 119 905 158.5 1043.5 c 128,-1,15
 198 1182 198 1182 279 1280 c 128,-1,16
 360 1378 360 1378 483.5 1431.5 c 128,-1,17
 607 1485 607 1485 776 1485 c 0,18,19
 867 1485 867 1485 944.5 1468.5 c 128,-1,20
 1022 1452 1022 1452 1087 1421 c 1,21,-1
 1157 1532 l 1,22,-1
 1323 1436 l 1,23,-1
 1243 1307 l 1,24,25
 1337 1208 1337 1208 1383.5 1062.5 c 128,-1,26
 1430 917 1430 917 1430 733 c 0,0,1
438 733 m 0,27,28
 438 553 438 553 485 438 c 1,29,-1
 942 1184 l 1,30,31
 873 1227 873 1227 776 1227 c 0,32,33
 689 1227 689 1227 625 1193 c 128,-1,34
 561 1159 561 1159 519.5 1095 c 128,-1,35
 478 1031 478 1031 458 939.5 c 128,-1,36
 438 848 438 848 438 733 c 0,27,28
1110 733 m 0,37,38
 1110 904 1110 904 1067 1020 c 1,39,-1
 612 279 l 1,40,41
 646 260 646 260 686 250 c 128,-1,42
 726 240 726 240 774 240 c 0,43,44
 863 240 863 240 926.5 274 c 128,-1,45
 990 308 990 308 1030.5 371.5 c 128,-1,46
 1071 435 1071 435 1090.5 526.5 c 128,-1,47
 1110 618 1110 618 1110 733 c 0,37,38
EndSplineSet
EndChar

StartChar: Thorn
Encoding: 222 222 160
Width: 1225
GlyphClass: 2
Flags: W
LayerCount: 2
Fore
SplineSet
1133 770 m 0,0,1
 1133 676 1133 676 1107.5 590 c 128,-1,2
 1082 504 1082 504 1023.5 438 c 128,-1,3
 965 372 965 372 869.5 332.5 c 128,-1,4
 774 293 774 293 633 293 c 2,5,-1
 494 293 l 1,6,-1
 494 0 l 1,7,-1
 184 0 l 1,8,-1
 184 1462 l 1,9,-1
 494 1462 l 1,10,-1
 494 1233 l 1,11,-1
 655 1233 l 2,12,13
 779 1233 779 1233 869 1200 c 128,-1,14
 959 1167 959 1167 1017.5 1106.5 c 128,-1,15
 1076 1046 1076 1046 1104.5 960.5 c 128,-1,16
 1133 875 1133 875 1133 770 c 0,0,1
494 543 m 1,17,-1
 578 543 l 2,18,19
 699 543 699 543 759 595.5 c 128,-1,20
 819 648 819 648 819 770 c 0,21,22
 819 878 819 878 766 929.5 c 128,-1,23
 713 981 713 981 598 981 c 2,24,-1
 494 981 l 1,25,-1
 494 543 l 1,17,-1
EndSplineSet
EndChar

StartChar: germandbls
Encoding: 223 223 161
Width: 1395
GlyphClass: 2
Flags: W
LayerCount: 2
Fore
SplineSet
1188 1241 m 0,0,1
 1188 1177 1188 1177 1166.5 1128.5 c 128,-1,2
 1145 1080 1145 1080 1113.5 1042 c 128,-1,3
 1082 1004 1082 1004 1044.5 975 c 128,-1,4
 1007 946 1007 946 975.5 922 c 128,-1,5
 944 898 944 898 922.5 877 c 128,-1,6
 901 856 901 856 901 834 c 0,7,8
 901 814 901 814 913.5 797 c 128,-1,9
 926 780 926 780 952.5 760 c 128,-1,10
 979 740 979 740 1020 714.5 c 128,-1,11
 1061 689 1061 689 1118 651 c 1,12,13
 1167 620 1167 620 1205 587.5 c 128,-1,14
 1243 555 1243 555 1269.5 516.5 c 128,-1,15
 1296 478 1296 478 1309.5 432 c 128,-1,16
 1323 386 1323 386 1323 326 c 0,17,18
 1323 154 1323 154 1206 67 c 128,-1,19
 1089 -20 1089 -20 862 -20 c 0,20,21
 764 -20 764 -20 691.5 -5.5 c 128,-1,22
 619 9 619 9 559 43 c 1,23,-1
 559 285 l 1,24,25
 583 269 583 269 617.5 253.5 c 128,-1,26
 652 238 652 238 690 226 c 128,-1,27
 728 214 728 214 768 206.5 c 128,-1,28
 808 199 808 199 842 199 c 0,29,30
 922 199 922 199 966 229.5 c 128,-1,31
 1010 260 1010 260 1010 322 c 0,32,33
 1010 349 1010 349 1003 370 c 128,-1,34
 996 391 996 391 975.5 412 c 128,-1,35
 955 433 955 433 918 457.5 c 128,-1,36
 881 482 881 482 821 516 c 0,37,38
 758 552 758 552 715.5 584 c 128,-1,39
 673 616 673 616 646.5 647.5 c 128,-1,40
 620 679 620 679 609 713.5 c 128,-1,41
 598 748 598 748 598 788 c 0,42,43
 598 841 598 841 618.5 880 c 128,-1,44
 639 919 639 919 670 950 c 128,-1,45
 701 981 701 981 737.5 1007 c 128,-1,46
 774 1033 774 1033 805 1059.5 c 128,-1,47
 836 1086 836 1086 856.5 1117 c 128,-1,48
 877 1148 877 1148 877 1188 c 0,49,50
 877 1251 877 1251 827 1290 c 128,-1,51
 777 1329 777 1329 680 1329 c 0,52,53
 572 1329 572 1329 518.5 1280.5 c 128,-1,54
 465 1232 465 1232 465 1128 c 2,55,-1
 465 0 l 1,56,-1
 160 0 l 1,57,-1
 160 1139 l 2,58,59
 160 1248 160 1248 197 1328.5 c 128,-1,60
 234 1409 234 1409 302.5 1462 c 128,-1,61
 371 1515 371 1515 467 1541 c 128,-1,62
 563 1567 563 1567 680 1567 c 0,63,64
 795 1567 795 1567 889 1545.5 c 128,-1,65
 983 1524 983 1524 1049.5 1482.5 c 128,-1,66
 1116 1441 1116 1441 1152 1380 c 128,-1,67
 1188 1319 1188 1319 1188 1241 c 0,0,1
EndSplineSet
EndChar

StartChar: ae
Encoding: 230 230 168
Width: 1806
GlyphClass: 2
Flags: W
LayerCount: 2
Fore
SplineSet
1268 -20 m 0,0,1
 1137 -20 1137 -20 1030 30.5 c 128,-1,2
 923 81 923 81 854 186 c 1,3,4
 811 132 811 132 769 93.5 c 128,-1,5
 727 55 727 55 678 29.5 c 128,-1,6
 629 4 629 4 567.5 -8 c 128,-1,7
 506 -20 506 -20 424 -20 c 0,8,9
 356 -20 356 -20 294.5 1.5 c 128,-1,10
 233 23 233 23 186.5 66.5 c 128,-1,11
 140 110 140 110 113 176.5 c 128,-1,12
 86 243 86 243 86 334 c 0,13,14
 86 512 86 512 200 596.5 c 128,-1,15
 314 681 314 681 541 690 c 1,16,-1
 719 696 l 1,17,-1
 719 780 l 2,18,19
 719 849 719 849 679 882 c 128,-1,20
 639 915 639 915 567 915 c 256,21,22
 495 915 495 915 426.5 894 c 128,-1,23
 358 873 358 873 289 838 c 1,24,-1
 190 1040 l 1,25,26
 274 1087 274 1087 376 1114 c 128,-1,27
 478 1141 478 1141 590 1141 c 0,28,29
 804 1141 804 1141 913 1010 c 1,30,31
 1039 1139 1039 1139 1227 1139 c 0,32,33
 1338 1139 1338 1139 1427.5 1105.5 c 128,-1,34
 1517 1072 1517 1072 1579 1007 c 128,-1,35
 1641 942 1641 942 1674.5 847.5 c 128,-1,36
 1708 753 1708 753 1708 631 c 2,37,-1
 1708 483 l 1,38,-1
 1026 483 l 1,39,40
 1028 419 1028 419 1046.5 367.5 c 128,-1,41
 1065 316 1065 316 1098.5 280.5 c 128,-1,42
 1132 245 1132 245 1179.5 226 c 128,-1,43
 1227 207 1227 207 1288 207 c 0,44,45
 1382 207 1382 207 1469.5 228.5 c 128,-1,46
 1557 250 1557 250 1645 295 c 1,47,-1
 1645 59 l 1,48,49
 1605 38 1605 38 1564.5 23.5 c 128,-1,50
 1524 9 1524 9 1479 -1 c 128,-1,51
 1434 -11 1434 -11 1382 -15.5 c 128,-1,52
 1330 -20 1330 -20 1268 -20 c 0,0,1
719 518 m 1,53,-1
 618 514 l 2,54,55
 557 512 557 512 515 498 c 128,-1,56
 473 484 473 484 447.5 460.5 c 128,-1,57
 422 437 422 437 410.5 404.5 c 128,-1,58
 399 372 399 372 399 332 c 0,59,60
 399 262 399 262 433 232.5 c 128,-1,61
 467 203 467 203 522 203 c 0,62,63
 564 203 564 203 600 217.5 c 128,-1,64
 636 232 636 232 662.5 260.5 c 128,-1,65
 689 289 689 289 704 330.5 c 128,-1,66
 719 372 719 372 719 426 c 2,67,-1
 719 518 l 1,53,-1
1229 922 m 0,68,69
 1147 922 1147 922 1093.5 865 c 128,-1,70
 1040 808 1040 808 1032 686 c 1,71,-1
 1421 686 l 1,72,73
 1420 737 1420 737 1408 780 c 128,-1,74
 1396 823 1396 823 1372.5 854.5 c 128,-1,75
 1349 886 1349 886 1313 904 c 128,-1,76
 1277 922 1277 922 1229 922 c 0,68,69
EndSplineSet
EndChar

StartChar: eth
Encoding: 240 240 178
Width: 1182
GlyphClass: 2
Flags: W
LayerCount: 2
Fore
SplineSet
457 1309 m 1,0,1
 423 1330 423 1330 384 1354 c 128,-1,2
 345 1378 345 1378 303 1401 c 1,3,-1
 399 1571 l 1,4,5
 472 1537 472 1537 536 1502.5 c 128,-1,6
 600 1468 600 1468 657 1430 c 1,7,-1
 883 1569 l 1,8,-1
 983 1415 l 1,9,-1
 809 1309 l 1,10,11
 881 1240 881 1240 935 1162 c 128,-1,12
 989 1084 989 1084 1024.5 993 c 128,-1,13
 1060 902 1060 902 1078 798 c 128,-1,14
 1096 694 1096 694 1096 573 c 0,15,16
 1096 431 1096 431 1060 321 c 128,-1,17
 1024 211 1024 211 957 135 c 128,-1,18
 890 59 890 59 795 19.5 c 128,-1,19
 700 -20 700 -20 582 -20 c 0,20,21
 471 -20 471 -20 378 14 c 128,-1,22
 285 48 285 48 217.5 113 c 128,-1,23
 150 178 150 178 112 272.5 c 128,-1,24
 74 367 74 367 74 489 c 256,25,26
 74 611 74 611 106.5 705 c 128,-1,27
 139 799 139 799 197.5 863.5 c 128,-1,28
 256 928 256 928 337.5 961.5 c 128,-1,29
 419 995 419 995 516 995 c 0,30,31
 612 995 612 995 680 963.5 c 128,-1,32
 748 932 748 932 780 883 c 1,33,-1
 801 885 l 1,34,35
 773 973 773 973 722.5 1050.5 c 128,-1,36
 672 1128 672 1128 606 1184 c 1,37,-1
 375 1040 l 1,38,-1
 274 1196 l 1,39,-1
 457 1309 l 1,0,1
784 532 m 0,40,41
 784 579 784 579 772.5 622 c 128,-1,42
 761 665 761 665 736.5 698 c 128,-1,43
 712 731 712 731 674.5 750.5 c 128,-1,44
 637 770 637 770 586 770 c 0,45,46
 478 770 478 770 431.5 699.5 c 128,-1,47
 385 629 385 629 385 487 c 0,48,49
 385 424 385 424 396.5 372 c 128,-1,50
 408 320 408 320 432.5 283 c 128,-1,51
 457 246 457 246 495 225.5 c 128,-1,52
 533 205 533 205 586 205 c 0,53,54
 692 205 692 205 738 286.5 c 128,-1,55
 784 368 784 368 784 532 c 0,40,41
EndSplineSet
EndChar

StartChar: divide
Encoding: 247 247 185
Width: 1128
GlyphClass: 2
Flags: W
LayerCount: 2
Fore
SplineSet
88 612 m 1,0,-1
 88 831 l 1,1,-1
 1040 831 l 1,2,-1
 1040 612 l 1,3,-1
 88 612 l 1,0,-1
424 373 m 0,4,5
 424 415 424 415 435 444 c 128,-1,6
 446 473 446 473 465 490.5 c 128,-1,7
 484 508 484 508 509.5 516 c 128,-1,8
 535 524 535 524 563 524 c 256,9,10
 591 524 591 524 616 516 c 128,-1,11
 641 508 641 508 660 490.5 c 128,-1,12
 679 473 679 473 690.5 444 c 128,-1,13
 702 415 702 415 702 373 c 0,14,15
 702 333 702 333 690.5 304 c 128,-1,16
 679 275 679 275 660 256.5 c 128,-1,17
 641 238 641 238 616 229.5 c 128,-1,18
 591 221 591 221 563 221 c 256,19,20
 535 221 535 221 509.5 229.5 c 128,-1,21
 484 238 484 238 465 256.5 c 128,-1,22
 446 275 446 275 435 304 c 128,-1,23
 424 333 424 333 424 373 c 0,4,5
424 1071 m 0,24,25
 424 1113 424 1113 435 1142 c 128,-1,26
 446 1171 446 1171 465 1189 c 128,-1,27
 484 1207 484 1207 509.5 1215 c 128,-1,28
 535 1223 535 1223 563 1223 c 256,29,30
 591 1223 591 1223 616 1215 c 128,-1,31
 641 1207 641 1207 660 1189 c 128,-1,32
 679 1171 679 1171 690.5 1142 c 128,-1,33
 702 1113 702 1113 702 1071 c 0,34,35
 702 1031 702 1031 690.5 1002.5 c 128,-1,36
 679 974 679 974 660 955.5 c 128,-1,37
 641 937 641 937 616 928.5 c 128,-1,38
 591 920 591 920 563 920 c 256,39,40
 535 920 535 920 509.5 928.5 c 128,-1,41
 484 937 484 937 465 955.5 c 128,-1,42
 446 974 446 974 435 1002.5 c 128,-1,43
 424 1031 424 1031 424 1071 c 0,24,25
EndSplineSet
EndChar

StartChar: oslash
Encoding: 248 248 186
Width: 1227
GlyphClass: 2
Flags: W
LayerCount: 2
Fore
SplineSet
1124 561 m 0,0,1
 1124 421 1124 421 1088.5 313 c 128,-1,2
 1053 205 1053 205 986.5 131 c 128,-1,3
 920 57 920 57 824.5 18.5 c 128,-1,4
 729 -20 729 -20 610 -20 c 0,5,6
 553 -20 553 -20 501 -10 c 128,-1,7
 449 0 449 0 401 18 c 1,8,-1
 344 -76 l 1,9,-1
 182 14 l 1,10,-1
 250 125 l 1,11,12
 181 199 181 199 141.5 308.5 c 128,-1,13
 102 418 102 418 102 561 c 0,14,15
 102 700 102 700 137.5 808 c 128,-1,16
 173 916 173 916 239.5 989.5 c 128,-1,17
 306 1063 306 1063 401 1101 c 128,-1,18
 496 1139 496 1139 616 1139 c 0,19,20
 678 1139 678 1139 735.5 1126 c 128,-1,21
 793 1113 793 1113 844 1090 c 1,22,-1
 893 1169 l 1,23,-1
 1053 1073 l 1,24,-1
 991 975 l 1,25,26
 1054 903 1054 903 1089 798.5 c 128,-1,27
 1124 694 1124 694 1124 561 c 0,0,1
414 561 m 0,28,29
 414 475 414 475 426 410 c 1,30,-1
 709 868 l 1,31,32
 669 893 669 893 612 893 c 0,33,34
 507 893 507 893 460.5 810.5 c 128,-1,35
 414 728 414 728 414 561 c 0,28,29
813 561 m 0,36,37
 813 625 813 625 807 674 c 1,38,-1
 539 240 l 1,39,40
 556 232 556 232 574.5 228.5 c 128,-1,41
 593 225 593 225 614 225 c 0,42,43
 719 225 719 225 766 310 c 128,-1,44
 813 395 813 395 813 561 c 0,36,37
EndSplineSet
EndChar

StartChar: thorn
Encoding: 254 254 192
Width: 1245
GlyphClass: 2
Flags: W
LayerCount: 2
Fore
SplineSet
465 973 m 1,0,1
 485 1008 485 1008 512.5 1038 c 128,-1,2
 540 1068 540 1068 576 1090.5 c 128,-1,3
 612 1113 612 1113 656.5 1126 c 128,-1,4
 701 1139 701 1139 756 1139 c 0,5,6
 842 1139 842 1139 913 1102 c 128,-1,7
 984 1065 984 1065 1035 992 c 128,-1,8
 1086 919 1086 919 1114.5 811 c 128,-1,9
 1143 703 1143 703 1143 561 c 0,10,11
 1143 418 1143 418 1115 309.5 c 128,-1,12
 1087 201 1087 201 1036 127.5 c 128,-1,13
 985 54 985 54 914 17 c 128,-1,14
 843 -20 843 -20 756 -20 c 0,15,16
 701 -20 701 -20 656 -9.5 c 128,-1,17
 611 1 611 1 575.5 20 c 128,-1,18
 540 39 540 39 513 64 c 128,-1,19
 486 89 486 89 465 117 c 1,20,-1
 451 117 l 1,21,22
 454 85 454 85 458 55 c 0,23,24
 461 29 461 29 463 3 c 128,-1,25
 465 -23 465 -23 465 -39 c 2,26,-1
 465 -492 l 1,27,-1
 160 -492 l 1,28,-1
 160 1556 l 1,29,-1
 465 1556 l 1,30,-1
 465 1165 l 2,31,32
 465 1141 465 1141 463 1108 c 128,-1,33
 461 1075 461 1075 458 1045 c 0,34,35
 454 1010 454 1010 451 973 c 1,36,-1
 465 973 l 1,0,1
653 895 m 0,37,38
 602 895 602 895 566.5 876.5 c 128,-1,39
 531 858 531 858 509 821 c 128,-1,40
 487 784 487 784 477 727.5 c 128,-1,41
 467 671 467 671 465 596 c 1,42,-1
 465 563 l 2,43,44
 465 482 465 482 474.5 419 c 128,-1,45
 484 356 484 356 506 313.5 c 128,-1,46
 528 271 528 271 564.5 249 c 128,-1,47
 601 227 601 227 655 227 c 0,48,49
 746 227 746 227 788.5 313.5 c 128,-1,50
 831 400 831 400 831 565 c 256,51,52
 831 730 831 730 788.5 812.5 c 128,-1,53
 746 895 746 895 653 895 c 0,37,38
EndSplineSet
EndChar

StartChar: dcroat
Encoding: 273 273 211
Width: 1245
GlyphClass: 2
Flags: W
LayerCount: 2
Fore
SplineSet
489 -20 m 0,0,1
 403 -20 403 -20 332 15 c 128,-1,2
 261 50 261 50 210 119 c 128,-1,3
 159 188 159 188 130.5 290 c 128,-1,4
 102 392 102 392 102 526 c 0,5,6
 102 662 102 662 130.5 765 c 128,-1,7
 159 868 159 868 211.5 937.5 c 128,-1,8
 264 1007 264 1007 337 1042 c 128,-1,9
 410 1077 410 1077 498 1077 c 0,10,11
 552 1077 552 1077 597 1064.5 c 128,-1,12
 642 1052 642 1052 678 1030 c 128,-1,13
 714 1008 714 1008 742.5 978 c 128,-1,14
 771 948 771 948 793 913 c 1,15,-1
 803 913 l 1,16,17
 797 953 797 953 792 993 c 0,18,19
 787 1028 787 1028 783.5 1068.5 c 128,-1,20
 780 1109 780 1109 780 1145 c 2,21,-1
 780 1196 l 1,22,-1
 465 1196 l 1,23,-1
 465 1395 l 1,24,-1
 780 1395 l 1,25,-1
 780 1556 l 1,26,-1
 1085 1556 l 1,27,-1
 1085 1395 l 1,28,-1
 1241 1395 l 1,29,-1
 1241 1196 l 1,30,-1
 1085 1196 l 1,31,-1
 1085 0 l 1,32,-1
 852 0 l 1,33,-1
 793 145 l 1,34,-1
 780 145 l 1,35,36
 759 111 759 111 732 80.5 c 128,-1,37
 705 50 705 50 669.5 28 c 128,-1,38
 634 6 634 6 589.5 -7 c 128,-1,39
 545 -20 545 -20 489 -20 c 0,0,1
612 223 m 0,40,41
 664 223 664 223 699.5 240 c 128,-1,42
 735 257 735 257 757 291 c 128,-1,43
 779 325 779 325 789.5 376 c 128,-1,44
 800 427 800 427 801 496 c 1,45,-1
 801 524 l 2,46,47
 801 598 801 598 791.5 655 c 128,-1,48
 782 712 782 712 760 750.5 c 128,-1,49
 738 789 738 789 701.5 809 c 128,-1,50
 665 829 665 829 610 829 c 0,51,52
 519 829 519 829 476.5 750.5 c 128,-1,53
 434 672 434 672 434 522 c 0,54,55
 434 373 434 373 476.5 298 c 128,-1,56
 519 223 519 223 612 223 c 0,40,41
EndSplineSet
EndChar

StartChar: Hbar
Encoding: 294 294 232
Width: 1485
GlyphClass: 2
Flags: W
LayerCount: 2
Fore
SplineSet
1485 1268 m 1,0,-1
 1485 1069 l 1,1,-1
 1300 1069 l 1,2,-1
 1300 0 l 1,3,-1
 991 0 l 1,4,-1
 991 631 l 1,5,-1
 494 631 l 1,6,-1
 494 0 l 1,7,-1
 184 0 l 1,8,-1
 184 1069 l 1,9,-1
 0 1069 l 1,10,-1
 0 1268 l 1,11,-1
 184 1268 l 1,12,-1
 184 1462 l 1,13,-1
 494 1462 l 1,14,-1
 494 1268 l 1,15,-1
 991 1268 l 1,16,-1
 991 1462 l 1,17,-1
 1300 1462 l 1,18,-1
 1300 1268 l 1,19,-1
 1485 1268 l 1,0,-1
991 889 m 1,20,-1
 991 1069 l 1,21,-1
 494 1069 l 1,22,-1
 494 889 l 1,23,-1
 991 889 l 1,20,-1
EndSplineSet
EndChar

StartChar: hbar
Encoding: 295 295 233
Width: 1284
GlyphClass: 2
Flags: W
LayerCount: 2
Fore
SplineSet
1130 0 m 1,0,-1
 825 0 l 1,1,-1
 825 592 l 2,2,3
 825 713 825 713 787.5 773.5 c 128,-1,4
 750 834 750 834 672 834 c 0,5,6
 613 834 613 834 573 809.5 c 128,-1,7
 533 785 533 785 509 738 c 128,-1,8
 485 691 485 691 475 622.5 c 128,-1,9
 465 554 465 554 465 465 c 2,10,-1
 465 0 l 1,11,-1
 160 0 l 1,12,-1
 160 1196 l 1,13,-1
 4 1196 l 1,14,-1
 4 1395 l 1,15,-1
 160 1395 l 1,16,-1
 160 1556 l 1,17,-1
 465 1556 l 1,18,-1
 465 1395 l 1,19,-1
 780 1395 l 1,20,-1
 780 1196 l 1,21,-1
 465 1196 l 1,22,-1
 465 1178 l 2,23,24
 465 1136 465 1136 463 1089.5 c 128,-1,25
 461 1043 461 1043 458 1004 c 2,26,-1
 451 913 l 1,27,-1
 467 913 l 1,28,29
 516 1000 516 1000 592 1038.5 c 128,-1,30
 668 1077 668 1077 764 1077 c 0,31,32
 847 1077 847 1077 914.5 1053.5 c 128,-1,33
 982 1030 982 1030 1030 980 c 128,-1,34
 1078 930 1078 930 1104 852.5 c 128,-1,35
 1130 775 1130 775 1130 668 c 2,36,-1
 1130 0 l 1,0,-1
EndSplineSet
EndChar

StartChar: dotlessi
Encoding: 305 305 243
Width: 625
GlyphClass: 2
Flags: W
LayerCount: 2
Fore
SplineSet
465 0 m 1,0,-1
 160 0 l 1,1,-1
 160 1118 l 1,2,-1
 465 1118 l 1,3,-1
 465 0 l 1,0,-1
EndSplineSet
EndChar

StartChar: kgreenlandic
Encoding: 312 312 250
Width: 1208
GlyphClass: 2
Flags: W
LayerCount: 2
Fore
SplineSet
453 565 m 1,0,-1
 580 760 l 1,1,-1
 856 1118 l 1,2,-1
 1182 1118 l 1,3,-1
 778 621 l 1,4,-1
 1208 0 l 1,5,-1
 864 0 l 1,6,-1
 584 418 l 1,7,-1
 465 336 l 1,8,-1
 465 0 l 1,9,-1
 160 0 l 1,10,-1
 160 1118 l 1,11,-1
 465 1118 l 1,12,-1
 465 825 l 2,13,14
 465 785 465 785 462.5 739.5 c 128,-1,15
 460 694 460 694 457 655 c 0,16,17
 453 609 453 609 449 565 c 1,18,-1
 453 565 l 1,0,-1
EndSplineSet
EndChar

StartChar: Lslash
Encoding: 321 321 259
Width: 1096
GlyphClass: 2
Flags: W
LayerCount: 2
Fore
SplineSet
184 0 m 1,0,-1
 184 492 l 1,1,-1
 115 451 l 1,2,-1
 2 647 l 1,3,-1
 184 758 l 1,4,-1
 184 1462 l 1,5,-1
 494 1462 l 1,6,-1
 494 946 l 1,7,-1
 637 1034 l 1,8,-1
 754 838 l 1,9,-1
 494 680 l 1,10,-1
 494 256 l 1,11,-1
 1026 256 l 1,12,-1
 1026 0 l 1,13,-1
 184 0 l 1,0,-1
EndSplineSet
EndChar

StartChar: lslash
Encoding: 322 322 260
Width: 676
GlyphClass: 2
Flags: W
LayerCount: 2
Fore
SplineSet
489 930 m 1,0,-1
 559 973 l 1,1,-1
 676 776 l 1,2,-1
 489 664 l 1,3,-1
 489 0 l 1,4,-1
 184 0 l 1,5,-1
 184 477 l 1,6,-1
 113 434 l 1,7,-1
 0 631 l 1,8,-1
 184 743 l 1,9,-1
 184 1556 l 1,10,-1
 489 1556 l 1,11,-1
 489 930 l 1,0,-1
EndSplineSet
EndChar

StartChar: Eng
Encoding: 330 330 268
Width: 1567
GlyphClass: 2
Flags: W
LayerCount: 2
Fore
SplineSet
936 -430 m 0,0,1
 871 -430 871 -430 822 -423.5 c 128,-1,2
 773 -417 773 -417 739 -408 c 1,3,-1
 739 -150 l 1,4,5
 776 -158 776 -158 816.5 -164 c 128,-1,6
 857 -170 857 -170 905 -170 c 0,7,8
 947 -170 947 -170 987 -162 c 128,-1,9
 1027 -154 1027 -154 1059 -134 c 128,-1,10
 1091 -114 1091 -114 1113 -80.5 c 128,-1,11
 1135 -47 1135 -47 1141 4 c 1,12,-1
 432 1106 l 1,13,-1
 424 1106 l 1,14,15
 429 1029 429 1029 433 953 c 0,16,17
 437 888 437 888 439.5 816.5 c 128,-1,18
 442 745 442 745 442 688 c 2,19,-1
 442 0 l 1,20,-1
 166 0 l 1,21,-1
 166 1462 l 1,22,-1
 557 1462 l 1,23,-1
 1130 571 l 1,24,-1
 1137 571 l 1,25,26
 1134 648 1134 648 1130 722 c 0,27,28
 1129 754 1129 754 1127.5 787.5 c 128,-1,29
 1126 821 1126 821 1124.5 854.5 c 128,-1,30
 1123 888 1123 888 1122.5 919 c 128,-1,31
 1122 950 1122 950 1122 975 c 2,32,-1
 1122 1462 l 1,33,-1
 1401 1462 l 1,34,-1
 1401 0 l 2,35,36
 1401 -111 1401 -111 1367 -192.5 c 128,-1,37
 1333 -274 1333 -274 1272 -326.5 c 128,-1,38
 1211 -379 1211 -379 1125.5 -404.5 c 128,-1,39
 1040 -430 1040 -430 936 -430 c 0,0,1
EndSplineSet
EndChar

StartChar: eng
Encoding: 331 331 269
Width: 1284
GlyphClass: 2
Flags: W
LayerCount: 2
Fore
SplineSet
768 -492 m 0,0,1
 720 -492 720 -492 669 -485 c 128,-1,2
 618 -478 618 -478 584 -467 c 1,3,-1
 584 -227 l 1,4,5
 615 -237 615 -237 641.5 -241.5 c 128,-1,6
 668 -246 668 -246 702 -246 c 0,7,8
 728 -246 728 -246 750 -238.5 c 128,-1,9
 772 -231 772 -231 789 -211.5 c 128,-1,10
 806 -192 806 -192 815.5 -159.5 c 128,-1,11
 825 -127 825 -127 825 -76 c 2,12,-1
 825 676 l 2,13,14
 825 785 825 785 786 840 c 128,-1,15
 747 895 747 895 672 895 c 0,16,17
 612 895 612 895 572 871 c 128,-1,18
 532 847 532 847 508.5 800 c 128,-1,19
 485 753 485 753 475 684 c 128,-1,20
 465 615 465 615 465 526 c 2,21,-1
 465 0 l 1,22,-1
 160 0 l 1,23,-1
 160 1118 l 1,24,-1
 393 1118 l 1,25,-1
 434 975 l 1,26,-1
 451 975 l 1,27,28
 475 1018 475 1018 509.5 1049 c 128,-1,29
 544 1080 544 1080 585 1100 c 128,-1,30
 626 1120 626 1120 672 1129.5 c 128,-1,31
 718 1139 718 1139 766 1139 c 0,32,33
 848 1139 848 1139 915 1115.5 c 128,-1,34
 982 1092 982 1092 1030 1042 c 128,-1,35
 1078 992 1078 992 1104 914.5 c 128,-1,36
 1130 837 1130 837 1130 729 c 2,37,-1
 1130 -121 l 2,38,39
 1130 -198 1130 -198 1110.5 -265.5 c 128,-1,40
 1091 -333 1091 -333 1047.5 -383.5 c 128,-1,41
 1004 -434 1004 -434 935 -463 c 128,-1,42
 866 -492 866 -492 768 -492 c 0,0,1
EndSplineSet
EndChar

StartChar: OE
Encoding: 338 338 276
Width: 1931
GlyphClass: 2
Flags: W
LayerCount: 2
Fore
SplineSet
1810 0 m 1,0,-1
 969 0 l 1,1,2
 924 -9 924 -9 875.5 -14.5 c 128,-1,3
 827 -20 827 -20 774 -20 c 0,4,5
 606 -20 606 -20 482.5 34 c 128,-1,6
 359 88 359 88 278.5 187 c 128,-1,7
 198 286 198 286 158.5 425.5 c 128,-1,8
 119 565 119 565 119 735 c 256,9,10
 119 905 119 905 158.5 1043.5 c 128,-1,11
 198 1182 198 1182 279 1280 c 128,-1,12
 360 1378 360 1378 483.5 1431.5 c 128,-1,13
 607 1485 607 1485 776 1485 c 0,14,15
 830 1485 830 1485 879 1479 c 128,-1,16
 928 1473 928 1473 973 1462 c 1,17,-1
 1810 1462 l 1,18,-1
 1810 1208 l 1,19,-1
 1278 1208 l 1,20,-1
 1278 887 l 1,21,-1
 1774 887 l 1,22,-1
 1774 633 l 1,23,-1
 1278 633 l 1,24,-1
 1278 256 l 1,25,-1
 1810 256 l 1,26,-1
 1810 0 l 1,0,-1
776 1227 m 0,27,28
 689 1227 689 1227 625 1193 c 128,-1,29
 561 1159 561 1159 519.5 1095 c 128,-1,30
 478 1031 478 1031 458 939.5 c 128,-1,31
 438 848 438 848 438 733 c 256,32,33
 438 618 438 618 458 526.5 c 128,-1,34
 478 435 478 435 519.5 371.5 c 128,-1,35
 561 308 561 308 624 274 c 128,-1,36
 687 240 687 240 774 240 c 0,37,38
 834 240 834 240 882.5 250 c 128,-1,39
 931 260 931 260 969 279 c 1,40,-1
 969 1186 l 1,41,42
 932 1206 932 1206 884 1216.5 c 128,-1,43
 836 1227 836 1227 776 1227 c 0,27,28
EndSplineSet
EndChar

StartChar: oe
Encoding: 339 339 277
Width: 1901
GlyphClass: 2
Flags: W
LayerCount: 2
Fore
SplineSet
1362 -20 m 0,0,1
 1243 -20 1243 -20 1143 17.5 c 128,-1,2
 1043 55 1043 55 971 135 c 1,3,4
 905 57 905 57 814 18.5 c 128,-1,5
 723 -20 723 -20 610 -20 c 0,6,7
 499 -20 499 -20 406 18.5 c 128,-1,8
 313 57 313 57 245.5 131 c 128,-1,9
 178 205 178 205 140 313 c 128,-1,10
 102 421 102 421 102 561 c 0,11,12
 102 700 102 700 137.5 808 c 128,-1,13
 173 916 173 916 239.5 989.5 c 128,-1,14
 306 1063 306 1063 401 1101 c 128,-1,15
 496 1139 496 1139 616 1139 c 0,16,17
 722 1139 722 1139 810.5 1099.5 c 128,-1,18
 899 1060 899 1060 965 983 c 1,19,20
 1031 1061 1031 1061 1121.5 1100 c 128,-1,21
 1212 1139 1212 1139 1321 1139 c 0,22,23
 1432 1139 1432 1139 1521.5 1105.5 c 128,-1,24
 1611 1072 1611 1072 1673 1007 c 128,-1,25
 1735 942 1735 942 1768.5 847.5 c 128,-1,26
 1802 753 1802 753 1802 631 c 2,27,-1
 1802 483 l 1,28,-1
 1120 483 l 1,29,-1
 1120 475 l 1,30,31
 1126 348 1126 348 1194 277.5 c 128,-1,32
 1262 207 1262 207 1382 207 c 0,33,34
 1433 207 1433 207 1478.5 212.5 c 128,-1,35
 1524 218 1524 218 1567.5 229 c 128,-1,36
 1611 240 1611 240 1653 256.5 c 128,-1,37
 1695 273 1695 273 1739 295 c 1,38,-1
 1739 59 l 1,39,40
 1699 38 1699 38 1658.5 23.5 c 128,-1,41
 1618 9 1618 9 1573 -1 c 128,-1,42
 1528 -11 1528 -11 1476 -15.5 c 128,-1,43
 1424 -20 1424 -20 1362 -20 c 0,0,1
414 561 m 256,44,45
 414 394 414 394 461 309.5 c 128,-1,46
 508 225 508 225 614 225 c 0,47,48
 719 225 719 225 766 310 c 128,-1,49
 813 395 813 395 813 561 c 0,50,51
 813 728 813 728 766 810.5 c 128,-1,52
 719 893 719 893 612 893 c 0,53,54
 507 893 507 893 460.5 810.5 c 128,-1,55
 414 728 414 728 414 561 c 256,44,45
1323 922 m 0,56,57
 1282 922 1282 922 1247.5 908 c 128,-1,58
 1213 894 1213 894 1187.5 865 c 128,-1,59
 1162 836 1162 836 1146 791.5 c 128,-1,60
 1130 747 1130 747 1126 686 c 1,61,-1
 1516 686 l 1,62,63
 1515 737 1515 737 1503 780 c 128,-1,64
 1491 823 1491 823 1467 854.5 c 128,-1,65
 1443 886 1443 886 1407 904 c 128,-1,66
 1371 922 1371 922 1323 922 c 0,56,57
EndSplineSet
EndChar

StartChar: Tbar
Encoding: 358 358 296
Width: 1124
GlyphClass: 2
Flags: W
LayerCount: 2
Fore
SplineSet
717 0 m 1,0,-1
 408 0 l 1,1,-1
 408 596 l 1,2,-1
 170 596 l 1,3,-1
 170 850 l 1,4,-1
 408 850 l 1,5,-1
 408 1204 l 1,6,-1
 41 1204 l 1,7,-1
 41 1462 l 1,8,-1
 1083 1462 l 1,9,-1
 1083 1204 l 1,10,-1
 717 1204 l 1,11,-1
 717 850 l 1,12,-1
 954 850 l 1,13,-1
 954 596 l 1,14,-1
 717 596 l 1,15,-1
 717 0 l 1,0,-1
EndSplineSet
EndChar

StartChar: tbar
Encoding: 359 359 297
Width: 848
GlyphClass: 2
Flags: W
LayerCount: 2
Fore
SplineSet
614 223 m 0,0,1
 659 223 659 223 699.5 233 c 128,-1,2
 740 243 740 243 782 258 c 1,3,-1
 782 31 l 1,4,5
 739 9 739 9 675.5 -5.5 c 128,-1,6
 612 -20 612 -20 537 -20 c 0,7,8
 464 -20 464 -20 401 -3 c 128,-1,9
 338 14 338 14 292 56.5 c 128,-1,10
 246 99 246 99 219.5 170.5 c 128,-1,11
 193 242 193 242 193 350 c 2,12,-1
 193 498 l 1,13,-1
 66 498 l 1,14,-1
 66 696 l 1,15,-1
 193 696 l 1,16,-1
 193 885 l 1,17,-1
 47 885 l 1,18,-1
 47 1018 l 1,19,-1
 215 1120 l 1,20,-1
 303 1356 l 1,21,-1
 498 1356 l 1,22,-1
 498 1118 l 1,23,-1
 770 1118 l 1,24,-1
 770 885 l 1,25,-1
 498 885 l 1,26,-1
 498 696 l 1,27,-1
 735 696 l 1,28,-1
 735 498 l 1,29,-1
 498 498 l 1,30,-1
 498 350 l 2,31,32
 498 285 498 285 530 254 c 128,-1,33
 562 223 562 223 614 223 c 0,0,1
EndSplineSet
EndChar

StartChar: longs
Encoding: 383 383 321
Width: 743
GlyphClass: 2
Flags: W
LayerCount: 2
Fore
SplineSet
573 1325 m 0,0,1
 514 1325 514 1325 489.5 1286.5 c 128,-1,2
 465 1248 465 1248 465 1188 c 2,3,-1
 465 0 l 1,4,-1
 160 0 l 1,5,-1
 160 1200 l 2,6,7
 160 1307 160 1307 186 1377.5 c 128,-1,8
 212 1448 212 1448 260 1490 c 128,-1,9
 308 1532 308 1532 376 1549.5 c 128,-1,10
 444 1567 444 1567 528 1567 c 0,11,12
 621 1567 621 1567 684 1552.5 c 128,-1,13
 747 1538 747 1538 791 1520 c 1,14,-1
 719 1296 l 1,15,16
 688 1307 688 1307 654 1316 c 128,-1,17
 620 1325 620 1325 573 1325 c 0,0,1
EndSplineSet
EndChar

StartChar: florin
Encoding: 402 402 322
Width: 1128
GlyphClass: 2
Flags: W
LayerCount: 2
Fore
SplineSet
723 -121 m 2,0,1
 723 -198 723 -198 703.5 -265.5 c 128,-1,2
 684 -333 684 -333 640.5 -383.5 c 128,-1,3
 597 -434 597 -434 528 -463 c 128,-1,4
 459 -492 459 -492 360 -492 c 0,5,6
 312 -492 312 -492 261 -485 c 128,-1,7
 210 -478 210 -478 176 -467 c 1,8,-1
 176 -227 l 1,9,10
 207 -237 207 -237 234 -241.5 c 128,-1,11
 261 -246 261 -246 295 -246 c 0,12,13
 320 -246 320 -246 342.5 -238.5 c 128,-1,14
 365 -231 365 -231 382.5 -211.5 c 128,-1,15
 400 -192 400 -192 410 -159.5 c 128,-1,16
 420 -127 420 -127 420 -76 c 2,17,-1
 420 805 l 1,18,-1
 252 805 l 1,19,-1
 252 952 l 1,20,-1
 420 1034 l 1,21,-1
 420 1116 l 2,22,23
 420 1223 420 1223 446 1293.5 c 128,-1,24
 472 1364 472 1364 520 1406 c 128,-1,25
 568 1448 568 1448 636 1465.5 c 128,-1,26
 704 1483 704 1483 788 1483 c 0,27,28
 881 1483 881 1483 944 1468.5 c 128,-1,29
 1007 1454 1007 1454 1051 1436 c 1,30,-1
 979 1212 l 1,31,32
 948 1223 948 1223 914 1232 c 128,-1,33
 880 1241 880 1241 834 1241 c 0,34,35
 774 1241 774 1241 749.5 1202.5 c 128,-1,36
 725 1164 725 1164 725 1104 c 2,37,-1
 725 1034 l 1,38,-1
 952 1034 l 1,39,-1
 952 805 l 1,40,-1
 725 805 l 1,41,-1
 723 -121 l 2,0,1
EndSplineSet
EndChar

StartChar: Aringacute
Encoding: 506 506 323
Width: 1331
GlyphClass: 2
Flags: W
LayerCount: 2
Fore
SplineSet
918 1462 m 0,0,1
 918 1417 918 1417 905 1380.5 c 128,-1,2
 892 1344 892 1344 870 1315 c 1,3,-1
 1331 0 l 1,4,-1
 1018 0 l 1,5,-1
 913 330 l 1,6,-1
 416 330 l 1,7,-1
 313 0 l 1,8,-1
 0 0 l 1,9,-1
 459 1315 l 1,10,11
 416 1373 416 1373 416 1460 c 0,12,13
 416 1516 416 1516 434 1560 c 128,-1,14
 452 1604 452 1604 484.5 1634.5 c 128,-1,15
 517 1665 517 1665 563 1681.5 c 128,-1,16
 609 1698 609 1698 664 1698 c 0,17,18
 717 1698 717 1698 763 1681.5 c 128,-1,19
 809 1665 809 1665 843.5 1634.5 c 128,-1,20
 878 1604 878 1604 898 1560.5 c 128,-1,21
 918 1517 918 1517 918 1462 c 0,0,1
846 590 m 1,22,-1
 752 879 l 1,23,24
 746 894 746 894 734 931.5 c 128,-1,25
 722 969 722 969 708.5 1013.5 c 128,-1,26
 695 1058 695 1058 683 1102.5 c 128,-1,27
 671 1147 671 1147 666 1178 c 1,28,29
 662 1159 662 1159 655.5 1131.5 c 128,-1,30
 649 1104 649 1104 640.5 1074.5 c 128,-1,31
 632 1045 632 1045 623 1014 c 128,-1,32
 614 983 614 983 606 956.5 c 128,-1,33
 598 930 598 930 591.5 909.5 c 128,-1,34
 585 889 585 889 582 879 c 2,35,-1
 489 590 l 1,36,-1
 846 590 l 1,22,-1
543 1753 m 1,37,-1
 543 1769 l 1,38,39
 564 1789 564 1789 588 1813 c 128,-1,40
 612 1837 612 1837 635.5 1863 c 128,-1,41
 659 1889 659 1889 680 1914.5 c 128,-1,42
 701 1940 701 1940 717 1962 c 1,43,-1
 1059 1962 l 1,44,-1
 1059 1950 l 1,45,46
 1043 1932 1043 1932 1005 1906 c 128,-1,47
 967 1880 967 1880 921 1851.5 c 128,-1,48
 875 1823 875 1823 827.5 1797 c 128,-1,49
 780 1771 780 1771 745 1753 c 1,50,-1
 543 1753 l 1,37,-1
760 1460 m 0,51,52
 760 1505 760 1505 733 1530.5 c 128,-1,53
 706 1556 706 1556 664 1556 c 256,54,55
 622 1556 622 1556 594.5 1530.5 c 128,-1,56
 567 1505 567 1505 567 1460 c 0,57,58
 567 1417 567 1417 588.5 1391.5 c 128,-1,59
 610 1366 610 1366 653 1364 c 1,60,-1
 672 1364 l 1,61,62
 710 1366 710 1366 735 1391.5 c 128,-1,63
 760 1417 760 1417 760 1460 c 0,51,52
EndSplineSet
EndChar

StartChar: aringacute
Encoding: 507 507 324
Width: 1176
GlyphClass: 2
Flags: W
LayerCount: 2
Fore
SplineSet
451 1753 m 1,0,-1
 451 1769 l 1,1,2
 472 1789 472 1789 496 1813 c 128,-1,3
 520 1837 520 1837 543.5 1863 c 128,-1,4
 567 1889 567 1889 588 1914.5 c 128,-1,5
 609 1940 609 1940 625 1962 c 1,6,-1
 967 1962 l 1,7,-1
 967 1950 l 1,8,9
 951 1932 951 1932 913 1906 c 128,-1,10
 875 1880 875 1880 828.5 1851.5 c 128,-1,11
 782 1823 782 1823 735 1797 c 128,-1,12
 688 1771 688 1771 653 1753 c 1,13,-1
 451 1753 l 1,0,-1
809 0 m 1,14,-1
 750 152 l 1,15,-1
 741 152 l 1,16,17
 708 107 708 107 675 74.5 c 128,-1,18
 642 42 642 42 603 21 c 128,-1,19
 564 0 564 0 515.5 -10 c 128,-1,20
 467 -20 467 -20 403 -20 c 0,21,22
 335 -20 335 -20 277 1.5 c 128,-1,23
 219 23 219 23 176.5 66.5 c 128,-1,24
 134 110 134 110 110 176.5 c 128,-1,25
 86 243 86 243 86 334 c 0,26,27
 86 512 86 512 200 596.5 c 128,-1,28
 314 681 314 681 541 690 c 1,29,-1
 719 696 l 1,30,-1
 719 780 l 2,31,32
 719 849 719 849 679 882 c 128,-1,33
 639 915 639 915 567 915 c 256,34,35
 495 915 495 915 426.5 894 c 128,-1,36
 358 873 358 873 289 838 c 1,37,-1
 190 1040 l 1,38,39
 274 1087 274 1087 376 1114 c 128,-1,40
 478 1141 478 1141 590 1141 c 0,41,42
 799 1141 799 1141 910.5 1043 c 128,-1,43
 1022 945 1022 945 1022 745 c 2,44,-1
 1022 0 l 1,45,-1
 809 0 l 1,14,-1
719 518 m 1,46,-1
 618 514 l 2,47,48
 557 512 557 512 515 498 c 128,-1,49
 473 484 473 484 447.5 460.5 c 128,-1,50
 422 437 422 437 410.5 404.5 c 128,-1,51
 399 372 399 372 399 332 c 0,52,53
 399 262 399 262 433 232.5 c 128,-1,54
 467 203 467 203 522 203 c 0,55,56
 564 203 564 203 600 217.5 c 128,-1,57
 636 232 636 232 662.5 260.5 c 128,-1,58
 689 289 689 289 704 330.5 c 128,-1,59
 719 372 719 372 719 426 c 2,60,-1
 719 518 l 1,46,-1
842 1438 m 0,61,62
 842 1382 842 1382 822.5 1337.5 c 128,-1,63
 803 1293 803 1293 768.5 1262 c 128,-1,64
 734 1231 734 1231 688 1214.5 c 128,-1,65
 642 1198 642 1198 588 1198 c 0,66,67
 533 1198 533 1198 487 1214.5 c 128,-1,68
 441 1231 441 1231 408.5 1261.5 c 128,-1,69
 376 1292 376 1292 358 1336.5 c 128,-1,70
 340 1381 340 1381 340 1436 c 256,71,72
 340 1491 340 1491 358 1535 c 128,-1,73
 376 1579 376 1579 408.5 1609.5 c 128,-1,74
 441 1640 441 1640 487 1656.5 c 128,-1,75
 533 1673 533 1673 588 1673 c 0,76,77
 641 1673 641 1673 687 1656.5 c 128,-1,78
 733 1640 733 1640 767.5 1609.5 c 128,-1,79
 802 1579 802 1579 822 1535.5 c 128,-1,80
 842 1492 842 1492 842 1438 c 0,61,62
684 1436 m 256,81,82
 684 1481 684 1481 657 1506.5 c 128,-1,83
 630 1532 630 1532 588 1532 c 256,84,85
 546 1532 546 1532 519 1506.5 c 128,-1,86
 492 1481 492 1481 492 1436 c 256,87,88
 492 1391 492 1391 516 1365 c 128,-1,89
 540 1339 540 1339 588 1339 c 0,90,91
 630 1339 630 1339 657 1365 c 128,-1,92
 684 1391 684 1391 684 1436 c 256,81,82
EndSplineSet
EndChar

StartChar: circumflex
Encoding: 710 710 331
Width: 1182
GlyphClass: 2
Flags: W
LayerCount: 2
Fore
SplineSet
801 1241 m 1,0,1
 750 1275 750 1275 695 1318 c 128,-1,2
 640 1361 640 1361 588 1417 c 1,3,4
 534 1361 534 1361 482 1318 c 128,-1,5
 430 1275 430 1275 379 1241 c 1,6,-1
 176 1241 l 1,7,-1
 176 1268 l 1,8,9
 202 1297 202 1297 233.5 1335 c 128,-1,10
 265 1373 265 1373 297.5 1413.5 c 128,-1,11
 330 1454 330 1454 360 1494.5 c 128,-1,12
 390 1535 390 1535 412 1569 c 1,13,-1
 768 1569 l 1,14,15
 789 1535 789 1535 819 1494.5 c 128,-1,16
 849 1454 849 1454 881.5 1413.5 c 128,-1,17
 914 1373 914 1373 946.5 1335 c 128,-1,18
 979 1297 979 1297 1004 1268 c 1,19,-1
 1004 1241 l 1,20,-1
 801 1241 l 1,0,1
EndSplineSet
EndChar

StartChar: caron
Encoding: 711 711 332
Width: 1182
GlyphClass: 2
Flags: W
LayerCount: 2
Fore
SplineSet
1004 1542 m 1,0,1
 979 1513 979 1513 946.5 1475 c 128,-1,2
 914 1437 914 1437 881.5 1396.5 c 128,-1,3
 849 1356 849 1356 819 1316 c 128,-1,4
 789 1276 789 1276 768 1241 c 1,5,-1
 412 1241 l 1,6,7
 390 1276 390 1276 360 1316 c 128,-1,8
 330 1356 330 1356 297.5 1396.5 c 128,-1,9
 265 1437 265 1437 233.5 1475 c 128,-1,10
 202 1513 202 1513 176 1542 c 1,11,-1
 176 1569 l 1,12,-1
 379 1569 l 1,13,14
 430 1535 430 1535 482 1491.5 c 128,-1,15
 534 1448 534 1448 588 1393 c 1,16,17
 640 1448 640 1448 695 1491.5 c 128,-1,18
 750 1535 750 1535 801 1569 c 1,19,-1
 1004 1569 l 1,20,-1
 1004 1542 l 1,0,1
EndSplineSet
EndChar

StartChar: macron
Encoding: 713 713 333
Width: 1141
GlyphClass: 2
Flags: W
LayerCount: 2
Fore
SplineSet
262 1452 m 1,0,-1
 879 1452 l 1,1,-1
 879 1241 l 1,2,-1
 262 1241 l 1,3,-1
 262 1452 l 1,0,-1
EndSplineSet
EndChar

StartChar: breve
Encoding: 728 728 334
Width: 1182
GlyphClass: 2
Flags: W
LayerCount: 2
Fore
SplineSet
952 1579 m 1,0,1
 947 1504 947 1504 921 1442 c 128,-1,2
 895 1380 895 1380 849 1335.5 c 128,-1,3
 803 1291 803 1291 737 1266 c 128,-1,4
 671 1241 671 1241 586 1241 c 0,5,6
 498 1241 498 1241 432 1265 c 128,-1,7
 366 1289 366 1289 322 1333 c 128,-1,8
 278 1377 278 1377 254.5 1439.5 c 128,-1,9
 231 1502 231 1502 227 1579 c 1,10,-1
 397 1579 l 1,11,12
 401 1536 401 1536 415 1511 c 128,-1,13
 429 1486 429 1486 453 1473.5 c 128,-1,14
 477 1461 477 1461 510.5 1457.5 c 128,-1,15
 544 1454 544 1454 588 1454 c 0,16,17
 624 1454 624 1454 656.5 1458.5 c 128,-1,18
 689 1463 689 1463 714.5 1476.5 c 128,-1,19
 740 1490 740 1490 757 1514.5 c 128,-1,20
 774 1539 774 1539 778 1579 c 1,21,-1
 952 1579 l 1,0,1
EndSplineSet
EndChar

StartChar: dotaccent
Encoding: 729 729 335
Width: 625
GlyphClass: 2
Flags: W
LayerCount: 2
Fore
SplineSet
147 1407 m 0,0,1
 147 1450 147 1450 160 1478.5 c 128,-1,2
 173 1507 173 1507 195.5 1524.5 c 128,-1,3
 218 1542 218 1542 248.5 1549 c 128,-1,4
 279 1556 279 1556 313 1556 c 256,5,6
 347 1556 347 1556 377 1549 c 128,-1,7
 407 1542 407 1542 429.5 1524.5 c 128,-1,8
 452 1507 452 1507 465.5 1478.5 c 128,-1,9
 479 1450 479 1450 479 1407 c 0,10,11
 479 1365 479 1365 465.5 1336 c 128,-1,12
 452 1307 452 1307 429.5 1289.5 c 128,-1,13
 407 1272 407 1272 377 1264.5 c 128,-1,14
 347 1257 347 1257 313 1257 c 256,15,16
 279 1257 279 1257 248.5 1264.5 c 128,-1,17
 218 1272 218 1272 195.5 1289.5 c 128,-1,18
 173 1307 173 1307 160 1336 c 128,-1,19
 147 1365 147 1365 147 1407 c 0,0,1
EndSplineSet
EndChar

StartChar: ring
Encoding: 730 730 336
Width: 1182
GlyphClass: 2
Flags: W
LayerCount: 2
Fore
SplineSet
842 1479 m 0,0,1
 842 1423 842 1423 822.5 1378.5 c 128,-1,2
 803 1334 803 1334 768.5 1303 c 128,-1,3
 734 1272 734 1272 688 1255.5 c 128,-1,4
 642 1239 642 1239 588 1239 c 0,5,6
 533 1239 533 1239 487 1255.5 c 128,-1,7
 441 1272 441 1272 408.5 1302.5 c 128,-1,8
 376 1333 376 1333 358 1377.5 c 128,-1,9
 340 1422 340 1422 340 1477 c 256,10,11
 340 1532 340 1532 358 1576 c 128,-1,12
 376 1620 376 1620 408.5 1650.5 c 128,-1,13
 441 1681 441 1681 487 1697.5 c 128,-1,14
 533 1714 533 1714 588 1714 c 0,15,16
 641 1714 641 1714 687 1697.5 c 128,-1,17
 733 1681 733 1681 767.5 1650.5 c 128,-1,18
 802 1620 802 1620 822 1576.5 c 128,-1,19
 842 1533 842 1533 842 1479 c 0,0,1
684 1477 m 256,20,21
 684 1522 684 1522 657 1547.5 c 128,-1,22
 630 1573 630 1573 588 1573 c 256,23,24
 546 1573 546 1573 519 1547.5 c 128,-1,25
 492 1522 492 1522 492 1477 c 256,26,27
 492 1432 492 1432 516 1406 c 128,-1,28
 540 1380 540 1380 588 1380 c 0,29,30
 630 1380 630 1380 657 1406 c 128,-1,31
 684 1432 684 1432 684 1477 c 256,20,21
EndSplineSet
EndChar

StartChar: ogonek
Encoding: 731 731 337
Width: 422
GlyphClass: 2
Flags: W
LayerCount: 2
Fore
SplineSet
221 -227 m 0,0,1
 221 -269 221 -269 243.5 -289 c 128,-1,2
 266 -309 266 -309 301 -309 c 0,3,4
 333 -309 333 -309 364.5 -303 c 128,-1,5
 396 -297 396 -297 416 -291 c 1,6,-1
 416 -469 l 1,7,8
 384 -478 384 -478 347 -485 c 128,-1,9
 310 -492 310 -492 260 -492 c 0,10,11
 202 -492 202 -492 156 -475 c 128,-1,12
 110 -458 110 -458 77.5 -427.5 c 128,-1,13
 45 -397 45 -397 27.5 -355 c 128,-1,14
 10 -313 10 -313 10 -262 c 0,15,16
 10 -219 10 -219 24 -183 c 128,-1,17
 38 -147 38 -147 62.5 -115.5 c 128,-1,18
 87 -84 87 -84 120 -56 c 128,-1,19
 153 -28 153 -28 190 0 c 1,20,-1
 369 0 l 1,21,22
 299 -66 299 -66 260 -120.5 c 128,-1,23
 221 -175 221 -175 221 -227 c 0,0,1
EndSplineSet
EndChar

StartChar: tilde
Encoding: 732 732 338
Width: 1182
GlyphClass: 2
Flags: W
LayerCount: 2
Fore
SplineSet
426 1346 m 0,0,1
 395 1346 395 1346 376.5 1319.5 c 128,-1,2
 358 1293 358 1293 346 1239 c 1,3,-1
 197 1239 l 1,4,5
 203 1319 203 1319 223 1377 c 128,-1,6
 243 1435 243 1435 275.5 1473 c 128,-1,7
 308 1511 308 1511 352 1529.5 c 128,-1,8
 396 1548 396 1548 449 1548 c 0,9,10
 490 1548 490 1548 529 1532 c 128,-1,11
 568 1516 568 1516 606.5 1496.5 c 128,-1,12
 645 1477 645 1477 682.5 1460.5 c 128,-1,13
 720 1444 720 1444 756 1444 c 0,14,15
 787 1444 787 1444 805 1470 c 128,-1,16
 823 1496 823 1496 836 1550 c 1,17,-1
 985 1550 l 1,18,19
 979 1471 979 1471 958.5 1413 c 128,-1,20
 938 1355 938 1355 905 1316.5 c 128,-1,21
 872 1278 872 1278 828.5 1259.5 c 128,-1,22
 785 1241 785 1241 733 1241 c 0,23,24
 693 1241 693 1241 653 1257.5 c 128,-1,25
 613 1274 613 1274 575 1293.5 c 128,-1,26
 537 1313 537 1313 499.5 1329.5 c 128,-1,27
 462 1346 462 1346 426 1346 c 0,0,1
EndSplineSet
EndChar

StartChar: hungarumlaut
Encoding: 733 733 339
Width: 1182
GlyphClass: 2
Flags: W
LayerCount: 2
Fore
SplineSet
156 1241 m 1,0,-1
 156 1268 l 1,1,2
 177 1297 177 1297 201 1335 c 128,-1,3
 225 1373 225 1373 248.5 1413.5 c 128,-1,4
 272 1454 272 1454 293 1494.5 c 128,-1,5
 314 1535 314 1535 330 1569 c 1,6,-1
 631 1569 l 1,7,-1
 631 1548 l 1,8,9
 620 1530 620 1530 599 1505.5 c 128,-1,10
 578 1481 578 1481 551 1453 c 128,-1,11
 524 1425 524 1425 492.5 1395.5 c 128,-1,12
 461 1366 461 1366 430 1338 c 128,-1,13
 399 1310 399 1310 369.5 1285 c 128,-1,14
 340 1260 340 1260 317 1241 c 1,15,-1
 156 1241 l 1,0,-1
553 1241 m 1,16,-1
 553 1268 l 1,17,18
 574 1297 574 1297 598 1335 c 128,-1,19
 622 1373 622 1373 645.5 1413.5 c 128,-1,20
 669 1454 669 1454 690 1494.5 c 128,-1,21
 711 1535 711 1535 727 1569 c 1,22,-1
 1028 1569 l 1,23,-1
 1028 1548 l 1,24,25
 1017 1530 1017 1530 996 1505.5 c 128,-1,26
 975 1481 975 1481 948 1453 c 128,-1,27
 921 1425 921 1425 890 1395.5 c 128,-1,28
 859 1366 859 1366 827.5 1338 c 128,-1,29
 796 1310 796 1310 767 1285 c 128,-1,30
 738 1260 738 1260 715 1241 c 1,31,-1
 553 1241 l 1,16,-1
EndSplineSet
EndChar

StartChar: tonos
Encoding: 900 900 340
Width: 1182
GlyphClass: 2
Flags: W
LayerCount: 2
Fore
SplineSet
471 1268 m 1,0,1
 480 1298 480 1298 489 1336.5 c 128,-1,2
 498 1375 498 1375 506.5 1415.5 c 128,-1,3
 515 1456 515 1456 521.5 1496 c 128,-1,4
 528 1536 528 1536 532 1569 c 1,5,-1
 815 1569 l 1,6,-1
 815 1548 l 1,7,8
 784 1480 784 1480 743 1401.5 c 128,-1,9
 702 1323 702 1323 649 1241 c 1,10,-1
 471 1241 l 1,11,-1
 471 1268 l 1,0,1
EndSplineSet
EndChar

StartChar: dieresistonos
Encoding: 901 901 341
Width: 1182
GlyphClass: 2
Flags: W
LayerCount: 2
Fore
SplineSet
186 1405 m 0,0,1
 186 1476 186 1476 221.5 1508 c 128,-1,2
 257 1540 257 1540 315 1540 c 0,3,4
 372 1540 372 1540 409 1508 c 128,-1,5
 446 1476 446 1476 446 1405 c 0,6,7
 446 1337 446 1337 409 1304.5 c 128,-1,8
 372 1272 372 1272 315 1272 c 0,9,10
 257 1272 257 1272 221.5 1304.5 c 128,-1,11
 186 1337 186 1337 186 1405 c 0,0,1
733 1405 m 0,12,13
 733 1476 733 1476 768.5 1508 c 128,-1,14
 804 1540 804 1540 864 1540 c 0,15,16
 921 1540 921 1540 958 1508 c 128,-1,17
 995 1476 995 1476 995 1405 c 0,18,19
 995 1337 995 1337 958 1304.5 c 128,-1,20
 921 1272 921 1272 864 1272 c 0,21,22
 804 1272 804 1272 768.5 1304.5 c 128,-1,23
 733 1337 733 1337 733 1405 c 0,12,13
487 1415 m 1,24,25
 496 1445 496 1445 505 1483.5 c 128,-1,26
 514 1522 514 1522 522.5 1562.5 c 128,-1,27
 531 1603 531 1603 538 1643 c 128,-1,28
 545 1683 545 1683 549 1716 c 1,29,-1
 811 1716 l 1,30,-1
 811 1696 l 1,31,32
 780 1628 780 1628 731 1548.5 c 128,-1,33
 682 1469 682 1469 625 1389 c 1,34,-1
 487 1389 l 1,35,-1
 487 1415 l 1,24,25
EndSplineSet
EndChar

StartChar: Gamma
Encoding: 915 915 353
Width: 1067
GlyphClass: 2
Flags: W
LayerCount: 2
Fore
SplineSet
1026 1462 m 1,0,-1
 1026 1206 l 1,1,-1
 494 1206 l 1,2,-1
 494 0 l 1,3,-1
 184 0 l 1,4,-1
 184 1462 l 1,5,-1
 1026 1462 l 1,0,-1
EndSplineSet
EndChar

StartChar: Theta
Encoding: 920 920 358
Width: 1548
GlyphClass: 2
Flags: W
LayerCount: 2
Fore
SplineSet
993 870 m 1,0,-1
 993 616 l 1,1,-1
 555 616 l 1,2,-1
 555 870 l 1,3,-1
 993 870 l 1,0,-1
1430 733 m 0,4,5
 1430 564 1430 564 1390.5 425 c 128,-1,6
 1351 286 1351 286 1270 187 c 128,-1,7
 1189 88 1189 88 1065.5 34 c 128,-1,8
 942 -20 942 -20 774 -20 c 256,9,10
 606 -20 606 -20 482.5 34 c 128,-1,11
 359 88 359 88 278.5 187 c 128,-1,12
 198 286 198 286 158.5 425.5 c 128,-1,13
 119 565 119 565 119 735 c 256,14,15
 119 905 119 905 158.5 1043.5 c 128,-1,16
 198 1182 198 1182 279 1280 c 128,-1,17
 360 1378 360 1378 483.5 1431.5 c 128,-1,18
 607 1485 607 1485 776 1485 c 0,19,20
 944 1485 944 1485 1067 1431.5 c 128,-1,21
 1190 1378 1190 1378 1270.5 1279.5 c 128,-1,22
 1351 1181 1351 1181 1390.5 1042.5 c 128,-1,23
 1430 904 1430 904 1430 733 c 0,4,5
438 733 m 256,24,25
 438 618 438 618 458 526.5 c 128,-1,26
 478 435 478 435 519.5 371.5 c 128,-1,27
 561 308 561 308 624 274 c 128,-1,28
 687 240 687 240 774 240 c 0,29,30
 863 240 863 240 926.5 274 c 128,-1,31
 990 308 990 308 1030.5 371.5 c 128,-1,32
 1071 435 1071 435 1090.5 526.5 c 128,-1,33
 1110 618 1110 618 1110 733 c 256,34,35
 1110 848 1110 848 1090.5 939.5 c 128,-1,36
 1071 1031 1071 1031 1030.5 1095 c 128,-1,37
 990 1159 990 1159 927 1193 c 128,-1,38
 864 1227 864 1227 776 1227 c 0,39,40
 689 1227 689 1227 625 1193 c 128,-1,41
 561 1159 561 1159 519.5 1095 c 128,-1,42
 478 1031 478 1031 458 939.5 c 128,-1,43
 438 848 438 848 438 733 c 256,24,25
EndSplineSet
EndChar

StartChar: Lambda
Encoding: 923 923 361
Width: 1249
GlyphClass: 2
Flags: W
LayerCount: 2
Fore
SplineSet
692 881 m 2,0,1
 687 899 687 899 677.5 939 c 128,-1,2
 668 979 668 979 658 1026.5 c 128,-1,3
 648 1074 648 1074 639 1121.5 c 128,-1,4
 630 1169 630 1169 625 1202 c 1,5,6
 620 1169 620 1169 611 1121 c 128,-1,7
 602 1073 602 1073 592.5 1025.5 c 128,-1,8
 583 978 583 978 574.5 938 c 128,-1,9
 566 898 566 898 561 881 c 2,10,-1
 313 0 l 1,11,-1
 0 0 l 1,12,-1
 455 1462 l 1,13,-1
 793 1462 l 1,14,-1
 1249 0 l 1,15,-1
 936 0 l 1,16,-1
 692 881 l 2,0,1
EndSplineSet
EndChar

StartChar: Xi
Encoding: 926 926 364
Width: 1087
GlyphClass: 2
Flags: W
LayerCount: 2
Fore
SplineSet
205 887 m 1,0,-1
 883 887 l 1,1,-1
 883 633 l 1,2,-1
 205 633 l 1,3,-1
 205 887 l 1,0,-1
123 1462 m 1,4,-1
 965 1462 l 1,5,-1
 965 1208 l 1,6,-1
 123 1208 l 1,7,-1
 123 1462 l 1,4,-1
1006 256 m 1,8,-1
 1006 0 l 1,9,-1
 82 0 l 1,10,-1
 82 256 l 1,11,-1
 1006 256 l 1,8,-1
EndSplineSet
EndChar

StartChar: Pi
Encoding: 928 928 366
Width: 1444
GlyphClass: 2
Flags: W
LayerCount: 2
Fore
SplineSet
1260 0 m 1,0,-1
 950 0 l 1,1,-1
 950 1204 l 1,2,-1
 494 1204 l 1,3,-1
 494 0 l 1,4,-1
 184 0 l 1,5,-1
 184 1462 l 1,6,-1
 1260 1462 l 1,7,-1
 1260 0 l 1,0,-1
EndSplineSet
EndChar

StartChar: Sigma
Encoding: 931 931 368
Width: 1133
GlyphClass: 2
Flags: W
LayerCount: 2
Fore
SplineSet
78 0 m 1,0,-1
 78 244 l 1,1,-1
 512 766 l 1,2,-1
 90 1225 l 1,3,-1
 90 1462 l 1,4,-1
 1004 1462 l 1,5,-1
 1004 1208 l 1,6,-1
 614 1208 l 2,7,8
 596 1208 596 1208 562.5 1210 c 128,-1,9
 529 1212 529 1212 497 1214 c 0,10,11
 459 1217 459 1217 416 1219 c 1,12,-1
 834 768 l 1,13,-1
 393 244 l 1,14,15
 447 247 447 247 496 250 c 0,16,17
 517 251 517 251 539 252 c 128,-1,18
 561 253 561 253 581 254 c 128,-1,19
 601 255 601 255 618 255.5 c 128,-1,20
 635 256 635 256 647 256 c 2,21,-1
 1063 256 l 1,22,-1
 1063 0 l 1,23,-1
 78 0 l 1,0,-1
EndSplineSet
EndChar

StartChar: Phi
Encoding: 934 934 371
Width: 1679
GlyphClass: 2
Flags: W
LayerCount: 2
Fore
SplineSet
979 444 m 1,0,-1
 991 444 l 2,1,2
 1068 444 1068 444 1125 468 c 128,-1,3
 1182 492 1182 492 1220 534.5 c 128,-1,4
 1258 577 1258 577 1277 635 c 128,-1,5
 1296 693 1296 693 1296 760 c 0,6,7
 1296 820 1296 820 1279.5 874.5 c 128,-1,8
 1263 929 1263 929 1228.5 970.5 c 128,-1,9
 1194 1012 1194 1012 1141 1036.5 c 128,-1,10
 1088 1061 1088 1061 1016 1061 c 2,11,-1
 979 1061 l 1,12,-1
 979 444 l 1,0,-1
700 -20 m 1,13,-1
 700 205 l 1,14,-1
 680 205 l 2,15,16
 570 205 570 205 483.5 229 c 128,-1,17
 397 253 397 253 332 294 c 128,-1,18
 267 335 267 335 221 390 c 128,-1,19
 175 445 175 445 146.5 506.5 c 128,-1,20
 118 568 118 568 105 632.5 c 128,-1,21
 92 697 92 697 92 758 c 0,22,23
 92 860 92 860 125 958 c 128,-1,24
 158 1056 158 1056 226.5 1132.5 c 128,-1,25
 295 1209 295 1209 400.5 1256 c 128,-1,26
 506 1303 506 1303 651 1303 c 2,27,-1
 700 1303 l 1,28,-1
 700 1483 l 1,29,-1
 979 1483 l 1,30,-1
 979 1303 l 1,31,-1
 1028 1303 l 2,32,33
 1173 1303 1173 1303 1278.5 1256 c 128,-1,34
 1384 1209 1384 1209 1452.5 1132.5 c 128,-1,35
 1521 1056 1521 1056 1554 958 c 128,-1,36
 1587 860 1587 860 1587 758 c 0,37,38
 1587 697 1587 697 1574 632.5 c 128,-1,39
 1561 568 1561 568 1532.5 506.5 c 128,-1,40
 1504 445 1504 445 1458.5 390 c 128,-1,41
 1413 335 1413 335 1347.5 294 c 128,-1,42
 1282 253 1282 253 1195.5 229 c 128,-1,43
 1109 205 1109 205 999 205 c 2,44,-1
 979 205 l 1,45,-1
 979 -20 l 1,46,-1
 700 -20 l 1,13,-1
700 1061 m 1,47,-1
 664 1061 l 2,48,49
 592 1061 592 1061 539 1036.5 c 128,-1,50
 486 1012 486 1012 451.5 970.5 c 128,-1,51
 417 929 417 929 400 874.5 c 128,-1,52
 383 820 383 820 383 760 c 0,53,54
 383 693 383 693 402 635 c 128,-1,55
 421 577 421 577 459 534.5 c 128,-1,56
 497 492 497 492 554 468 c 128,-1,57
 611 444 611 444 688 444 c 2,58,-1
 700 444 l 1,59,-1
 700 1061 l 1,47,-1
EndSplineSet
EndChar

StartChar: Psi
Encoding: 936 936 373
Width: 1712
GlyphClass: 2
Flags: W
LayerCount: 2
Fore
SplineSet
1604 983 m 2,0,1
 1604 853 1604 853 1573.5 751.5 c 128,-1,2
 1543 650 1543 650 1475.5 580 c 128,-1,3
 1408 510 1408 510 1301 473 c 128,-1,4
 1194 436 1194 436 1042 436 c 2,5,-1
 995 436 l 1,6,-1
 995 0 l 1,7,-1
 717 0 l 1,8,-1
 717 436 l 1,9,-1
 670 436 l 2,10,11
 518 436 518 436 411 472 c 128,-1,12
 304 508 304 508 237 577.5 c 128,-1,13
 170 647 170 647 139.5 748 c 128,-1,14
 109 849 109 849 109 979 c 2,15,-1
 109 1462 l 1,16,-1
 399 1462 l 1,17,-1
 399 983 l 2,18,19
 399 895 399 895 418.5 837.5 c 128,-1,20
 438 780 438 780 475 746.5 c 128,-1,21
 512 713 512 713 566 699.5 c 128,-1,22
 620 686 620 686 690 686 c 2,23,-1
 717 686 l 1,24,-1
 717 1462 l 1,25,-1
 995 1462 l 1,26,-1
 995 686 l 1,27,-1
 1022 686 l 2,28,29
 1084 686 1084 686 1137.5 698.5 c 128,-1,30
 1191 711 1191 711 1230 744 c 128,-1,31
 1269 777 1269 777 1291 834 c 128,-1,32
 1313 891 1313 891 1313 979 c 2,33,-1
 1313 1462 l 1,34,-1
 1604 1462 l 1,35,-1
 1604 983 l 2,0,1
EndSplineSet
EndChar

StartChar: uni03A9
Encoding: 937 937 374
Width: 1520
GlyphClass: 2
Flags: W
LayerCount: 2
Fore
SplineSet
764 1227 m 256,0,1
 589 1227 589 1227 508.5 1120 c 128,-1,2
 428 1013 428 1013 428 807 c 0,3,4
 428 719 428 719 441 640.5 c 128,-1,5
 454 562 454 562 485 495.5 c 128,-1,6
 516 429 516 429 567 374.5 c 128,-1,7
 618 320 618 320 694 279 c 1,8,-1
 694 0 l 1,9,-1
 55 0 l 1,10,-1
 55 260 l 1,11,-1
 426 260 l 1,12,13
 354 304 354 304 295 366.5 c 128,-1,14
 236 429 236 429 195 507 c 128,-1,15
 154 585 154 585 131.5 677 c 128,-1,16
 109 769 109 769 109 872 c 0,17,18
 109 1011 109 1011 151 1124 c 128,-1,19
 193 1237 193 1237 276 1317.5 c 128,-1,20
 359 1398 359 1398 481.5 1441.5 c 128,-1,21
 604 1485 604 1485 764 1485 c 0,22,23
 925 1485 925 1485 1047 1441.5 c 128,-1,24
 1169 1398 1169 1398 1252 1317.5 c 128,-1,25
 1335 1237 1335 1237 1377 1123.5 c 128,-1,26
 1419 1010 1419 1010 1419 870 c 0,27,28
 1419 767 1419 767 1396.5 675.5 c 128,-1,29
 1374 584 1374 584 1332 506.5 c 128,-1,30
 1290 429 1290 429 1231 367 c 128,-1,31
 1172 305 1172 305 1098 260 c 1,32,-1
 1473 260 l 1,33,-1
 1473 0 l 1,34,-1
 829 0 l 1,35,-1
 829 279 l 1,36,37
 906 319 906 319 958 374 c 128,-1,38
 1010 429 1010 429 1041.5 496.5 c 128,-1,39
 1073 564 1073 564 1086.5 642.5 c 128,-1,40
 1100 721 1100 721 1100 809 c 0,41,42
 1100 1013 1100 1013 1019.5 1120 c 128,-1,43
 939 1227 939 1227 764 1227 c 256,0,1
EndSplineSet
EndChar

StartChar: alpha
Encoding: 945 945 382
Width: 1274
GlyphClass: 2
Flags: W
LayerCount: 2
Fore
SplineSet
602 223 m 0,0,1
 657 223 657 223 694.5 242 c 128,-1,2
 732 261 732 261 755 300.5 c 128,-1,3
 778 340 778 340 789 400.5 c 128,-1,4
 800 461 800 461 801 545 c 1,5,-1
 801 557 l 2,6,7
 801 638 801 638 791.5 701 c 128,-1,8
 782 764 782 764 758.5 806.5 c 128,-1,9
 735 849 735 849 696.5 871 c 128,-1,10
 658 893 658 893 600 893 c 0,11,12
 504 893 504 893 459 806.5 c 128,-1,13
 414 720 414 720 414 553 c 0,14,15
 414 388 414 388 459.5 305.5 c 128,-1,16
 505 223 505 223 602 223 c 0,0,1
506 -20 m 0,17,18
 415 -20 415 -20 340.5 17 c 128,-1,19
 266 54 266 54 213 126.5 c 128,-1,20
 160 199 160 199 131 306.5 c 128,-1,21
 102 414 102 414 102 555 c 0,22,23
 102 698 102 698 131.5 806.5 c 128,-1,24
 161 915 161 915 216.5 988.5 c 128,-1,25
 272 1062 272 1062 351 1099.5 c 128,-1,26
 430 1137 430 1137 528 1137 c 0,27,28
 583 1137 583 1137 627.5 1126.5 c 128,-1,29
 672 1116 672 1116 708 1095 c 128,-1,30
 744 1074 744 1074 772.5 1042.5 c 128,-1,31
 801 1011 801 1011 825 969 c 1,32,-1
 838 969 l 1,33,34
 847 1004 847 1004 863.5 1045.5 c 128,-1,35
 880 1087 880 1087 905 1118 c 1,36,-1
 1157 1118 l 1,37,38
 1145 1085 1145 1085 1132.5 1036 c 128,-1,39
 1120 987 1120 987 1109.5 927.5 c 128,-1,40
 1099 868 1099 868 1092 801 c 128,-1,41
 1085 734 1085 734 1085 666 c 2,42,-1
 1085 354 l 2,43,44
 1085 320 1085 320 1092 297 c 128,-1,45
 1099 274 1099 274 1110.5 260.5 c 128,-1,46
 1122 247 1122 247 1137 241.5 c 128,-1,47
 1152 236 1152 236 1169 236 c 0,48,49
 1183 236 1183 236 1202 239.5 c 128,-1,50
 1221 243 1221 243 1229 246 c 1,51,-1
 1229 6 l 1,52,53
 1221 2 1221 2 1205 -3 c 128,-1,54
 1189 -8 1189 -8 1169.5 -11.5 c 128,-1,55
 1150 -15 1150 -15 1129.5 -17.5 c 128,-1,56
 1109 -20 1109 -20 1092 -20 c 0,57,58
 1040 -20 1040 -20 999 -12 c 128,-1,59
 958 -4 958 -4 925.5 15.5 c 128,-1,60
 893 35 893 35 869 67 c 128,-1,61
 845 99 845 99 827 147 c 1,62,-1
 809 147 l 1,63,64
 788 113 788 113 759.5 82.5 c 128,-1,65
 731 52 731 52 694.5 29 c 128,-1,66
 658 6 658 6 611.5 -7 c 128,-1,67
 565 -20 565 -20 506 -20 c 0,17,18
EndSplineSet
EndChar

StartChar: beta
Encoding: 946 946 383
Width: 1290
GlyphClass: 2
Flags: W
LayerCount: 2
Fore
SplineSet
664 1567 m 0,0,1
 767 1567 767 1567 854 1542.5 c 128,-1,2
 941 1518 941 1518 1004.5 1469 c 128,-1,3
 1068 1420 1068 1420 1103.5 1346 c 128,-1,4
 1139 1272 1139 1272 1139 1174 c 0,5,6
 1139 1025 1139 1025 1062.5 938.5 c 128,-1,7
 986 852 986 852 846 829 c 1,8,-1
 846 823 l 1,9,10
 933 813 933 813 1002 785 c 128,-1,11
 1071 757 1071 757 1119 710 c 128,-1,12
 1167 663 1167 663 1193 594 c 128,-1,13
 1219 525 1219 525 1219 432 c 0,14,15
 1219 324 1219 324 1187 240 c 128,-1,16
 1155 156 1155 156 1095.5 98.5 c 128,-1,17
 1036 41 1036 41 952.5 10.5 c 128,-1,18
 869 -20 869 -20 766 -20 c 0,19,20
 675 -20 675 -20 598.5 -4 c 128,-1,21
 522 12 522 12 465 43 c 1,22,-1
 465 -492 l 1,23,-1
 160 -492 l 1,24,-1
 160 1096 l 2,25,26
 160 1219 160 1219 198.5 1308 c 128,-1,27
 237 1397 237 1397 304.5 1454.5 c 128,-1,28
 372 1512 372 1512 464 1539.5 c 128,-1,29
 556 1567 556 1567 664 1567 c 0,0,1
655 1329 m 0,30,31
 616 1329 616 1329 581.5 1317 c 128,-1,32
 547 1305 547 1305 521 1275.5 c 128,-1,33
 495 1246 495 1246 480 1195.5 c 128,-1,34
 465 1145 465 1145 465 1067 c 2,35,-1
 465 293 l 1,36,37
 487 277 487 277 514.5 264 c 128,-1,38
 542 251 542 251 571 242 c 128,-1,39
 600 233 600 233 628.5 228 c 128,-1,40
 657 223 657 223 682 223 c 0,41,42
 794 223 794 223 848.5 285 c 128,-1,43
 903 347 903 347 903 459 c 0,44,45
 903 522 903 522 882.5 565 c 128,-1,46
 862 608 862 608 826.5 634.5 c 128,-1,47
 791 661 791 661 744 672.5 c 128,-1,48
 697 684 697 684 643 684 c 2,49,-1
 571 684 l 1,50,-1
 571 926 l 1,51,-1
 625 926 l 2,52,53
 679 926 679 926 718 941.5 c 128,-1,54
 757 957 757 957 783 984.5 c 128,-1,55
 809 1012 809 1012 821.5 1051 c 128,-1,56
 834 1090 834 1090 834 1137 c 0,57,58
 834 1234 834 1234 785 1281.5 c 128,-1,59
 736 1329 736 1329 655 1329 c 0,30,31
EndSplineSet
EndChar

StartChar: gamma
Encoding: 947 947 384
Width: 1102
GlyphClass: 2
Flags: W
LayerCount: 2
Fore
SplineSet
713 18 m 2,0,1
 691 -44 691 -44 673.5 -112 c 128,-1,2
 656 -180 656 -180 644.5 -247 c 128,-1,3
 633 -314 633 -314 627 -377 c 128,-1,4
 621 -440 621 -440 621 -492 c 1,5,-1
 297 -492 l 1,6,7
 297 -450 297 -450 304.5 -389.5 c 128,-1,8
 312 -329 312 -329 325.5 -260.5 c 128,-1,9
 339 -192 339 -192 357.5 -121.5 c 128,-1,10
 376 -51 376 -51 397 12 c 1,11,-1
 2 1118 l 1,12,-1
 319 1118 l 1,13,-1
 465 625 l 2,14,15
 477 584 477 584 491 530 c 128,-1,16
 505 476 505 476 517.5 422 c 128,-1,17
 530 368 530 368 539.5 321.5 c 128,-1,18
 549 275 549 275 553 248 c 1,19,-1
 559 248 l 1,20,21
 561 280 561 280 568 321.5 c 128,-1,22
 575 363 575 363 586 410.5 c 128,-1,23
 597 458 597 458 610.5 509 c 128,-1,24
 624 560 624 560 639 610 c 2,25,-1
 784 1118 l 1,26,-1
 1102 1118 l 1,27,-1
 713 18 l 2,0,1
EndSplineSet
EndChar

StartChar: delta
Encoding: 948 948 385
Width: 1227
GlyphClass: 2
Flags: W
LayerCount: 2
Fore
SplineSet
465 918 m 1,0,1
 424 948 424 948 386.5 983.5 c 128,-1,2
 349 1019 349 1019 320.5 1061.5 c 128,-1,3
 292 1104 292 1104 275 1153.5 c 128,-1,4
 258 1203 258 1203 258 1260 c 0,5,6
 258 1334 258 1334 288.5 1391.5 c 128,-1,7
 319 1449 319 1449 374.5 1488 c 128,-1,8
 430 1527 430 1527 508 1547 c 128,-1,9
 586 1567 586 1567 682 1567 c 0,10,11
 747 1567 747 1567 803.5 1559 c 128,-1,12
 860 1551 860 1551 911.5 1537 c 128,-1,13
 963 1523 963 1523 1012 1502.5 c 128,-1,14
 1061 1482 1061 1482 1112 1456 c 1,15,-1
 1004 1241 l 1,16,17
 920 1286 920 1286 842.5 1313.5 c 128,-1,18
 765 1341 765 1341 686 1341 c 0,19,20
 649 1341 649 1341 624 1333 c 128,-1,21
 599 1325 599 1325 583 1311 c 128,-1,22
 567 1297 567 1297 560 1279 c 128,-1,23
 553 1261 553 1261 553 1241 c 0,24,25
 553 1214 553 1214 568.5 1188 c 128,-1,26
 584 1162 584 1162 615.5 1134.5 c 128,-1,27
 647 1107 647 1107 694 1077 c 128,-1,28
 741 1047 741 1047 803 1012 c 0,29,30
 969 918 969 918 1046.5 795 c 128,-1,31
 1124 672 1124 672 1124 512 c 0,32,33
 1124 374 1124 374 1087.5 274 c 128,-1,34
 1051 174 1051 174 983.5 108.5 c 128,-1,35
 916 43 916 43 820.5 11.5 c 128,-1,36
 725 -20 725 -20 608 -20 c 0,37,38
 498 -20 498 -20 405.5 10.5 c 128,-1,39
 313 41 313 41 245.5 99.5 c 128,-1,40
 178 158 178 158 140 243 c 128,-1,41
 102 328 102 328 102 438 c 0,42,43
 102 544 102 544 130 623.5 c 128,-1,44
 158 703 158 703 206.5 760.5 c 128,-1,45
 255 818 255 818 321.5 856 c 128,-1,46
 388 894 388 894 465 918 c 1,0,1
813 492 m 0,47,48
 813 545 813 545 800.5 589.5 c 128,-1,49
 788 634 788 634 765 671 c 128,-1,50
 742 708 742 708 710 738 c 128,-1,51
 678 768 678 768 639 793 c 1,52,53
 603 781 603 781 563.5 756.5 c 128,-1,54
 524 732 524 732 491.5 691 c 128,-1,55
 459 650 459 650 437.5 591 c 128,-1,56
 416 532 416 532 416 451 c 0,57,58
 416 403 416 403 429 361.5 c 128,-1,59
 442 320 442 320 467 289.5 c 128,-1,60
 492 259 492 259 528 242 c 128,-1,61
 564 225 564 225 610 225 c 0,62,63
 707 225 707 225 760 293 c 128,-1,64
 813 361 813 361 813 492 c 0,47,48
EndSplineSet
EndChar

StartChar: epsilon
Encoding: 949 949 386
Width: 1075
GlyphClass: 2
Flags: W
LayerCount: 2
Fore
SplineSet
778 688 m 1,0,-1
 778 477 l 1,1,-1
 633 477 l 2,2,3
 497 477 497 477 438 440.5 c 128,-1,4
 379 404 379 404 379 336 c 0,5,6
 379 308 379 308 392 286 c 128,-1,7
 405 264 405 264 434.5 248 c 128,-1,8
 464 232 464 232 510.5 223.5 c 128,-1,9
 557 215 557 215 623 215 c 0,10,11
 680 215 680 215 733 222.5 c 128,-1,12
 786 230 786 230 834 242 c 128,-1,13
 882 254 882 254 923.5 269.5 c 128,-1,14
 965 285 965 285 997 301 c 1,15,-1
 997 57 l 1,16,17
 925 22 925 22 822.5 1 c 128,-1,18
 720 -20 720 -20 590 -20 c 0,19,20
 455 -20 455 -20 358 3.5 c 128,-1,21
 261 27 261 27 198.5 69.5 c 128,-1,22
 136 112 136 112 107 173 c 128,-1,23
 78 234 78 234 78 309 c 0,24,25
 78 371 78 371 97.5 416 c 128,-1,26
 117 461 117 461 152.5 493.5 c 128,-1,27
 188 526 188 526 238.5 546 c 128,-1,28
 289 566 289 566 350 578 c 1,29,-1
 350 588 l 1,30,31
 242 613 242 613 189.5 679.5 c 128,-1,32
 137 746 137 746 137 846 c 0,33,34
 137 926 137 926 173.5 981.5 c 128,-1,35
 210 1037 210 1037 272.5 1072 c 128,-1,36
 335 1107 335 1107 418.5 1123 c 128,-1,37
 502 1139 502 1139 596 1139 c 0,38,39
 650 1139 650 1139 705 1133 c 128,-1,40
 760 1127 760 1127 812 1116 c 128,-1,41
 864 1105 864 1105 911.5 1089.5 c 128,-1,42
 959 1074 959 1074 999 1055 c 1,43,-1
 913 834 l 1,44,45
 847 864 847 864 772.5 888.5 c 128,-1,46
 698 913 698 913 612 913 c 0,47,48
 566 913 566 913 528.5 907.5 c 128,-1,49
 491 902 491 902 465 889.5 c 128,-1,50
 439 877 439 877 424.5 857.5 c 128,-1,51
 410 838 410 838 410 809 c 0,52,53
 410 743 410 743 467 715.5 c 128,-1,54
 524 688 524 688 647 688 c 2,55,-1
 778 688 l 1,0,-1
EndSplineSet
EndChar

StartChar: zeta
Encoding: 950 950 387
Width: 969
GlyphClass: 2
Flags: W
LayerCount: 2
Fore
SplineSet
958 -37 m 0,0,1
 958 -82 958 -82 946 -127.5 c 128,-1,2
 934 -173 934 -173 915 -217.5 c 128,-1,3
 896 -262 896 -262 871.5 -303 c 128,-1,4
 847 -344 847 -344 821 -379 c 1,5,-1
 514 -379 l 1,6,7
 543 -340 543 -340 570 -298.5 c 128,-1,8
 597 -257 597 -257 617.5 -218 c 128,-1,9
 638 -179 638 -179 650 -144.5 c 128,-1,10
 662 -110 662 -110 662 -84 c 0,11,12
 662 -71 662 -71 656 -59 c 128,-1,13
 650 -47 650 -47 633 -35.5 c 128,-1,14
 616 -24 616 -24 584 -13.5 c 128,-1,15
 552 -3 552 -3 500 8 c 0,16,17
 407 26 407 26 333 62 c 128,-1,18
 259 98 259 98 208 154.5 c 128,-1,19
 157 211 157 211 129.5 288.5 c 128,-1,20
 102 366 102 366 102 467 c 0,21,22
 102 598 102 598 143 717 c 128,-1,23
 184 836 184 836 254 945.5 c 128,-1,24
 324 1055 324 1055 416 1155.5 c 128,-1,25
 508 1256 508 1256 610 1350 c 1,26,27
 594 1345 594 1345 568 1342 c 128,-1,28
 542 1339 542 1339 514 1337 c 128,-1,29
 486 1335 486 1335 459.5 1334 c 128,-1,30
 433 1333 433 1333 416 1333 c 2,31,-1
 160 1333 l 1,32,-1
 160 1556 l 1,33,-1
 952 1556 l 1,34,-1
 952 1374 l 1,35,36
 831 1262 831 1262 744 1165 c 128,-1,37
 657 1068 657 1068 597.5 983.5 c 128,-1,38
 538 899 538 899 502 826.5 c 128,-1,39
 466 754 466 754 447 692 c 128,-1,40
 428 630 428 630 422 577.5 c 128,-1,41
 416 525 416 525 416 481 c 0,42,43
 416 407 416 407 433.5 362 c 128,-1,44
 451 317 451 317 484 290.5 c 128,-1,45
 517 264 517 264 563.5 250 c 128,-1,46
 610 236 610 236 668 223 c 0,47,48
 750 205 750 205 805.5 179 c 128,-1,49
 861 153 861 153 895 120.5 c 128,-1,50
 929 88 929 88 943.5 48.5 c 128,-1,51
 958 9 958 9 958 -37 c 0,0,1
EndSplineSet
EndChar

StartChar: eta
Encoding: 951 951 388
Width: 1284
GlyphClass: 2
Flags: W
LayerCount: 2
Fore
SplineSet
825 -492 m 1,0,-1
 825 647 l 2,1,2
 825 771 825 771 787.5 833 c 128,-1,3
 750 895 750 895 670 895 c 0,4,5
 612 895 612 895 572.5 871 c 128,-1,6
 533 847 533 847 509 800 c 128,-1,7
 485 753 485 753 475 684 c 128,-1,8
 465 615 465 615 465 526 c 2,9,-1
 465 0 l 1,10,-1
 160 0 l 1,11,-1
 160 1118 l 1,12,-1
 393 1118 l 1,13,-1
 434 975 l 1,14,-1
 451 975 l 1,15,16
 475 1017 475 1017 508.5 1048 c 128,-1,17
 542 1079 542 1079 582 1099 c 128,-1,18
 622 1119 622 1119 667 1129 c 128,-1,19
 712 1139 712 1139 760 1139 c 0,20,21
 946 1139 946 1139 1038 1035.5 c 128,-1,22
 1130 932 1130 932 1130 719 c 2,23,-1
 1130 -492 l 1,24,-1
 825 -492 l 1,0,-1
EndSplineSet
EndChar

StartChar: theta
Encoding: 952 952 389
Width: 1225
GlyphClass: 2
Flags: W
LayerCount: 2
Fore
SplineSet
1122 780 m 0,0,1
 1122 592 1122 592 1094 443.5 c 128,-1,2
 1066 295 1066 295 1004.5 192 c 128,-1,3
 943 89 943 89 845.5 34.5 c 128,-1,4
 748 -20 748 -20 610 -20 c 0,5,6
 481 -20 481 -20 385.5 34.5 c 128,-1,7
 290 89 290 89 227 192 c 128,-1,8
 164 295 164 295 133 443.5 c 128,-1,9
 102 592 102 592 102 780 c 256,10,11
 102 968 102 968 130 1116.5 c 128,-1,12
 158 1265 158 1265 219 1368 c 128,-1,13
 280 1471 280 1471 376.5 1525 c 128,-1,14
 473 1579 473 1579 610 1579 c 0,15,16
 739 1579 739 1579 835 1525.5 c 128,-1,17
 931 1472 931 1472 995 1369.5 c 128,-1,18
 1059 1267 1059 1267 1090.5 1118.5 c 128,-1,19
 1122 970 1122 970 1122 780 c 0,0,1
610 201 m 0,20,21
 712 201 712 201 758 317.5 c 128,-1,22
 804 434 804 434 809 672 c 1,23,-1
 414 672 l 1,24,25
 417 437 417 437 462 319 c 128,-1,26
 507 201 507 201 610 201 c 0,20,21
612 1358 m 0,27,28
 512 1358 512 1358 467 1243.5 c 128,-1,29
 422 1129 422 1129 416 899 c 1,30,-1
 809 899 l 1,31,32
 803 1129 803 1129 757 1243.5 c 128,-1,33
 711 1358 711 1358 612 1358 c 0,27,28
EndSplineSet
EndChar

StartChar: iota
Encoding: 953 953 390
Width: 793
GlyphClass: 2
Flags: W
LayerCount: 2
Fore
SplineSet
465 1118 m 1,0,-1
 465 350 l 2,1,2
 465 285 465 285 497 254 c 128,-1,3
 529 223 529 223 582 223 c 0,4,5
 627 223 627 223 667.5 233 c 128,-1,6
 708 243 708 243 750 258 c 1,7,-1
 750 31 l 1,8,9
 706 9 706 9 642.5 -5.5 c 128,-1,10
 579 -20 579 -20 504 -20 c 0,11,12
 431 -20 431 -20 368 -3 c 128,-1,13
 305 14 305 14 259 56.5 c 128,-1,14
 213 99 213 99 186.5 170.5 c 128,-1,15
 160 242 160 242 160 350 c 2,16,-1
 160 1118 l 1,17,-1
 465 1118 l 1,0,-1
EndSplineSet
EndChar

StartChar: lambda
Encoding: 955 955 392
Width: 1198
GlyphClass: 2
Flags: W
LayerCount: 2
Fore
SplineSet
8 0 m 1,0,-1
 451 1057 l 1,1,-1
 418 1149 l 2,2,3
 399 1202 399 1202 378.5 1234 c 128,-1,4
 358 1266 358 1266 334 1283.5 c 128,-1,5
 310 1301 310 1301 281 1307 c 128,-1,6
 252 1313 252 1313 215 1313 c 0,7,8
 189 1313 189 1313 164 1309 c 128,-1,9
 139 1305 139 1305 121 1300 c 1,10,-1
 121 1552 l 1,11,12
 134 1555 134 1555 153.5 1558.5 c 128,-1,13
 173 1562 173 1562 195 1564 c 128,-1,14
 217 1566 217 1566 239 1567.5 c 128,-1,15
 261 1569 261 1569 279 1569 c 0,16,17
 371 1569 371 1569 437 1545 c 128,-1,18
 503 1521 503 1521 551.5 1475 c 128,-1,19
 600 1429 600 1429 634.5 1362.5 c 128,-1,20
 669 1296 669 1296 698 1210 c 2,21,-1
 963 438 l 2,22,23
 984 374 984 374 1004 334.5 c 128,-1,24
 1024 295 1024 295 1043.5 273 c 128,-1,25
 1063 251 1063 251 1082 243.5 c 128,-1,26
 1101 236 1101 236 1122 236 c 0,27,28
 1136 236 1136 236 1153.5 238.5 c 128,-1,29
 1171 241 1171 241 1188 246 c 1,30,-1
 1188 10 l 1,31,32
 1176 4 1176 4 1155.5 -1.5 c 128,-1,33
 1135 -7 1135 -7 1111 -11 c 128,-1,34
 1087 -15 1087 -15 1062.5 -17.5 c 128,-1,35
 1038 -20 1038 -20 1020 -20 c 0,36,37
 961 -20 961 -20 917 -4 c 128,-1,38
 873 12 873 12 840.5 42 c 128,-1,39
 808 72 808 72 784.5 114 c 128,-1,40
 761 156 761 156 743 207 c 2,41,-1
 651 479 l 2,42,43
 628 545 628 545 609.5 604.5 c 128,-1,44
 591 664 591 664 582 715 c 1,45,-1
 575 715 l 1,46,47
 568 688 568 688 560 658 c 128,-1,48
 552 628 552 628 543.5 598 c 128,-1,49
 535 568 535 568 526 539 c 128,-1,50
 517 510 517 510 508 485 c 2,51,-1
 324 0 l 1,52,-1
 8 0 l 1,0,-1
EndSplineSet
EndChar

StartChar: nu
Encoding: 957 957 394
Width: 1157
GlyphClass: 2
Flags: W
LayerCount: 2
Fore
SplineSet
6 1118 m 1,0,-1
 319 1118 l 1,1,-1
 510 498 l 2,2,3
 517 475 517 475 525.5 444 c 128,-1,4
 534 413 534 413 542 381.5 c 128,-1,5
 550 350 550 350 558 320.5 c 128,-1,6
 566 291 566 291 571 270 c 1,7,-1
 580 270 l 1,8,9
 631 347 631 347 667.5 434.5 c 128,-1,10
 704 522 704 522 726.5 625 c 128,-1,11
 749 728 749 728 759.5 850 c 128,-1,12
 770 972 770 972 770 1118 c 1,13,-1
 1077 1118 l 1,14,15
 1077 952 1077 952 1058.5 805 c 128,-1,16
 1040 658 1040 658 993.5 522 c 128,-1,17
 947 386 947 386 868.5 257.5 c 128,-1,18
 790 129 790 129 670 0 c 1,19,-1
 395 0 l 1,20,-1
 6 1118 l 1,0,-1
EndSplineSet
EndChar

StartChar: xi
Encoding: 958 958 395
Width: 969
GlyphClass: 2
Flags: W
LayerCount: 2
Fore
SplineSet
102 438 m 0,0,1
 102 506 102 506 122.5 563 c 128,-1,2
 143 620 143 620 180.5 666.5 c 128,-1,3
 218 713 218 713 270 748.5 c 128,-1,4
 322 784 322 784 385 809 c 1,5,-1
 385 819 l 1,6,7
 280 844 280 844 223 907 c 128,-1,8
 166 970 166 970 166 1073 c 0,9,10
 166 1128 166 1128 183 1170.5 c 128,-1,11
 200 1213 200 1213 235 1246 c 128,-1,12
 270 1279 270 1279 325 1303.5 c 128,-1,13
 380 1328 380 1328 455 1346 c 1,14,15
 391 1343 391 1343 336 1340 c 0,16,17
 313 1339 313 1339 289.5 1337.5 c 128,-1,18
 266 1336 266 1336 245 1335 c 128,-1,19
 224 1334 224 1334 207.5 1333.5 c 128,-1,20
 191 1333 191 1333 182 1333 c 2,21,-1
 160 1333 l 1,22,-1
 160 1556 l 1,23,-1
 903 1556 l 1,24,-1
 903 1346 l 1,25,-1
 838 1346 l 2,26,27
 765 1346 765 1346 698 1330 c 128,-1,28
 631 1314 631 1314 580 1282.5 c 128,-1,29
 529 1251 529 1251 499 1203.5 c 128,-1,30
 469 1156 469 1156 469 1092 c 0,31,32
 469 1049 469 1049 480 1016 c 128,-1,33
 491 983 491 983 518.5 960.5 c 128,-1,34
 546 938 546 938 592 926.5 c 128,-1,35
 638 915 638 915 707 915 c 2,36,-1
 850 915 l 1,37,-1
 850 705 l 1,38,-1
 702 705 l 2,39,40
 551 705 551 705 483.5 643.5 c 128,-1,41
 416 582 416 582 416 459 c 0,42,43
 416 393 416 393 433.5 353 c 128,-1,44
 451 313 451 313 484 288.5 c 128,-1,45
 517 264 517 264 563.5 250 c 128,-1,46
 610 236 610 236 668 223 c 0,47,48
 750 205 750 205 805.5 179 c 128,-1,49
 861 153 861 153 895 120.5 c 128,-1,50
 929 88 929 88 943.5 48.5 c 128,-1,51
 958 9 958 9 958 -37 c 0,52,53
 958 -82 958 -82 946 -127.5 c 128,-1,54
 934 -173 934 -173 915 -217.5 c 128,-1,55
 896 -262 896 -262 871.5 -303 c 128,-1,56
 847 -344 847 -344 821 -379 c 1,57,-1
 514 -379 l 1,58,59
 543 -340 543 -340 570 -298.5 c 128,-1,60
 597 -257 597 -257 617.5 -218 c 128,-1,61
 638 -179 638 -179 650 -144.5 c 128,-1,62
 662 -110 662 -110 662 -84 c 0,63,64
 662 -71 662 -71 656 -59 c 128,-1,65
 650 -47 650 -47 633 -35.5 c 128,-1,66
 616 -24 616 -24 584 -13.5 c 128,-1,67
 552 -3 552 -3 500 8 c 0,68,69
 407 26 407 26 333 61 c 128,-1,70
 259 96 259 96 208 149.5 c 128,-1,71
 157 203 157 203 129.5 274.5 c 128,-1,72
 102 346 102 346 102 438 c 0,0,1
EndSplineSet
EndChar

StartChar: pi
Encoding: 960 960 397
Width: 1452
GlyphClass: 2
Flags: W
LayerCount: 2
Fore
SplineSet
1239 219 m 0,0,1
 1274 219 1274 219 1306.5 228.5 c 128,-1,2
 1339 238 1339 238 1368 254 c 1,3,-1
 1368 35 l 1,4,5
 1350 24 1350 24 1325.5 14 c 128,-1,6
 1301 4 1301 4 1271.5 -3.5 c 128,-1,7
 1242 -11 1242 -11 1210.5 -15.5 c 128,-1,8
 1179 -20 1179 -20 1147 -20 c 0,9,10
 1076 -20 1076 -20 1019 -1 c 128,-1,11
 962 18 962 18 922.5 57.5 c 128,-1,12
 883 97 883 97 861.5 159 c 128,-1,13
 840 221 840 221 840 307 c 2,14,-1
 840 885 l 1,15,-1
 563 885 l 1,16,-1
 563 0 l 1,17,-1
 258 0 l 1,18,-1
 258 885 l 1,19,-1
 25 885 l 1,20,-1
 25 1016 l 1,21,-1
 203 1118 l 1,22,-1
 1380 1118 l 1,23,-1
 1380 885 l 1,24,-1
 1145 885 l 1,25,-1
 1145 319 l 2,26,27
 1145 268 1145 268 1172 243.5 c 128,-1,28
 1199 219 1199 219 1239 219 c 0,0,1
EndSplineSet
EndChar

StartChar: rho
Encoding: 961 961 398
Width: 1214
GlyphClass: 2
Flags: W
LayerCount: 2
Fore
SplineSet
1112 559 m 0,0,1
 1112 420 1112 420 1082.5 312 c 128,-1,2
 1053 204 1053 204 997.5 130.5 c 128,-1,3
 942 57 942 57 863 18.5 c 128,-1,4
 784 -20 784 -20 686 -20 c 0,5,6
 614 -20 614 -20 546.5 1.5 c 128,-1,7
 479 23 479 23 428 57 c 1,8,-1
 412 57 l 1,9,10
 416 14 416 14 420 -32 c 0,11,12
 423 -71 423 -71 425.5 -118.5 c 128,-1,13
 428 -166 428 -166 428 -211 c 2,14,-1
 428 -492 l 1,15,-1
 121 -492 l 1,16,-1
 121 561 l 2,17,18
 121 699 121 699 156.5 806.5 c 128,-1,19
 192 914 192 914 257.5 988 c 128,-1,20
 323 1062 323 1062 415.5 1100.5 c 128,-1,21
 508 1139 508 1139 623 1139 c 0,22,23
 729 1139 729 1139 818.5 1100.5 c 128,-1,24
 908 1062 908 1062 973.5 987.5 c 128,-1,25
 1039 913 1039 913 1075.5 805 c 128,-1,26
 1112 697 1112 697 1112 559 c 0,0,1
616 893 m 256,27,28
 568 893 568 893 533 875 c 128,-1,29
 498 857 498 857 474.5 818.5 c 128,-1,30
 451 780 451 780 439.5 720 c 128,-1,31
 428 660 428 660 428 575 c 2,32,-1
 428 311 l 1,33,34
 465 268 465 268 514.5 246.5 c 128,-1,35
 564 225 564 225 616 225 c 0,36,37
 664 225 664 225 699 244 c 128,-1,38
 734 263 734 263 756 303.5 c 128,-1,39
 778 344 778 344 788.5 407 c 128,-1,40
 799 470 799 470 799 559 c 256,41,42
 799 648 799 648 788.5 711.5 c 128,-1,43
 778 775 778 775 756 815.5 c 128,-1,44
 734 856 734 856 699 874.5 c 128,-1,45
 664 893 664 893 616 893 c 256,27,28
EndSplineSet
EndChar

StartChar: sigma1
Encoding: 962 962 399
Width: 969
GlyphClass: 2
Flags: W
LayerCount: 2
Fore
SplineSet
102 494 m 0,0,1
 102 678 102 678 139.5 802 c 128,-1,2
 177 926 177 926 245.5 1001 c 128,-1,3
 314 1076 314 1076 410.5 1107.5 c 128,-1,4
 507 1139 507 1139 625 1139 c 0,5,6
 711 1139 711 1139 796 1118 c 128,-1,7
 881 1097 881 1097 956 1059 c 1,8,-1
 868 827 l 1,9,10
 802 856 802 856 741 874.5 c 128,-1,11
 680 893 680 893 625 893 c 0,12,13
 514 893 514 893 464 795 c 128,-1,14
 414 697 414 697 414 502 c 0,15,16
 414 433 414 433 432 389.5 c 128,-1,17
 450 346 450 346 483 319.5 c 128,-1,18
 516 293 516 293 563 277.5 c 128,-1,19
 610 262 610 262 668 248 c 0,20,21
 750 229 750 229 805.5 202 c 128,-1,22
 861 175 861 175 895 141 c 128,-1,23
 929 107 929 107 943.5 66 c 128,-1,24
 958 25 958 25 958 -23 c 0,25,26
 958 -69 958 -69 946 -116.5 c 128,-1,27
 934 -164 934 -164 915 -210 c 128,-1,28
 896 -256 896 -256 871.5 -299 c 128,-1,29
 847 -342 847 -342 821 -379 c 1,30,-1
 514 -379 l 1,31,32
 543 -337 543 -337 570 -293.5 c 128,-1,33
 597 -250 597 -250 617.5 -208.5 c 128,-1,34
 638 -167 638 -167 650 -131 c 128,-1,35
 662 -95 662 -95 662 -68 c 0,36,37
 662 -54 662 -54 656 -41 c 128,-1,38
 650 -28 650 -28 633 -16 c 128,-1,39
 616 -4 616 -4 584 7.5 c 128,-1,40
 552 19 552 19 500 31 c 0,41,42
 407 51 407 51 333 89 c 128,-1,43
 259 127 259 127 208 184.5 c 128,-1,44
 157 242 157 242 129.5 319 c 128,-1,45
 102 396 102 396 102 494 c 0,0,1
EndSplineSet
EndChar

StartChar: sigma
Encoding: 963 963 400
Width: 1286
GlyphClass: 2
Flags: W
LayerCount: 2
Fore
SplineSet
1141 475 m 0,0,1
 1141 370 1141 370 1107 279.5 c 128,-1,2
 1073 189 1073 189 1007 122.5 c 128,-1,3
 941 56 941 56 843.5 18 c 128,-1,4
 746 -20 746 -20 618 -20 c 0,5,6
 502 -20 502 -20 407 16 c 128,-1,7
 312 52 312 52 244 123.5 c 128,-1,8
 176 195 176 195 139 300.5 c 128,-1,9
 102 406 102 406 102 545 c 0,10,11
 102 699 102 699 143.5 808 c 128,-1,12
 185 917 185 917 262.5 986.5 c 128,-1,13
 340 1056 340 1056 450.5 1088 c 128,-1,14
 561 1120 561 1120 700 1120 c 2,15,-1
 1245 1120 l 1,16,-1
 1245 897 l 1,17,-1
 961 897 l 1,18,19
 998 858 998 858 1030.5 813.5 c 128,-1,20
 1063 769 1063 769 1087.5 717 c 128,-1,21
 1112 665 1112 665 1126.5 605 c 128,-1,22
 1141 545 1141 545 1141 475 c 0,0,1
416 545 m 0,23,24
 416 473 416 473 428 414 c 128,-1,25
 440 355 440 355 465 313 c 128,-1,26
 490 271 490 271 529 248 c 128,-1,27
 568 225 568 225 623 225 c 0,28,29
 677 225 677 225 715.5 246.5 c 128,-1,30
 754 268 754 268 778.5 307 c 128,-1,31
 803 346 803 346 815 400.5 c 128,-1,32
 827 455 827 455 827 522 c 0,33,34
 827 645 827 645 798.5 733.5 c 128,-1,35
 770 822 770 822 717 897 c 1,36,-1
 674 897 l 2,37,38
 607 897 607 897 558 879 c 128,-1,39
 509 861 509 861 477.5 820 c 128,-1,40
 446 779 446 779 431 711.5 c 128,-1,41
 416 644 416 644 416 545 c 0,23,24
EndSplineSet
EndChar

StartChar: tau
Encoding: 964 964 401
Width: 1061
GlyphClass: 2
Flags: W
LayerCount: 2
Fore
SplineSet
627 889 m 1,0,-1
 627 350 l 2,1,2
 627 285 627 285 659 254 c 128,-1,3
 691 223 691 223 743 223 c 0,4,5
 788 223 788 223 828.5 233 c 128,-1,6
 869 243 869 243 911 258 c 1,7,-1
 911 31 l 1,8,9
 868 9 868 9 804.5 -5.5 c 128,-1,10
 741 -20 741 -20 666 -20 c 0,11,12
 593 -20 593 -20 530 -3 c 128,-1,13
 467 14 467 14 421 56.5 c 128,-1,14
 375 99 375 99 348.5 170.5 c 128,-1,15
 322 242 322 242 322 350 c 2,16,-1
 322 889 l 1,17,-1
 41 889 l 1,18,-1
 41 1016 l 1,19,-1
 209 1118 l 1,20,-1
 983 1118 l 1,21,-1
 983 889 l 1,22,-1
 627 889 l 1,0,-1
EndSplineSet
EndChar

StartChar: upsilon
Encoding: 965 965 402
Width: 1270
GlyphClass: 2
Flags: W
LayerCount: 2
Fore
SplineSet
629 -18 m 0,0,1
 487 -18 487 -18 393 22.5 c 128,-1,2
 299 63 299 63 243.5 134.5 c 128,-1,3
 188 206 188 206 165.5 302.5 c 128,-1,4
 143 399 143 399 143 510 c 2,5,-1
 143 1118 l 1,6,-1
 449 1118 l 1,7,-1
 449 500 l 2,8,9
 449 354 449 354 495 289.5 c 128,-1,10
 541 225 541 225 639 225 c 0,11,12
 690 225 690 225 729 246 c 128,-1,13
 768 267 768 267 794 313 c 128,-1,14
 820 359 820 359 833 433.5 c 128,-1,15
 846 508 846 508 846 614 c 0,16,17
 846 680 846 680 841 742 c 128,-1,18
 836 804 836 804 826.5 865 c 128,-1,19
 817 926 817 926 803.5 988.5 c 128,-1,20
 790 1051 790 1051 774 1118 c 1,21,-1
 1081 1118 l 1,22,23
 1098 1051 1098 1051 1111 989.5 c 128,-1,24
 1124 928 1124 928 1133 866.5 c 128,-1,25
 1142 805 1142 805 1146.5 741.5 c 128,-1,26
 1151 678 1151 678 1151 606 c 0,27,28
 1151 445 1151 445 1117.5 327 c 128,-1,29
 1084 209 1084 209 1018 132.5 c 128,-1,30
 952 56 952 56 854.5 19 c 128,-1,31
 757 -18 757 -18 629 -18 c 0,0,1
EndSplineSet
EndChar

StartChar: phi
Encoding: 966 966 403
Width: 1581
GlyphClass: 2
Flags: W
LayerCount: 2
Fore
SplineSet
1186 590 m 0,0,1
 1186 656 1186 656 1177.5 714.5 c 128,-1,2
 1169 773 1169 773 1149.5 817.5 c 128,-1,3
 1130 862 1130 862 1098 887.5 c 128,-1,4
 1066 913 1066 913 1020 913 c 0,5,6
 969 913 969 913 940 873.5 c 128,-1,7
 911 834 911 834 911 737 c 2,8,-1
 911 219 l 1,9,10
 974 225 974 225 1025 255 c 128,-1,11
 1076 285 1076 285 1111.5 334 c 128,-1,12
 1147 383 1147 383 1166.5 448 c 128,-1,13
 1186 513 1186 513 1186 590 c 0,0,1
629 -492 m 1,14,-1
 629 -12 l 1,15,16
 517 1 517 1 420.5 39 c 128,-1,17
 324 77 324 77 253.5 145.5 c 128,-1,18
 183 214 183 214 142.5 315 c 128,-1,19
 102 416 102 416 102 555 c 0,20,21
 102 642 102 642 118.5 721.5 c 128,-1,22
 135 801 135 801 165.5 873.5 c 128,-1,23
 196 946 196 946 238.5 1013 c 128,-1,24
 281 1080 281 1080 332 1143 c 1,25,-1
 553 999 l 1,26,27
 514 946 514 946 483.5 894.5 c 128,-1,28
 453 843 453 843 432 788.5 c 128,-1,29
 411 734 411 734 400 675.5 c 128,-1,30
 389 617 389 617 389 549 c 0,31,32
 389 470 389 470 407.5 412.5 c 128,-1,33
 426 355 426 355 458.5 315.5 c 128,-1,34
 491 276 491 276 534.5 253 c 128,-1,35
 578 230 578 230 629 219 c 1,36,-1
 629 735 l 2,37,38
 629 833 629 833 658 908 c 128,-1,39
 687 983 687 983 738 1033.5 c 128,-1,40
 789 1084 789 1084 859.5 1109.5 c 128,-1,41
 930 1135 930 1135 1014 1135 c 0,42,43
 1121 1135 1121 1135 1207 1097.5 c 128,-1,44
 1293 1060 1293 1060 1353.5 989.5 c 128,-1,45
 1414 919 1414 919 1446.5 818.5 c 128,-1,46
 1479 718 1479 718 1479 592 c 0,47,48
 1479 448 1479 448 1432.5 340 c 128,-1,49
 1386 232 1386 232 1307.5 157.5 c 128,-1,50
 1229 83 1229 83 1126 41 c 128,-1,51
 1023 -1 1023 -1 911 -12 c 1,52,-1
 911 -492 l 1,53,-1
 629 -492 l 1,14,-1
EndSplineSet
EndChar

StartChar: chi
Encoding: 967 967 404
Width: 1151
GlyphClass: 2
Flags: W
LayerCount: 2
Fore
SplineSet
229 1133 m 0,0,1
 298 1133 298 1133 346.5 1116.5 c 128,-1,2
 395 1100 395 1100 429.5 1065 c 128,-1,3
 464 1030 464 1030 489.5 975.5 c 128,-1,4
 515 921 515 921 539 846 c 2,5,-1
 608 625 l 1,6,-1
 856 1118 l 1,7,-1
 1163 1118 l 1,8,-1
 739 356 l 1,9,-1
 922 -119 l 2,10,11
 935 -153 935 -153 949.5 -175.5 c 128,-1,12
 964 -198 964 -198 982 -211.5 c 128,-1,13
 1000 -225 1000 -225 1021.5 -230.5 c 128,-1,14
 1043 -236 1043 -236 1069 -236 c 0,15,16
 1089 -236 1089 -236 1110.5 -233.5 c 128,-1,17
 1132 -231 1132 -231 1163 -223 c 1,18,-1
 1163 -461 l 1,19,20
 1142 -469 1142 -469 1122.5 -474.5 c 128,-1,21
 1103 -480 1103 -480 1081 -484 c 128,-1,22
 1059 -488 1059 -488 1034.5 -490 c 128,-1,23
 1010 -492 1010 -492 979 -492 c 0,24,25
 915 -492 915 -492 865 -473.5 c 128,-1,26
 815 -455 815 -455 777 -418.5 c 128,-1,27
 739 -382 739 -382 710.5 -327 c 128,-1,28
 682 -272 682 -272 659 -199 c 2,29,-1
 559 127 l 1,30,-1
 276 -492 l 1,31,-1
 -49 -492 l 1,32,-1
 422 393 l 1,33,-1
 299 745 l 2,34,35
 286 784 286 784 270.5 809.5 c 128,-1,36
 255 835 255 835 237.5 850 c 128,-1,37
 220 865 220 865 200.5 871 c 128,-1,38
 181 877 181 877 160 877 c 0,39,40
 141 877 141 877 112.5 873 c 128,-1,41
 84 869 84 869 53 858 c 1,42,-1
 53 1102 l 1,43,44
 95 1114 95 1114 136.5 1123.5 c 128,-1,45
 178 1133 178 1133 229 1133 c 0,0,1
EndSplineSet
EndChar

StartChar: psi
Encoding: 968 968 405
Width: 1663
GlyphClass: 2
Flags: W
LayerCount: 2
Fore
SplineSet
977 1554 m 1,0,-1
 977 217 l 1,1,2
 1051 225 1051 225 1105 246.5 c 128,-1,3
 1159 268 1159 268 1194.5 309.5 c 128,-1,4
 1230 351 1230 351 1247 416.5 c 128,-1,5
 1264 482 1264 482 1264 578 c 0,6,7
 1264 713 1264 713 1241.5 844.5 c 128,-1,8
 1219 976 1219 976 1184 1118 c 1,9,-1
 1466 1118 l 1,10,11
 1507 974 1507 974 1525.5 842.5 c 128,-1,12
 1544 711 1544 711 1544 575 c 0,13,14
 1544 418 1544 418 1500 308 c 128,-1,15
 1456 198 1456 198 1379.5 128 c 128,-1,16
 1303 58 1303 58 1199.5 23.5 c 128,-1,17
 1096 -11 1096 -11 977 -18 c 1,18,-1
 977 -492 l 1,19,-1
 694 -492 l 1,20,-1
 694 -18 l 1,21,22
 574 -14 574 -14 472.5 18.5 c 128,-1,23
 371 51 371 51 298 119 c 128,-1,24
 225 187 225 187 184 294 c 128,-1,25
 143 401 143 401 143 555 c 2,26,-1
 143 1118 l 1,27,-1
 434 1118 l 1,28,-1
 434 547 l 2,29,30
 434 460 434 460 447.5 399.5 c 128,-1,31
 461 339 461 339 491.5 300 c 128,-1,32
 522 261 522 261 571.5 241 c 128,-1,33
 621 221 621 221 694 215 c 1,34,-1
 694 1554 l 1,35,-1
 977 1554 l 1,0,-1
EndSplineSet
EndChar

